<?xml version="1.0" encoding="UTF-8" standalone="no"?>
<svg xmlns:xlink="http://www.w3.org/1999/xlink" height="13.95px" width="15.45px" xmlns="http://www.w3.org/2000/svg">
  <g transform="matrix(1.0, 0.0, 0.0, 1.0, 8.05, 7.95)">
    <use height="12.65" transform="matrix(1.0, 0.0, 0.0, 1.0, -7.4, -7.65)" width="12.4" xlink:href="#shape0"/>
  </g>
  <defs>
    <g id="shape0" transform="matrix(1.0, 0.0, 0.0, 1.0, 7.4, 7.65)">
      <path d="M-0.05 -7.65 Q-0.45 -5.5 -1.3 -4.55 L-2.75 -3.25 -3.55 -2.85 -2.65 -2.3 -2.15 -1.85 -2.2 -1.7 -2.55 -1.6 Q-5.85 -2.8 -7.4 -4.35 L-6.85 -4.4 -6.3 -4.35 -5.75 -4.2 -4.3 -3.3 Q-4.25 -5.25 -2.25 -6.5 -0.55 -7.7 -0.05 -7.65 M0.0 -5.0 Q2.05 -5.0 3.5 -3.55 4.95 -2.1 5.0 0.0 4.95 2.1 3.5 3.55 2.05 5.0 0.0 5.0 -2.1 5.0 -3.55 3.55 -5.05 2.1 -5.0 0.0 -5.05 -1.05 -4.65 -2.0 L-2.9 -1.3 -2.55 -1.25 -2.2 -1.35 -2.0 -1.45 -1.85 -1.65 -1.8 -1.8 -1.8 -1.95 -1.9 -2.15 -2.5 -2.6 -2.5 -2.65 -2.65 -2.75 -2.5 -2.85 -1.0 -4.25 -0.5 -4.95 0.0 -5.0 M-2.65 0.7 Q-2.8 0.55 -3.0 0.55 -3.2 0.55 -3.3 0.7 L-3.45 1.0 -3.3 1.35 -3.0 1.45 -2.65 1.35 -2.55 1.0 -2.65 0.7 M-1.7 0.95 Q-1.8 0.85 -1.95 0.85 L-2.2 0.95 -2.3 1.15 -2.2 1.35 -1.95 1.45 -1.7 1.35 -1.6 1.15 -1.7 0.95 M-3.95 -0.4 L-4.2 -0.15 -4.35 0.4 -4.2 1.0 -3.95 1.2 -3.65 1.0 -3.55 0.4 -3.65 -0.15 -3.95 -0.4" fill="#73b01e" fill-rule="evenodd" stroke="none"/>
    </g>
  </defs>
</svg>
