<?xml version="1.0" encoding="UTF-8" standalone="no"?>
<svg xmlns:xlink="http://www.w3.org/1999/xlink" height="13.95px" width="15.45px" xmlns="http://www.w3.org/2000/svg">
  <g transform="matrix(1.0, 0.0, 0.0, 1.0, 8.05, 7.95)">
    <use height="13.25" transform="matrix(1.0, 0.0, 0.0, 1.0, -4.2, -7.25)" width="9.35" xlink:href="#shape0"/>
  </g>
  <defs>
    <g id="shape0" transform="matrix(1.0, 0.0, 0.0, 1.0, 4.2, 7.25)">
      <path d="M3.15 2.9 L3.2 2.9 0.1 3.75 -4.2 1.45 -0.7 0.55 -0.6 1.5 -0.5 1.7 -0.35 1.85 0.1 2.05 0.3 2.1 0.5 2.0 0.85 1.75 1.0 1.6 1.05 1.45 1.05 0.1 1.55 -0.05 2.05 0.3 1.65 0.75 1.6 1.0 1.6 1.85 1.65 2.1 2.1 2.55 Q2.5 2.9 3.15 2.9 M-0.35 4.15 L-0.25 6.0 -3.55 3.65 -4.05 1.85 -0.35 4.15 M0.15 -0.35 Q0.25 -0.35 0.35 -0.45 L0.6 -0.6 0.6 1.45 Q0.4 1.55 0.25 1.7 L-0.15 1.5 -0.35 -0.55 -0.05 -0.4 0.15 -0.35 M0.85 -1.3 L0.1 -0.75 -0.85 -1.2 -1.4 -6.75 -0.25 -7.25 0.85 -6.75 0.85 -1.3 M3.75 0.8 L3.95 0.95 3.45 1.55 Q2.65 1.7 2.15 1.1 L2.15 1.05 2.35 0.8 3.05 0.6 3.75 0.8 M3.05 2.35 L2.35 2.1 2.15 1.9 2.15 1.45 Q2.65 2.0 3.6 1.85 L3.8 1.65 3.9 1.6 4.0 1.5 4.0 1.9 3.75 2.1 3.05 2.35 M5.1 2.65 L4.65 4.05 -0.25 6.0 0.3 4.25 5.1 2.65 M4.15 2.55 L4.6 2.1 4.65 1.9 5.15 2.25 4.15 2.55" fill="#73b01e" fill-rule="evenodd" stroke="none"/>
    </g>
  </defs>
</svg>
