<?xml version="1.0" encoding="UTF-8" standalone="no"?>
<svg xmlns:xlink="http://www.w3.org/1999/xlink" height="13.95px" width="15.45px" xmlns="http://www.w3.org/2000/svg">
  <g transform="matrix(1.0, 0.0, 0.0, 1.0, 8.05, 7.95)">
    <use height="11.85" transform="matrix(1.0, 0.0, 0.0, 1.0, -6.25, -6.65)" width="13.2" xlink:href="#shape0"/>
  </g>
  <defs>
    <g id="shape0" transform="matrix(1.0, 0.0, 0.0, 1.0, 6.25, 6.65)">
      <path d="M4.7 -4.15 L1.35 -0.1 5.65 1.55 4.7 -4.15 M4.55 -4.65 L4.45 -5.8 -5.5 -1.1 -5.35 -0.45 0.05 0.45 4.55 -4.65 M1.0 0.3 L0.25 1.2 -1.15 1.1 -2.95 4.4 5.6 1.9 5.05 2.05 1.0 0.3 M-3.45 4.35 L-1.75 0.75 -5.3 0.0 -3.45 4.35 M4.9 -6.65 L6.95 2.5 -3.8 5.2 -6.25 -1.4 4.9 -6.65" fill="#73b01e" fill-rule="evenodd" stroke="none"/>
    </g>
  </defs>
</svg>
