<?xml version="1.0" encoding="UTF-8" standalone="no"?>
<svg xmlns:xlink="http://www.w3.org/1999/xlink" height="16.55px" width="19.45px" xmlns="http://www.w3.org/2000/svg">
  <g transform="matrix(1.0, 0.0, 0.0, 1.0, 0.85, -1.05)" >
    <use height="14.6" transform="matrix(1.0, 0.0, 0.0, 1.0, 1.4, 1.6)" width="14.6" xlink:href="#shape0"/>
  </g>
  <defs >
    <g id="shape0" transform="matrix(1.0, 0.0, 0.0, 1.0, -1.4, -1.6)">
      <path d="M13.5 4.1 Q15.5 6.1 15.5 8.9 15.5 11.7 13.5 13.7 11.5 15.7 8.7 15.7 5.9 15.7 3.9 13.7 1.9 11.7 1.9 8.9 1.9 6.1 3.9 4.1 5.9 2.1 8.7 2.1 11.5 2.1 13.5 4.1" fill="url(#gradient0)" fill-rule="evenodd" stroke="none"/>
      <path d="M13.5 4.1 Q15.5 6.1 15.5 8.9 15.5 11.7 13.5 13.7 11.5 15.7 8.7 15.7 5.9 15.7 3.9 13.7 1.9 11.7 1.9 8.9 1.9 6.1 3.9 4.1 5.9 2.1 8.7 2.1 11.5 2.1 13.5 4.1 Z" fill="none" stroke="#ffffff" stroke-linecap="round" stroke-linejoin="round" stroke-width="1.0"/>
    </g>
    <radialGradient cx="0" cy="0" gradientTransform="matrix(0.014, 0.0, 0.0, 0.014, 6.35, 5.9)" gradientUnits="userSpaceOnUse" id="gradient0" r="819.2" spreadMethod="pad">
      <stop offset="0.0" stop-color="#ffffff"/>
      <stop offset="1.0" stop-color="#ffffff" stop-opacity="0.0"/>
    </radialGradient>
  </defs>
</svg>
