<?xml version="1.0" encoding="UTF-8" standalone="no"?>
<svg xmlns:xlink="http://www.w3.org/1999/xlink" height="16.55px" width="19.45px" xmlns="http://www.w3.org/2000/svg">
  <g transform="matrix(1.0, 0.0, 0.0, 1.0, 0.85, -1.05)">
    <use height="16.35" transform="matrix(1.0, 0.0, 0.0, 1.0, 1.55, 1.15)" width="16.45" xlink:href="#shape0"/>
  </g>
  <defs>
    <g id="shape0" transform="matrix(1.0, 0.0, 0.0, 1.0, -1.55, -1.15)">
      <path d="M10.55 2.6 Q13.65 2.6 15.85 4.8 18.0 6.95 18.0 10.05 18.0 13.15 15.85 15.35 13.65 17.5 10.55 17.5 7.45 17.5 5.3 15.35 3.1 13.15 3.1 10.05 3.1 6.95 5.3 4.8 7.45 2.6 10.55 2.6" fill="#000000" fill-opacity="0.15294118" fill-rule="evenodd" stroke="none"/>
      <path d="M15.7 8.6 Q15.7 11.4 13.75 13.35 11.8 15.3 9.0 15.3 6.2 15.3 4.25 13.35 2.3 11.4 2.3 8.6 2.3 5.8 4.25 3.85 6.2 1.9 9.0 1.9 11.8 1.9 13.75 3.85 15.7 5.8 15.7 8.6" fill="#e3756a" fill-rule="evenodd" stroke="none"/>
      <path d="M15.7 8.6 Q15.7 11.4 13.75 13.35 11.8 15.3 9.0 15.3 6.2 15.3 4.25 13.35 2.3 11.4 2.3 8.6 2.3 5.8 4.25 3.85 6.2 1.9 9.0 1.9 11.8 1.9 13.75 3.85 15.7 5.8 15.7 8.6 Z" fill="none" stroke="#ffffff" stroke-linecap="round" stroke-linejoin="round" stroke-width="1.5"/>
      <path d="M13.1 7.6 L13.1 9.65 5.1 9.65 5.1 7.6 13.1 7.6" fill="#ffffff" fill-rule="evenodd" stroke="none"/>
    </g>
  </defs>
</svg>
