<?xml version="1.0" encoding="UTF-8" standalone="no"?>
<svg xmlns:xlink="http://www.w3.org/1999/xlink" height="18.05px" width="19.4px" xmlns="http://www.w3.org/2000/svg">
  <g transform="matrix(1.0, 0.0, 0.0, 1.0, 9.6, 9.05)">
    <use height="14.1" transform="matrix(1.0, 0.0, 0.0, 1.0, -9.25, -7.0)" width="18.75" xlink:href="#shape0"/>
  </g>
  <defs>
    <g id="shape0" transform="matrix(1.0, 0.0, 0.0, 1.0, 9.25, 7.0)">
      <path d="M6.35 -6.05 L6.8 -5.9 6.9 -5.8 Q7.65 -5.3 7.8 -4.8 L7.9 -4.6 Q8.75 -4.25 8.95 -3.9 L9.15 -3.65 9.15 -3.6 9.2 -3.5 9.2 -3.45 9.25 -3.4 9.35 -3.15 9.4 -2.85 9.35 -2.5 9.3 -2.45 9.25 -2.35 9.2 -2.3 9.1 -2.3 9.2 -2.2 Q9.65 -1.45 9.4 -0.45 L9.4 -0.35 9.4 -0.3 8.95 0.75 7.8 2.0 7.7 2.05 7.65 2.1 7.05 2.25 6.95 2.25 6.9 2.25 5.9 2.05 Q4.55 3.55 2.25 4.45 L1.1 4.9 1.1 4.95 1.05 5.05 0.95 5.2 1.0 5.2 0.9 5.35 0.85 5.4 Q0.05 7.45 -2.45 7.0 -3.9 6.75 -4.45 6.1 L-4.65 5.9 -5.75 6.2 -5.8 6.2 -7.7 5.9 -8.0 5.85 -8.05 5.85 -8.6 5.45 Q-9.5 4.25 -9.15 3.2 -9.1 2.0 -8.5 1.2 L-8.05 0.15 Q-8.65 -0.75 -8.6 -1.65 -8.65 -2.95 -7.35 -4.25 -6.15 -5.5 -4.55 -6.15 L-4.5 -6.15 -4.5 -6.2 -4.4 -6.25 -4.3 -6.35 -3.55 -6.5 -3.5 -6.5 -3.45 -6.5 -3.25 -6.55 -3.05 -6.55 -2.35 -6.55 -2.15 -6.55 -2.05 -6.55 -1.4 -6.35 -0.75 -6.5 0.6 -6.75 1.8 -7.0 1.85 -7.0 2.1 -7.0 Q4.0 -6.85 5.35 -6.0 L6.3 -6.05 6.35 -6.05 M8.85 -2.55 L8.8 -2.5 8.85 -2.45 8.85 -2.55 M9.05 -2.3 L9.05 -2.25 9.05 -2.3" fill="#000000" fill-rule="evenodd" stroke="none"/>
      <path d="M0.85 -5.95 L2.0 -6.15 Q4.0 -6.0 5.2 -5.05 L5.2 -5.0 5.05 -5.1 Q4.05 -5.65 3.0 -5.8 L2.9 -5.85 2.3 -5.9 1.9 -5.95 1.85 -5.95 1.55 -5.85 1.3 -5.85 1.0 -5.8 0.95 -5.8 0.85 -5.75 0.85 -5.85 0.85 -5.95" fill="#ffcc00" fill-rule="evenodd" stroke="none"/>
      <path d="M-7.0 0.1 L-6.95 0.05 -6.85 -0.05 -6.15 -1.35 Q-5.85 -1.8 -5.3 -1.9 -4.35 -3.65 -2.6 -4.8 L-2.3 -4.65 -2.25 -4.75 -2.15 -4.8 -2.2 -4.8 -2.4 -4.95 -2.25 -5.05 -2.75 -4.95 -2.45 -5.05 -3.45 -5.3 -5.15 -4.6 Q-6.3 -4.0 -7.05 -2.95 L-7.05 -2.9 -7.1 -2.9 -7.2 -2.9 -7.2 -2.85 -7.35 -2.2 -7.3 -1.55 -7.25 -1.55 -7.15 -1.45 -7.05 -1.45 -7.05 -1.5 -6.9 -2.3 -6.8 -2.55 -6.6 -3.0 -6.15 -3.45 -5.15 -4.35 -5.0 -4.3 -4.8 -4.35 -4.65 -4.45 -3.45 -5.05 -3.35 -5.0 -3.05 -4.95 -3.85 -4.75 Q-4.65 -4.55 -5.25 -4.0 L-6.8 -2.55 -6.6 -2.75 -7.0 -0.3 Q-7.6 -1.05 -7.6 -1.8 -7.55 -2.8 -6.6 -3.7 -5.5 -4.9 -3.95 -5.5 L-3.3 -5.65 -3.0 -5.7 -2.95 -5.7 -2.3 -5.7 -1.55 -5.5 -1.55 -5.45 -1.5 -5.4 -1.5 -5.45 -0.5 -5.7 0.85 -5.95 0.85 -5.85 0.75 -5.85 Q-0.65 -5.7 -1.85 -5.0 L-1.9 -4.95 -1.9 -4.9 -1.85 -4.9 -0.3 -5.3 -0.25 -5.35 0.0 -5.55 0.1 -5.55 0.85 -5.7 0.8 -5.65 0.55 -5.55 Q-2.25 -4.65 -3.3 -2.45 L-3.45 -1.7 -3.8 -0.35 -3.9 -0.3 -3.9 -0.25 -4.25 -0.25 -4.35 -0.35 -4.35 -0.4 -4.4 -0.4 -4.35 -0.8 -4.2 -1.1 -4.25 -1.3 Q-4.5 -1.45 -4.4 -1.7 L-4.4 -1.85 -5.25 -0.85 -5.8 -0.4 -5.9 -0.3 -6.0 -0.1 -6.75 0.4 -7.0 0.25 -7.0 0.15 -7.0 0.1 M-5.8 -1.0 L-5.45 -1.0 Q-3.75 -2.2 -2.65 -3.85 L-2.8 -3.95 -2.9 -3.9 -4.85 -2.3 -4.85 -2.25 -4.9 -2.2 -5.4 -1.7 -5.35 -1.65 -5.3 -1.55 -5.8 -1.0" fill="#fff0c1" fill-rule="evenodd" stroke="none"/>
      <path d="M0.6 -5.25 L0.4 -4.95 0.3 -4.9 0.1 -4.9 0.0 -4.95 0.55 -5.55 0.8 -5.65 0.65 -5.35 0.6 -5.25" fill="#cd8f01" fill-rule="evenodd" stroke="none"/>
      <path d="M5.2 -5.05 L6.3 -5.2 Q7.25 -4.6 6.75 -4.1 L7.9 -3.3 5.3 -3.4 4.2 -3.35 0.85 -2.95 0.85 -2.85 0.4 -3.3 0.9 -3.45 1.25 -3.6 Q3.05 -4.15 5.0 -4.3 L4.95 -4.75 5.2 -5.0 5.2 -5.05 M-5.8 -1.0 L-5.3 -1.55 -5.35 -1.65 -5.4 -1.7 -4.9 -2.2 -4.85 -2.25 -4.85 -2.3 -2.9 -3.9 -2.8 -3.95 -2.65 -3.85 Q-3.75 -2.2 -5.45 -1.0 L-5.8 -1.0 M-6.5 2.2 Q-5.7 2.7 -6.2 3.6 L-6.35 3.85 -6.6 4.0 -6.6 3.9 Q-7.0 3.0 -6.5 2.2 M1.55 -5.85 L2.5 -5.65 3.0 -5.05 3.05 -5.0 Q2.2 -3.4 0.75 -4.85 L0.6 -5.25 0.65 -5.35 0.8 -5.65 0.85 -5.7 1.0 -5.8 1.3 -5.85 1.55 -5.85 M-1.55 -2.45 Q-0.8 -2.0 -1.2 -1.05 -1.45 -0.55 -1.8 -0.6 L-1.8 -0.7 Q-2.15 -1.6 -1.55 -2.35 L-1.55 -2.45" fill="#ffffff" fill-rule="evenodd" stroke="none"/>
      <path d="M7.3 -2.65 Q8.75 -2.05 8.4 -0.7 L8.1 -0.95 8.1 -0.9 7.6 -0.65 7.5 -0.65 7.25 -0.7 7.2 -0.7 7.1 -0.65 7.05 -0.65 6.75 -0.8 6.3 -0.6 6.4 -0.9 6.75 -1.45 6.9 -2.35 6.9 -2.45 6.85 -2.6 7.3 -2.65 M-4.0 4.15 L-4.0 4.1 -1.65 4.2 -1.95 4.65 -2.45 4.75 -3.05 4.85 -3.45 4.85 -3.9 4.2 -4.0 4.15 M-7.4 4.7 L-7.8 4.65 Q-8.35 3.9 -8.1 3.25 L-8.1 3.0 Q-8.1 2.05 -7.5 1.5 -7.05 0.95 -6.05 0.8 -4.85 1.25 -4.4 1.9 -3.95 2.55 -4.1 3.35 L-4.2 3.25 -4.4 3.2 -4.55 3.2 -4.55 3.1 -4.65 3.05 -4.65 3.0 -4.95 2.85 -5.1 2.9 -5.15 2.95 -5.4 3.25 -5.45 3.35 -5.55 3.05 -5.85 3.2 -6.0 3.35 -6.3 3.85 -6.35 3.85 -6.2 3.6 Q-5.7 2.7 -6.5 2.2 L-6.65 2.1 Q-7.4 2.25 -7.5 2.95 -7.6 3.45 -7.2 3.8 L-7.15 3.85 -6.95 3.95 -7.4 4.4 -7.45 4.5 -7.45 4.65 -7.4 4.7 M0.85 -2.85 L0.95 -2.65 1.0 -2.6 1.1 -2.15 1.1 -1.75 1.05 -1.8 0.9 -1.75 0.7 -1.6 0.2 -1.7 -0.35 -1.4 -0.65 -1.45 -0.8 -1.4 -1.25 -0.8 -1.3 -0.7 -1.5 -0.6 -1.85 -0.3 -2.1 0.4 -2.25 0.25 -2.4 0.15 -2.6 -0.15 Q-3.75 -2.8 -0.6 -3.8 L0.4 -3.3 0.85 -2.85 M-1.8 -0.6 Q-1.45 -0.55 -1.2 -1.05 -0.8 -2.0 -1.55 -2.45 L-1.7 -2.5 Q-2.55 -2.2 -2.4 -1.25 L-2.2 -0.85 Q-2.0 -0.65 -1.8 -0.6" fill="#666666" fill-rule="evenodd" stroke="none"/>
      <path d="M-6.95 3.95 L-7.15 3.85 -7.2 3.8 Q-7.6 3.45 -7.5 2.95 -7.4 2.25 -6.65 2.1 L-6.5 2.2 Q-7.0 3.0 -6.6 3.9 L-6.6 4.0 -6.65 4.05 -6.95 3.95 M-1.8 -0.6 Q-2.0 -0.65 -2.2 -0.85 L-2.4 -1.25 Q-2.55 -2.2 -1.7 -2.5 L-1.55 -2.45 -1.55 -2.35 Q-2.15 -1.6 -1.8 -0.7 L-1.8 -0.6" fill="#cccccc" fill-rule="evenodd" stroke="none"/>
      <path d="M8.4 -0.7 L8.1 0.1 7.2 1.0 7.15 1.05 5.95 0.85 5.65 0.6 6.3 -0.6 6.75 -0.8 7.05 -0.65 7.1 -0.65 7.2 -0.7 7.25 -0.7 7.5 -0.65 7.6 -0.65 8.1 -0.9 8.1 -0.95 8.4 -0.7 M0.15 3.9 L0.2 3.95 0.05 4.5 0.1 4.6 0.0 4.8 Q-0.5 6.15 -2.25 5.85 -4.3 5.45 -4.0 4.15 L-3.9 4.2 -3.45 4.85 -3.05 4.85 -2.45 4.75 -1.95 4.65 -1.65 4.2 -1.05 4.15 -1.0 4.05 0.05 3.85 0.15 3.9 M-4.4 4.0 L-4.65 4.45 Q-5.05 5.0 -5.75 5.0 L-7.35 4.7 -7.4 4.7 -7.45 4.65 -7.45 4.5 -7.4 4.4 -6.95 3.95 -6.65 4.05 -6.6 4.0 -6.35 3.85 -6.3 3.85 -6.0 3.35 -5.85 3.2 -5.55 3.05 -5.45 3.35 -5.4 3.25 -5.15 2.95 -5.1 2.9 -4.95 2.85 -4.65 3.0 -4.65 3.05 -4.55 3.1 -4.55 3.2 -4.4 3.2 -4.2 3.25 -4.1 3.35 -4.4 4.0 M1.1 -1.75 L1.15 -1.75 1.0 -1.2 0.95 -1.0 0.85 -0.8 0.8 -0.65 Q-0.05 1.15 -1.6 0.6 L-1.65 0.55 -2.1 0.4 -1.85 -0.3 -1.5 -0.6 -1.3 -0.7 -1.25 -0.8 -0.8 -1.4 -0.65 -1.45 -0.35 -1.4 0.2 -1.7 0.7 -1.6 0.9 -1.75 1.05 -1.8 1.1 -1.75" fill="#000000" fill-rule="evenodd" stroke="none"/>
      <path d="M7.9 -3.3 L8.1 -3.3 8.25 -3.25 8.35 -3.2 8.35 -3.15 8.4 -3.1 8.4 -3.0 8.4 -2.95 8.35 -2.9 8.35 -2.85 7.3 -2.65 6.85 -2.6 6.9 -2.45 6.9 -2.35 6.75 -1.45 6.4 -0.9 6.3 -0.6 5.65 0.6 5.65 0.65 Q4.35 2.4 1.85 3.4 L0.2 3.9 0.15 3.9 0.05 3.85 -1.0 4.05 -1.05 4.15 -1.65 4.2 -4.0 4.1 -4.4 4.0 -4.25 3.75 -3.85 3.65 -2.85 3.6 -1.9 3.65 0.05 3.4 Q1.15 3.15 2.1 2.7 L2.05 2.7 1.6 3.15 1.8 3.3 Q4.15 2.4 5.5 0.5 L5.6 0.35 5.65 0.35 5.65 0.15 5.55 0.15 5.3 0.35 5.25 0.35 Q4.15 1.65 2.75 2.55 L2.6 2.45 2.4 2.55 2.3 2.6 Q3.85 1.75 4.9 0.25 L5.1 0.05 Q5.85 -1.15 6.25 -2.5 L5.55 -2.45 Q3.75 -2.3 1.9 -2.5 L1.1 -2.15 1.0 -2.6 1.55 -2.55 0.95 -2.65 0.85 -2.85 0.85 -2.95 4.2 -3.35 5.3 -3.4 7.9 -3.3 M-7.5 1.5 L-7.0 0.1 -7.0 0.15 -7.0 0.25 -6.75 0.4 -6.0 -0.1 -5.9 -0.3 -5.8 -0.4 -5.25 -0.85 -4.4 -1.85 -4.4 -1.7 Q-4.5 -1.45 -4.25 -1.3 L-4.2 -1.1 -4.35 -0.8 -4.4 -0.4 -4.35 -0.4 -4.35 -0.35 -4.25 -0.25 -3.9 -0.25 -3.9 -0.3 -3.8 -0.35 -3.45 -1.7 -3.3 -2.45 Q-2.25 -4.65 0.55 -5.55 L0.0 -4.95 0.1 -4.9 0.3 -4.9 0.4 -4.95 0.6 -5.25 0.75 -4.85 Q2.2 -3.4 3.05 -5.0 L3.0 -5.05 2.5 -5.65 2.9 -5.55 3.85 -5.1 4.1 -5.1 Q4.2 -4.95 4.45 -4.9 L4.95 -4.75 5.0 -4.3 Q3.05 -4.15 1.25 -3.6 L0.8 -4.15 0.35 -4.35 -0.6 -4.6 -0.65 -4.55 Q-2.15 -4.1 -2.75 -2.9 L-2.3 -2.95 -2.15 -3.05 -1.3 -4.05 -1.1 -4.05 -0.95 -4.15 -0.7 -4.2 -0.6 -4.15 -0.05 -4.15 0.2 -4.15 0.45 -3.95 0.45 -3.9 0.6 -3.75 0.7 -3.75 0.9 -3.45 0.4 -3.3 -0.6 -3.8 Q-3.75 -2.8 -2.6 -0.15 L-2.4 0.15 -3.35 1.05 -4.15 1.75 -4.4 1.9 Q-4.85 1.25 -6.05 0.8 -7.05 0.95 -7.5 1.5 M-6.95 0.05 L-6.8 -0.2 -7.0 -0.3 -6.6 -2.75 -6.8 -2.55 -5.25 -4.0 Q-4.65 -4.55 -3.85 -4.75 L-3.05 -4.95 -2.75 -4.95 -2.25 -5.05 -2.4 -4.95 -2.6 -4.8 Q-4.35 -3.65 -5.3 -1.9 -5.85 -1.8 -6.15 -1.35 L-6.85 -0.05 -6.95 0.05 M-6.5 0.65 L-5.55 0.6 -4.1 1.15 Q-4.05 1.05 -4.15 1.0 -4.65 0.6 -5.25 0.35 L-5.3 0.35 -5.8 0.15 -7.2 0.65 -6.5 0.65" fill="#ffdf2b" fill-rule="evenodd" stroke="none"/>
      <path d="M1.1 -2.15 L1.9 -2.5 Q3.75 -2.3 5.55 -2.45 L6.25 -2.5 Q5.85 -1.15 5.1 0.05 L4.9 0.25 Q3.85 1.75 2.3 2.6 L2.4 2.55 2.6 2.45 2.75 2.55 Q4.15 1.65 5.25 0.35 L5.3 0.35 5.55 0.15 5.65 0.15 5.65 0.35 5.6 0.35 5.5 0.5 Q4.15 2.4 1.8 3.3 L1.6 3.15 2.05 2.7 2.1 2.7 Q1.15 3.15 0.05 3.4 L-1.9 3.65 -2.85 3.6 -3.85 3.65 -4.25 3.75 -4.4 4.0 -4.1 3.35 Q-3.95 2.55 -4.4 1.9 L-4.15 1.75 -3.35 1.05 -2.4 0.15 -2.25 0.25 -2.1 0.4 -1.65 0.55 -1.6 0.6 Q-0.05 1.15 0.8 -0.65 L0.85 -0.8 0.95 -1.0 1.0 -1.2 1.15 -1.75 1.1 -1.75 1.1 -2.15 M-3.05 -4.95 L-3.35 -5.0 -3.45 -5.05 -4.65 -4.45 -4.8 -4.35 -5.0 -4.3 -5.15 -4.35 -6.15 -3.45 -6.6 -3.0 -6.8 -2.55 -6.9 -2.3 -7.05 -1.5 -7.05 -1.45 -7.15 -1.45 -7.25 -1.55 -7.3 -1.55 -7.35 -2.2 -7.2 -2.85 -7.2 -2.9 -7.1 -2.9 -7.05 -2.9 -7.05 -2.95 Q-6.3 -4.0 -5.15 -4.6 L-3.45 -5.3 -2.45 -5.05 -2.75 -4.95 -3.05 -4.95 M-6.5 0.65 L-7.2 0.65 -5.8 0.15 -5.3 0.35 -5.25 0.35 Q-4.65 0.6 -4.15 1.0 -4.05 1.05 -4.1 1.15 L-5.55 0.6 -6.5 0.65 M5.2 -5.0 L4.95 -4.75 4.45 -4.9 Q4.2 -4.95 4.1 -5.1 L3.85 -5.1 2.9 -5.55 2.5 -5.65 1.55 -5.85 1.85 -5.95 1.9 -5.95 2.3 -5.9 2.9 -5.85 3.0 -5.8 Q4.05 -5.65 5.05 -5.1 L5.2 -5.0 M1.25 -3.6 L0.9 -3.45 0.7 -3.75 0.6 -3.75 0.45 -3.9 0.45 -3.95 0.2 -4.15 -0.05 -4.15 -0.6 -4.15 -0.7 -4.2 -0.95 -4.15 -1.1 -4.05 -1.3 -4.05 -2.15 -3.05 -2.3 -2.95 -2.75 -2.9 Q-2.15 -4.1 -0.65 -4.55 L-0.6 -4.6 0.35 -4.35 0.8 -4.15 1.25 -3.6 M0.85 -5.85 L0.85 -5.75 0.95 -5.8 1.0 -5.8 0.85 -5.7 0.1 -5.55 0.0 -5.55 -0.25 -5.35 -0.3 -5.3 -1.85 -4.9 -1.9 -4.9 -1.9 -4.95 -1.85 -5.0 Q-0.65 -5.7 0.75 -5.85 L0.85 -5.85" fill="#d87701" fill-rule="evenodd" stroke="none"/>
    </g>
  </defs>
</svg>
