<?xml version="1.0" encoding="UTF-8" standalone="no"?>
<svg xmlns:xlink="http://www.w3.org/1999/xlink" height="18.05px" width="19.4px" xmlns="http://www.w3.org/2000/svg">
  <g transform="matrix(1.0, 0.0, 0.0, 1.0, 9.6, 9.05)">
    <use height="11.45" transform="matrix(1.0, 0.0, 0.0, 1.0, -9.4, -5.8)" width="18.25" xlink:href="#shape0"/>
  </g>
  <defs>
    <g id="shape0" transform="matrix(1.0, 0.0, 0.0, 1.0, 9.4, 5.8)">
      <path d="M8.7 -0.75 L8.8 0.15 8.8 0.2 8.35 1.9 8.3 1.9 7.7 2.75 7.65 2.8 7.55 2.85 7.5 3.45 7.35 3.75 6.75 4.25 6.7 4.25 Q4.0 5.4 1.1 5.6 L-1.85 5.6 -3.05 5.6 -5.95 5.1 -5.9 5.1 -7.0 4.8 -6.95 4.8 -7.1 4.75 -7.45 4.6 -7.55 4.6 -7.75 4.45 -7.9 4.3 -8.4 3.4 -8.45 3.3 -8.45 3.15 Q-9.05 2.6 -9.3 1.85 L-9.3 1.8 -9.35 1.5 -9.35 1.05 -8.9 0.35 -8.95 0.35 Q-6.4 -2.15 -3.7 -3.65 -2.55 -4.3 -1.6 -4.55 L-1.2 -5.35 Q-0.85 -5.8 -0.05 -5.8 L0.65 -5.65 0.6 -5.65 Q1.4 -5.3 1.6 -4.55 L1.85 -4.45 4.55 -3.25 4.75 -3.15 5.7 -2.7 6.85 -2.1 6.85 -2.15 7.55 -1.75 7.6 -1.75 8.15 -1.4 8.1 -1.45 8.75 -0.7 8.7 -0.75" fill="#000000" fill-rule="evenodd" stroke="none"/>
      <path d="M0.2 -3.7 L0.2 -3.9 Q0.25 -4.35 -0.05 -4.5 L-0.25 -4.35 -0.25 -3.5 Q-1.45 -3.45 -2.95 -2.55 -5.55 -1.1 -7.9 1.25 -7.7 1.95 -7.0 2.25 L0.4 2.8 2.45 2.55 4.3 2.05 6.2 1.35 6.55 1.2 6.6 1.15 6.65 1.15 6.75 1.15 7.05 0.0 7.05 -0.15 6.9 -0.65 6.2 -1.0 5.1 -1.55 4.05 -2.05 1.25 -3.3 0.4 -3.5 0.4 -3.3 0.4 -3.25 1.0 -2.7 1.15 -2.65 1.35 -2.55 Q1.75 -2.55 1.45 -2.25 L1.35 -2.2 Q1.15 -2.2 1.1 -2.3 L0.15 -2.45 0.15 -3.2 0.2 -3.55 0.2 -3.6 0.2 -3.7 M-3.0 4.5 L-5.6 4.05 -6.7 3.75 -6.75 3.7 -7.1 3.6 -7.2 3.45 -7.45 3.05 -7.45 2.55 Q-8.1 2.15 -8.35 1.4 L-8.35 1.15 -8.35 1.2 -8.25 1.0 Q-5.8 -1.4 -3.2 -2.9 -1.85 -3.7 -0.7 -3.85 L-0.7 -4.35 -0.5 -4.75 -0.1 -4.9 0.1 -4.85 Q0.75 -4.6 0.7 -3.85 L1.4 -3.65 4.15 -2.4 4.2 -2.4 5.25 -1.9 5.3 -1.85 6.4 -1.35 7.1 -0.95 7.65 -0.65 7.8 -0.45 7.85 -0.2 7.35 1.55 7.15 1.8 6.7 2.1 6.65 2.15 6.5 2.3 6.55 2.8 6.55 3.05 6.55 3.1 6.35 3.2 Q3.8 4.3 1.05 4.5 3.7 4.2 6.15 2.85 L6.1 2.2 6.05 2.15 6.0 2.2 3.9 2.65 2.15 2.95 -0.05 3.1 -2.45 3.05 -4.1 2.95 -4.7 2.85 -6.4 3.0 -6.55 3.5 -5.4 4.0 -3.0 4.5 M-7.0 2.25 L-7.0 2.45 -6.95 2.45 -7.0 2.25" fill="#640909" fill-rule="evenodd" stroke="none"/>
      <path d="M0.2 -3.55 L0.15 -3.2 0.15 -2.45 1.1 -2.3 Q1.15 -2.2 1.35 -2.2 L1.45 -2.25 Q1.75 -2.55 1.35 -2.55 L1.15 -2.65 1.0 -2.7 0.4 -3.25 0.4 -3.3 0.4 -3.5 1.25 -3.3 4.05 -2.05 5.1 -1.55 6.2 -1.0 6.9 -0.65 7.05 -0.15 7.05 0.0 6.75 1.15 6.65 1.15 6.6 1.15 6.55 1.2 6.2 1.35 4.3 2.05 2.45 2.55 0.4 2.8 -7.0 2.25 Q-7.7 1.95 -7.9 1.25 -5.55 -1.1 -2.95 -2.55 -1.45 -3.45 -0.25 -3.5 L-0.25 -4.35 -0.05 -4.5 Q0.25 -4.35 0.2 -3.9 L0.2 -3.7 0.2 -3.55 M1.05 4.5 L-1.9 4.5 -3.0 4.5 -5.4 4.0 -6.55 3.5 -6.4 3.0 -4.7 2.85 -4.1 2.95 -2.45 3.05 -0.05 3.1 2.15 2.95 3.9 2.65 6.0 2.2 6.05 2.15 6.1 2.2 6.15 2.85 Q3.7 4.2 1.05 4.5 M-7.0 2.25 L-6.95 2.45 -7.0 2.45 -7.0 2.25" fill="#ea1515" fill-rule="evenodd" stroke="none"/>
      <path d="M0.2 -3.55 L0.2 -3.7 0.2 -3.6 0.2 -3.55" fill="#2f8c1e" fill-rule="evenodd" stroke="none"/>
    </g>
  </defs>
</svg>
