<?xml version="1.0" encoding="UTF-8" standalone="no"?>
<svg xmlns:xlink="http://www.w3.org/1999/xlink" height="18.05px" width="19.4px" xmlns="http://www.w3.org/2000/svg">
  <g transform="matrix(1.0, 0.0, 0.0, 1.0, 9.6, 9.05)">
    <use height="14.5" transform="matrix(1.0, 0.0, 0.0, 1.0, -9.1, -7.15)" width="17.9" xlink:href="#shape0"/>
  </g>
  <defs>
    <g id="shape0" transform="matrix(1.0, 0.0, 0.0, 1.0, 9.1, 7.15)">
      <path d="M-0.5 -3.0 L-0.05 -1.95 Q2.25 -4.75 5.55 -6.6 7.3 -7.55 8.05 -6.85 9.05 -6.45 8.7 -4.45 L8.7 -4.3 Q6.4 2.1 3.5 3.7 L3.55 3.7 Q3.1 3.95 2.6 4.15 L2.5 4.3 2.5 4.35 2.25 4.55 2.2 4.65 Q0.75 5.85 -1.5 6.8 L-1.4 6.75 -1.55 6.8 -1.65 6.9 Q-3.05 7.45 -4.3 7.3 L-4.35 7.3 -5.45 7.1 -5.5 7.05 -7.2 6.9 -7.6 6.7 -7.6 6.75 Q-8.45 6.25 -8.85 5.25 L-8.85 5.3 Q-9.35 4.1 -8.9 2.95 -8.4 1.8 -7.25 1.3 L-5.05 1.25 -5.0 1.3 -4.95 1.3 -4.8 1.4 -4.75 1.1 Q-4.25 -1.95 -2.45 -3.2 -1.95 -3.6 -1.55 -3.5 -0.95 -3.55 -0.5 -3.0" fill="#000000" fill-rule="evenodd" stroke="none"/>
      <path d="M-0.95 0.7 Q-2.2 0.95 -3.55 1.55 L-3.7 1.6 Q-3.35 -1.35 -1.75 -2.55 -1.1 -3.1 -0.9 -1.45 L-0.95 0.7 M2.05 3.15 Q2.0 0.85 -0.7 0.65 1.8 -3.45 6.15 -5.85 8.2 -7.05 7.85 -4.8 5.7 1.15 3.1 2.7 L2.05 3.15" fill="#ffffff" fill-rule="evenodd" stroke="none"/>
      <path d="M-6.05 4.95 L-5.6 5.6 -5.9 5.8 -6.4 5.7 -6.8 5.4 -6.9 5.05 Q-6.85 4.9 -6.6 4.85 L-6.1 4.95 -6.05 4.95 M-5.5 5.1 Q-5.45 4.9 -5.2 4.9 L-4.65 5.0 Q-4.4 5.1 -4.25 5.3 L-4.15 5.65 -4.5 5.85 -5.0 5.75 -5.4 5.45 -5.5 5.1" fill="#000000" fill-rule="evenodd" stroke="none"/>
      <path d="M-4.9 2.25 L-5.0 2.3 Q-5.8 2.6 -6.1 3.4 -6.4 4.15 -6.1 4.9 L-6.05 4.95 -6.1 4.95 -6.6 4.85 Q-6.85 4.9 -6.9 5.05 L-6.8 5.4 -6.4 5.7 -5.9 5.8 -5.6 5.6 -5.3 5.85 Q-6.05 6.1 -6.75 5.85 L-7.0 5.7 -7.85 4.75 Q-8.2 3.95 -7.85 3.2 -7.55 2.4 -6.75 2.1 -6.0 1.75 -5.25 2.1 L-4.9 2.25" fill="url(#gradient0)" fill-rule="evenodd" stroke="none"/>
      <path d="M-4.75 2.2 L-3.45 2.25 Q-2.7 2.55 -2.35 3.35 -2.05 4.1 -2.35 4.9 -2.65 5.65 -3.45 6.0 L-4.15 6.15 -5.0 6.0 -5.3 5.85 -5.6 5.6 -6.05 4.95 -6.1 4.9 Q-6.4 4.15 -6.1 3.4 -5.8 2.6 -5.0 2.3 L-4.9 2.25 -4.75 2.2 M-5.5 5.1 L-5.4 5.45 -5.0 5.75 -4.5 5.85 -4.15 5.65 -4.25 5.3 Q-4.4 5.1 -4.65 5.0 L-5.2 4.9 Q-5.45 4.9 -5.5 5.1" fill="url(#gradient1)" fill-rule="evenodd" stroke="none"/>
      <path d="M-0.7 0.65 L-1.45 2.1 Q-2.4 3.3 1.35 3.25 L2.05 3.15 1.8 3.55 1.65 3.75 Q0.25 4.85 -1.8 5.75 L-1.95 5.8 -4.15 6.15 -3.45 6.0 Q-2.65 5.65 -2.35 4.9 -2.05 4.1 -2.35 3.35 -2.7 2.55 -3.45 2.25 L-4.75 2.2 Q-4.3 1.85 -3.7 1.6 L-3.55 1.55 Q-2.2 0.95 -0.95 0.7 L-0.7 0.65" fill="url(#gradient2)" fill-rule="evenodd" stroke="none"/>
      <path d="M2.05 3.15 L1.35 3.25 Q-2.4 3.3 -1.45 2.1 L-0.7 0.65 Q2.0 0.85 2.05 3.15" fill="#b9f1b8" fill-rule="evenodd" stroke="none"/>
    </g>
    <radialGradient cx="0" cy="0" gradientTransform="matrix(0.0036, -0.0015, 0.0015, 0.0036, -6.6, 4.85)" gradientUnits="userSpaceOnUse" id="gradient0" r="819.2" spreadMethod="pad">
      <stop offset="0.4235294117647059" stop-color="#cccccc"/>
      <stop offset="0.7058823529411765" stop-color="#ffffff"/>
    </radialGradient>
    <radialGradient cx="0" cy="0" gradientTransform="matrix(0.0036, -0.0015, 0.0015, 0.0036, -4.85, 5.05)" gradientUnits="userSpaceOnUse" id="gradient1" r="819.2" spreadMethod="pad">
      <stop offset="0.4235294117647059" stop-color="#cccccc"/>
      <stop offset="0.7058823529411765" stop-color="#ffffff"/>
    </radialGradient>
    <radialGradient cx="0" cy="0" gradientTransform="matrix(-0.0021, -0.0049, 0.0091, -0.0038, -1.3, 1.45)" gradientUnits="userSpaceOnUse" id="gradient2" r="819.2" spreadMethod="pad">
      <stop offset="0.4196078431372549" stop-color="#23be27"/>
      <stop offset="0.6274509803921569" stop-color="#25892b"/>
    </radialGradient>
  </defs>
</svg>
