<?xml version="1.0" encoding="UTF-8" standalone="no"?>
<svg xmlns:xlink="http://www.w3.org/1999/xlink" height="16.55px" width="19.45px" xmlns="http://www.w3.org/2000/svg">
  <g transform="matrix(1.0, 0.0, 0.0, 1.0, 0.85, -1.05)">
    <use height="12.6" transform="matrix(1.0, 0.0, 0.0, 1.0, 1.35, 2.4)" width="15.85" xlink:href="#shape0"/>
  </g>
  <defs>
    <g id="shape0" transform="matrix(1.0, 0.0, 0.0, 1.0, -1.35, -2.4)">
      <path d="M17.1 10.9 L17.1 11.65 15.05 14.2 17.2 14.2 17.2 15.0 13.75 15.0 13.75 14.25 15.8 11.65 13.85 11.65 13.85 10.9 17.1 10.9 M12.95 12.05 L12.95 13.05 8.5 13.05 8.5 12.1 11.15 8.8 8.6 8.8 8.6 7.75 12.8 7.75 12.8 8.75 10.2 12.05 12.95 12.05 M7.95 4.5 L4.35 9.0 8.15 9.0 8.15 10.4 2.05 10.4 2.05 9.05 5.65 4.55 2.2 4.55 2.2 3.15 7.95 3.15 7.95 4.5" fill="#000000" fill-opacity="0.15294118" fill-rule="evenodd" stroke="none"/>
      <path d="M12.1 8.0 L9.5 11.3 12.25 11.3 12.25 12.3 7.8 12.3 7.8 11.35 10.45 8.05 7.9 8.05 7.9 7.0 12.1 7.0 12.1 8.0 M16.4 10.15 L16.4 10.9 14.35 13.45 16.5 13.45 16.5 14.25 13.05 14.25 13.05 13.5 15.1 10.9 13.15 10.9 13.15 10.15 16.4 10.15 M7.25 3.75 L3.65 8.25 7.45 8.25 7.45 9.65 1.35 9.65 1.35 8.3 4.95 3.8 1.5 3.8 1.5 2.4 7.25 2.4 7.25 3.75" fill="#ffffff" fill-rule="evenodd" stroke="none"/>
    </g>
  </defs>
</svg>
