<?xml version="1.0" encoding="UTF-8" standalone="no"?>
<svg xmlns:xlink="http://www.w3.org/1999/xlink" height="16.55px" width="19.45px" xmlns="http://www.w3.org/2000/svg">
  <g transform="matrix(1.0, 0.0, 0.0, 1.0, 0.85, -1.05)">
    <use height="16.55" transform="matrix(1.0, 0.0, 0.0, 1.0, 1.45, 1.05)" width="16.5" xlink:href="#shape0"/>
  </g>
  <defs>
    <g id="shape0" transform="matrix(1.0, 0.0, 0.0, 1.0, -1.45, -1.05)">
      <path d="M13.7 7.15 L12.9 6.35 Q11.8 5.3 8.75 8.3 5.7 11.4 6.75 12.45 L7.6 13.3 Q8.4 14.1 8.35 15.0 8.25 15.8 7.2 16.8 L5.95 17.6 Q5.4 17.6 4.7 16.85 L4.4 16.6 Q3.1 14.9 2.6 13.3 3.4 11.5 4.55 9.9 L7.15 6.8 10.35 4.1 Q11.95 2.95 13.7 2.2 15.25 2.6 16.95 3.95 L17.25 4.3 Q17.95 4.95 17.95 5.45 17.9 5.95 17.2 6.7 16.15 7.7 15.3 7.85 14.45 7.9 13.7 7.15" fill="#000000" fill-opacity="0.15294118" fill-rule="evenodd" stroke="none"/>
      <path d="M16.05 5.55 Q15.0 6.55 14.15 6.7 13.3 6.75 12.55 6.0 L11.75 5.2 Q10.65 4.15 7.6 7.15 4.55 10.25 5.6 11.3 L6.45 12.15 Q7.25 12.95 7.2 13.85 7.1 14.65 6.05 15.65 L4.8 16.45 Q4.25 16.45 3.55 15.7 L3.25 15.45 Q1.95 13.75 1.45 12.15 2.25 10.35 3.4 8.75 4.5 7.15 6.0 5.65 L9.2 2.95 Q10.8 1.8 12.55 1.05 14.1 1.45 15.8 2.8 L16.1 3.15 Q16.8 3.8 16.8 4.3 L16.05 5.55" fill="#ffffff" fill-rule="evenodd" stroke="none"/>
    </g>
  </defs>
</svg>
