<?xml version="1.0" encoding="UTF-8" standalone="no"?>
<svg xmlns:xlink="http://www.w3.org/1999/xlink" height="16.55px" width="19.45px" xmlns="http://www.w3.org/2000/svg">
  <g transform="matrix(1.0, 0.0, 0.0, 1.0, 0.85, -1.05)">
    <use height="15.25" transform="matrix(1.0, 0.0, 0.0, 1.0, -0.85, 1.1)" width="19.45" xlink:href="#shape0"/>
  </g>
  <defs>
    <g id="shape0" transform="matrix(1.0, 0.0, 0.0, 1.0, 0.85, -1.1)">
      <path d="M0.15 2.95 L0.8 2.95 0.8 6.2 1.65 6.2 1.65 2.95 2.35 3.0 2.35 6.5 2.9 6.5 2.9 2.85 3.95 2.85 4.0 7.85 2.7 9.3 2.7 16.35 1.1 16.35 1.1 9.25 0.15 7.95 0.15 2.95 M6.2 5.85 Q7.9 4.15 10.3 4.15 12.65 4.15 14.35 5.85 16.05 7.55 16.05 9.95 16.05 12.3 14.35 14.0 12.65 15.7 10.3 15.7 7.9 15.7 6.2 14.0 4.5 12.3 4.5 9.95 4.5 7.55 6.2 5.85 M18.6 12.75 L18.6 16.35 17.0 16.35 17.0 2.3 Q18.8 2.4 18.6 12.75" fill="#000000" fill-opacity="0.15294118" fill-rule="evenodd" stroke="none"/>
      <path d="M16.0 1.1 Q17.8 1.25 17.6 11.55 L17.6 15.2 16.0 15.2 16.0 1.1 M13.35 4.7 Q15.05 6.4 15.05 8.75 15.05 11.15 13.35 12.85 11.65 14.55 9.3 14.55 6.9 14.55 5.2 12.85 3.5 11.15 3.5 8.75 3.5 6.4 5.2 4.7 6.9 3.0 9.3 3.0 11.65 3.0 13.35 4.7 M12.6 12.0 Q13.95 10.65 13.95 8.7 13.95 6.8 12.6 5.4 11.2 4.05 9.3 4.05 7.35 4.05 6.0 5.4 4.6 6.8 4.6 8.7 4.6 10.65 6.0 12.0 7.35 13.4 9.3 13.4 11.2 13.4 12.6 12.0 M0.65 1.8 L1.35 1.85 1.35 5.35 1.9 5.35 1.9 1.65 2.95 1.65 3.0 6.65 1.7 8.15 1.7 15.2 0.1 15.2 0.1 8.1 -0.85 6.8 -0.85 1.8 -0.2 1.8 -0.2 5.05 0.65 5.05 0.65 1.8" fill="#ffffff" fill-rule="evenodd" stroke="none"/>
      <path d="M12.6 12.0 Q11.2 13.4 9.3 13.4 7.35 13.4 6.0 12.0 4.6 10.65 4.6 8.7 4.6 6.8 6.0 5.4 7.35 4.05 9.3 4.05 11.2 4.05 12.6 5.4 13.95 6.8 13.95 8.7 13.95 10.65 12.6 12.0" fill="url(#gradient0)" fill-rule="evenodd" stroke="none"/>
    </g>
    <radialGradient cx="0" cy="0" gradientTransform="matrix(0.0068, 0.0, 0.0, 0.0068, 9.6, 9.4)" gradientUnits="userSpaceOnUse" id="gradient0" r="819.2" spreadMethod="pad">
      <stop offset="0.6941176470588235" stop-color="#ffffff"/>
      <stop offset="1.0" stop-color="#bbbbbb"/>
    </radialGradient>
  </defs>
</svg>
