<?xml version="1.0" encoding="UTF-8" standalone="no"?>
<svg xmlns:xlink="http://www.w3.org/1999/xlink" height="13.95px" width="15.45px" xmlns="http://www.w3.org/2000/svg">
  <g transform="matrix(1.0, 0.0, 0.0, 1.0, 8.05, 7.95)">
    <use height="11.55" transform="matrix(1.0, 0.0, 0.0, 1.0, -5.85, -6.55)" width="13.25" xlink:href="#shape0"/>
  </g>
  <defs>
    <g id="shape0" transform="matrix(1.0, 0.0, 0.0, 1.0, 5.85, 6.55)">
      <path d="M0.85 -4.4 L1.1 -4.2 1.45 -3.5 Q1.65 -1.65 1.15 0.3 1.1 1.0 -0.05 1.0 -0.3 0.85 -0.5 0.75 -1.25 -1.35 -1.45 -3.65 -0.65 -4.7 0.85 -4.4 M2.2 -4.4 L1.35 -5.2 -1.25 -5.25 -1.95 -4.35 -1.95 -2.45 -4.1 3.0 -4.1 3.8 -1.35 3.8 -0.15 4.65 1.3 4.65 2.25 3.65 6.05 3.45 2.2 -3.3 2.2 -4.4 M2.2 -6.25 L7.4 3.3 7.0 4.7 -5.65 5.0 -5.85 3.85 -1.95 -6.05 -1.3 -6.55 1.05 -6.5 2.2 -6.25 M-0.15 1.9 L-0.45 2.0 -0.6 2.35 -0.45 2.65 -0.15 2.8 0.2 2.65 0.3 2.35 0.2 2.0 -0.15 1.9 M-0.85 2.2 Q-0.65 1.6 0.1 1.55 L0.9 1.65 1.35 2.3 Q1.5 2.75 1.25 3.25 L0.95 3.7 Q-0.6 4.1 -0.8 2.65 L-0.85 2.2 M-0.3 -0.05 L-0.45 -2.15 -0.15 -3.3 -0.5 -3.75 -1.0 -2.95 -0.3 -0.05" fill="#73b01e" fill-rule="evenodd" stroke="none"/>
    </g>
  </defs>
</svg>
