<?xml version="1.0" encoding="UTF-8" standalone="no"?>
<svg xmlns:xlink="http://www.w3.org/1999/xlink" height="18.05px" width="19.4px" xmlns="http://www.w3.org/2000/svg">
  <g transform="matrix(1.0, 0.0, 0.0, 1.0, 9.6, 9.05)">
    <use height="14.4" transform="matrix(1.0, 0.0, 0.0, 1.0, -8.5, -7.75)" width="16.15" xlink:href="#shape0"/>
  </g>
  <defs>
    <g id="shape0" transform="matrix(1.0, 0.0, 0.0, 1.0, 8.5, 7.75)">
      <path d="M5.9 -6.1 L5.95 -6.05 Q7.65 -4.1 7.65 -1.65 7.6 0.8 5.95 2.65 L5.9 2.65 Q4.6 4.15 2.8 5.0 L-1.15 6.35 -5.8 6.45 Q-8.45 5.85 -8.5 3.15 L-8.5 3.1 Q-8.35 0.85 -6.4 -2.65 -4.1 -6.8 0.1 -7.6 3.8 -8.3 5.85 -6.1 L5.9 -6.1" fill="#000000" fill-rule="evenodd" stroke="none"/>
      <path d="M1.05 -2.2 Q-0.2 -1.9 -0.55 -0.75 L-0.8 0.25 0.4 0.45 1.05 0.15 Q1.35 -0.1 1.45 -0.45 L1.65 -1.6 1.05 -2.2 M5.25 -5.65 Q6.75 -3.95 6.75 -1.75 6.75 0.45 5.25 2.05 4.0 3.4 2.35 4.25 L-1.4 5.5 Q-3.5 6.0 -5.65 5.55 -7.75 5.15 -7.75 3.05 -7.55 0.95 -5.7 -2.4 -3.65 -6.2 0.25 -6.95 3.4 -7.55 5.2 -5.7 L5.25 -5.65 M-4.4 -3.15 L-4.5 -3.3 -4.65 -3.35 Q-5.6 -2.4 -5.8 -1.05 L-5.65 -0.95 Q-4.65 -1.8 -4.4 -3.15" fill="url(#gradient0)" fill-rule="evenodd" stroke="none"/>
      <path d="M1.05 -2.2 L1.65 -1.6 1.45 -0.45 Q1.35 -0.1 1.05 0.15 L0.4 0.45 -0.8 0.25 -0.55 -0.75 Q-0.2 -1.9 1.05 -2.2 M-4.4 -3.15 Q-4.65 -1.8 -5.65 -0.95 L-5.8 -1.05 Q-5.6 -2.4 -4.65 -3.35 L-4.5 -3.3 -4.4 -3.15" fill="#000000" fill-rule="evenodd" stroke="none"/>
    </g>
    <radialGradient cx="0" cy="0" gradientTransform="matrix(0.0077, 0.0106, -0.013, 0.0109, -1.3, -6.7)" gradientUnits="userSpaceOnUse" id="gradient0" r="819.2" spreadMethod="pad">
      <stop offset="0.5294117647058824" stop-color="#73b01e"/>
      <stop offset="0.7215686274509804" stop-color="#579117"/>
    </radialGradient>
  </defs>
</svg>
