<?xml version="1.0" encoding="UTF-8" standalone="no"?>
<svg xmlns:xlink="http://www.w3.org/1999/xlink" height="18.05px" width="19.4px" xmlns="http://www.w3.org/2000/svg">
  <g transform="matrix(1.0, 0.0, 0.0, 1.0, 9.6, 9.05)">
    <use height="16.0" transform="matrix(1.0, 0.0, 0.0, 1.0, -8.05, -8.0)" width="16.05" xlink:href="#shape0"/>
  </g>
  <defs>
    <g id="shape0" transform="matrix(1.0, 0.0, 0.0, 1.0, 8.05, 8.0)">
      <path d="M0.0 8.0 Q-3.4 7.95 -5.7 5.65 -8.05 3.3 -8.05 0.0 -8.05 -3.35 -5.7 -5.65 -3.4 -8.0 0.0 -8.0 3.3 -8.0 5.65 -5.65 7.95 -3.35 8.0 0.0 7.95 3.3 5.65 5.65 3.3 7.95 0.0 8.0" fill="#000000" fill-rule="evenodd" stroke="none"/>
      <path d="M-0.35 -5.55 L0.2 -5.65 1.15 -5.6 1.95 -5.4 2.8 -4.9 4.1 -3.75 5.0 -2.5 Q5.65 -1.35 5.55 -0.2 5.05 -0.6 4.4 -0.5 L3.5 -0.5 2.35 -0.05 Q1.85 0.15 1.55 0.65 1.15 1.25 1.1 1.9 L1.15 2.8 1.35 3.25 Q0.85 3.05 0.15 3.25 -0.85 3.35 -1.35 4.2 L-1.65 4.7 -1.3 5.6 Q-2.4 5.35 -3.4 4.7 -4.4 4.05 -4.85 3.0 L-5.25 1.85 -5.3 1.4 -4.5 1.45 Q-3.9 1.45 -3.45 0.9 L-3.1 0.1 -2.9 -1.0 -2.9 -1.35 -3.2 -2.05 -3.3 -2.15 Q-3.25 -2.6 -3.35 -3.05 -3.5 -3.8 -4.2 -3.7 L-3.9 -3.95 -3.25 -4.45 -3.35 -4.35 Q-3.45 -3.9 -3.15 -3.5 L-2.75 -3.05 -2.05 -3.15 -1.35 -3.5 -1.2 -3.55 -1.0 -4.0 -0.9 -4.5 Q-0.5 -4.95 -0.35 -5.55 M1.15 5.75 L2.0 4.9 2.2 4.4 3.9 4.45 2.65 5.2 1.15 5.75" fill="#2961a5" fill-rule="evenodd" stroke="none"/>
      <path d="M-3.3 -2.15 Q-3.45 -1.35 -4.0 -0.6 L-4.95 0.25 Q-5.8 -0.25 -5.9 -1.2 -6.05 -2.35 -5.2 -3.25 L-4.75 -3.55 -4.2 -3.7 Q-3.5 -3.8 -3.35 -3.05 -3.25 -2.6 -3.3 -2.15 M-0.9 -4.5 Q-1.3 -4.15 -1.95 -4.0 L-2.5 -3.8 -2.8 -4.0 Q-2.7 -5.5 -1.45 -6.1 -0.75 -6.35 -0.55 -5.85 L-0.35 -5.55 Q-0.5 -4.95 -0.9 -4.5 M-4.5 -3.4 L-4.95 -3.05 -5.35 -1.95 -5.35 -1.9 -5.4 -1.05 -4.95 -0.55 -4.65 -0.75 Q-3.65 -1.45 -3.75 -2.5 L-3.8 -3.05 -4.5 -3.4 M-2.4 -4.85 L-2.25 -4.4 -1.25 -4.45 -1.05 -4.9 -1.0 -5.0 -0.9 -5.35 -0.9 -5.45 -0.85 -5.55 -1.25 -5.9 -2.4 -4.85" fill="#b6ceed" fill-rule="evenodd" stroke="none"/>
      <path d="M-2.4 -4.85 L-1.25 -5.9 -0.85 -5.55 -0.9 -5.45 -0.9 -5.35 -1.0 -5.0 -1.05 -4.9 -1.25 -4.45 -2.25 -4.4 -2.4 -4.85 M-4.5 -3.4 L-3.8 -3.05 -3.75 -2.5 Q-3.65 -1.45 -4.65 -0.75 L-4.95 -0.55 -5.4 -1.05 -5.35 -1.9 -5.35 -1.95 -4.95 -3.05 -4.5 -3.4" fill="#e6eef9" fill-rule="evenodd" stroke="none"/>
      <path d="M-3.3 -2.15 L-3.2 -2.05 -2.9 -1.35 -2.9 -1.0 -3.1 0.1 -3.45 0.9 Q-3.9 1.45 -4.5 1.45 L-5.3 1.4 -5.25 1.85 -4.85 3.0 Q-4.4 4.05 -3.4 4.7 -2.4 5.35 -1.3 5.6 L-1.65 4.7 -1.35 4.2 Q-0.85 3.35 0.15 3.25 0.85 3.05 1.35 3.25 L1.15 2.8 1.1 1.9 Q1.15 1.25 1.55 0.65 1.85 0.15 2.35 -0.05 L3.5 -0.5 4.4 -0.5 Q5.05 -0.6 5.55 -0.2 5.65 -1.35 5.0 -2.5 L4.1 -3.75 2.8 -4.9 1.95 -5.4 1.15 -5.6 0.2 -5.65 -0.35 -5.55 -0.55 -5.85 Q-0.75 -6.35 -1.45 -6.1 -2.7 -5.5 -2.8 -4.0 L-2.5 -3.8 -1.95 -4.0 Q-1.3 -4.15 -0.9 -4.5 L-1.0 -4.0 -1.2 -3.55 -1.35 -3.5 -2.05 -3.15 -2.75 -3.05 -3.15 -3.5 Q-3.45 -3.9 -3.35 -4.35 L-3.25 -4.45 -3.9 -3.95 -4.2 -3.7 -4.75 -3.55 -5.2 -3.25 Q-6.05 -2.35 -5.9 -1.2 -5.8 -0.25 -4.95 0.25 L-4.0 -0.6 Q-3.45 -1.35 -3.3 -2.15 M7.0 0.0 Q7.0 2.85 4.95 4.95 2.85 7.0 -0.05 7.0 -2.95 7.0 -5.0 4.95 -7.1 2.85 -7.05 0.0 -7.1 -2.9 -5.0 -4.95 -2.95 -7.05 -0.05 -7.0 2.85 -7.05 4.95 -4.95 7.0 -2.9 7.0 0.0 M1.15 5.75 L2.65 5.2 3.9 4.45 2.2 4.4 2.0 4.9 1.15 5.75" fill="#3883cb" fill-rule="evenodd" stroke="none"/>
    </g>
  </defs>
</svg>
