<?xml version="1.0" encoding="UTF-8" standalone="no"?>
<svg xmlns:xlink="http://www.w3.org/1999/xlink" height="18.05px" width="19.4px" xmlns="http://www.w3.org/2000/svg">
  <g transform="matrix(1.0, 0.0, 0.0, 1.0, 9.6, 9.05)">
    <use height="14.3" transform="matrix(1.0, 0.0, 0.0, 1.0, -9.25, -6.4)" width="18.5" xlink:href="#shape0"/>
  </g>
  <defs>
    <g id="shape0" transform="matrix(1.0, 0.0, 0.0, 1.0, 9.25, 6.4)">
      <path d="M-3.85 -4.75 L-3.75 -4.85 -3.75 -4.9 Q-2.7 -6.0 -0.95 -6.35 L-0.9 -6.35 Q2.65 -6.85 4.05 -3.9 L7.85 -1.85 8.3 -1.65 8.25 -1.65 Q9.4 -1.15 9.2 1.05 L9.05 1.95 8.9 2.35 8.6 2.6 1.15 7.25 1.1 7.25 -0.65 7.9 -1.15 7.9 -1.2 7.9 -1.3 7.9 Q-2.35 7.75 -3.15 6.9 L-8.85 0.6 -9.05 0.15 -9.2 -0.6 Q-9.45 -2.55 -8.4 -3.05 L-8.35 -3.1 -7.9 -3.3 -3.85 -4.75" fill="#000000" fill-rule="evenodd" stroke="none"/>
      <path d="M3.3 -1.85 L3.0 -1.2 Q2.25 0.05 1.25 0.75 -1.2 1.75 -2.85 -0.25 L-3.25 -0.8 -3.65 -2.55 -3.35 -3.85 -3.05 -4.2 Q-2.2 -5.1 -0.75 -5.35 2.2 -5.8 3.25 -3.2 L3.3 -1.85 M1.05 -4.65 L-0.8 -4.7 Q-2.7 -4.1 -2.6 -2.15 -2.4 0.6 0.5 0.3 1.75 0.05 2.35 -1.0 3.65 -3.5 1.05 -4.65" fill="#bf9900" fill-rule="evenodd" stroke="none"/>
      <path d="M1.05 -4.65 Q3.65 -3.5 2.35 -1.0 1.75 0.05 0.5 0.3 -2.4 0.6 -2.6 -2.15 -2.7 -4.1 -0.8 -4.7 L1.05 -4.65" fill="url(#gradient0)" fill-rule="evenodd" stroke="none"/>
      <path d="M-0.45 2.7 L6.05 -0.35 7.15 -0.8 7.5 -0.9 7.75 -0.8 Q8.3 -0.45 8.2 0.95 L8.05 1.75 0.95 6.2 -0.45 2.7" fill="url(#gradient1)" fill-rule="evenodd" stroke="none"/>
      <path d="M-2.7 1.35 L-1.25 2.5 -2.75 5.8 -8.1 -0.05 -8.2 -0.7 Q-8.4 -1.9 -7.85 -2.25 L-7.6 -2.35 -7.55 -2.35 Q-7.2 -2.4 -6.7 -1.95 L-6.3 -1.7 -4.6 -0.25 -2.7 1.35" fill="url(#gradient2)" fill-rule="evenodd" stroke="none"/>
      <path d="M-1.25 2.5 L-0.9 2.85 -1.1 6.9 -1.15 6.9 -2.4 6.2 -2.75 5.8 -1.25 2.5" fill="url(#gradient3)" fill-rule="evenodd" stroke="none"/>
      <path d="M-0.9 2.85 L-0.85 2.85 -0.45 2.7 0.95 6.2 0.55 6.4 -0.75 6.9 -1.1 6.9 -0.9 2.85" fill="url(#gradient4)" fill-rule="evenodd" stroke="none"/>
      <path d="M3.3 -1.85 L3.25 -3.2 7.5 -0.9 7.15 -0.8 6.05 -0.35 3.3 -1.85" fill="url(#gradient5)" fill-rule="evenodd" stroke="none"/>
      <path d="M-3.35 -3.85 L-3.65 -2.55 -6.3 -1.7 -6.7 -1.95 Q-7.2 -2.4 -7.55 -2.35 L-3.35 -3.85" fill="url(#gradient6)" fill-rule="evenodd" stroke="none"/>
      <path d="M1.25 0.75 Q2.25 0.05 3.0 -1.2 L3.3 -1.85 6.05 -0.35 -0.45 2.7 -0.85 2.85 -0.9 2.85 -1.25 2.5 -2.7 1.35 0.5 1.15 1.25 0.75 M-3.65 -2.55 L-3.25 -0.8 -4.6 -0.25 -6.3 -1.7 -3.65 -2.55" fill="#a080ce" fill-rule="evenodd" stroke="none"/>
      <path d="M-3.25 -0.8 L-2.85 -0.25 Q-1.2 1.75 1.25 0.75 L0.5 1.15 -2.7 1.35 -4.6 -0.25 -3.25 -0.8" fill="url(#gradient7)" fill-rule="evenodd" stroke="none"/>
    </g>
    <radialGradient cx="0" cy="0" gradientTransform="matrix(0.0059, 0.0, 0.0, 0.0059, 0.6, -3.85)" gradientUnits="userSpaceOnUse" id="gradient0" r="819.2" spreadMethod="pad">
      <stop offset="0.5333333333333333" stop-color="#ffcc00"/>
      <stop offset="1.0" stop-color="#e2b500"/>
    </radialGradient>
    <linearGradient gradientTransform="matrix(0.0011, 0.002, -0.005, 0.0029, 4.05, 2.2)" gradientUnits="userSpaceOnUse" id="gradient1" spreadMethod="pad" x1="-819.2" x2="819.2">
      <stop offset="0.2784313725490196" stop-color="#6fcb21"/>
      <stop offset="0.6313725490196078" stop-color="#33940f"/>
    </linearGradient>
    <linearGradient gradientTransform="matrix(-0.0015, 0.0015, -0.004, -0.004, -4.8, 1.3)" gradientUnits="userSpaceOnUse" id="gradient2" spreadMethod="pad" x1="-819.2" x2="819.2">
      <stop offset="0.2784313725490196" stop-color="#6fcb21"/>
      <stop offset="0.6313725490196078" stop-color="#33940f"/>
    </linearGradient>
    <linearGradient gradientTransform="matrix(-0.0012, 0.002, -0.0013, -8.0E-4, -1.2, 4.8)" gradientUnits="userSpaceOnUse" id="gradient3" spreadMethod="pad" x1="-819.2" x2="819.2">
      <stop offset="0.2784313725490196" stop-color="#6fcb21"/>
      <stop offset="0.6313725490196078" stop-color="#33940f"/>
    </linearGradient>
    <linearGradient gradientTransform="matrix(6.0E-4, 0.0024, -0.0012, 3.0E-4, -0.5, 4.8)" gradientUnits="userSpaceOnUse" id="gradient4" spreadMethod="pad" x1="-819.2" x2="819.2">
      <stop offset="0.2784313725490196" stop-color="#6fcb21"/>
      <stop offset="0.6313725490196078" stop-color="#33940f"/>
    </linearGradient>
    <linearGradient gradientTransform="matrix(-6.0E-4, 0.0012, -0.0052, -0.0027, 3.6, -1.8)" gradientUnits="userSpaceOnUse" id="gradient5" spreadMethod="pad" x1="-819.2" x2="819.2">
      <stop offset="0.2784313725490196" stop-color="#6fcb21"/>
      <stop offset="0.6313725490196078" stop-color="#33940f"/>
    </linearGradient>
    <linearGradient gradientTransform="matrix(4.0E-4, 0.0013, -0.0049, 0.0014, -4.05, -2.65)" gradientUnits="userSpaceOnUse" id="gradient6" spreadMethod="pad" x1="-819.2" x2="819.2">
      <stop offset="0.2784313725490196" stop-color="#6fcb21"/>
      <stop offset="0.6313725490196078" stop-color="#33940f"/>
    </linearGradient>
    <radialGradient cx="0" cy="0" gradientTransform="matrix(0.0063, 0.0, 0.0, 0.0063, 0.25, 0.2)" gradientUnits="userSpaceOnUse" id="gradient7" r="819.2" spreadMethod="pad">
      <stop offset="0.0" stop-color="#7743a3"/>
      <stop offset="1.0" stop-color="#a080ce"/>
    </radialGradient>
  </defs>
</svg>
