<?xml version="1.0" encoding="UTF-8" standalone="no"?>
<svg xmlns:xlink="http://www.w3.org/1999/xlink" height="18.05px" width="19.4px" xmlns="http://www.w3.org/2000/svg">
  <g transform="matrix(1.0, 0.0, 0.0, 1.0, 9.6, 9.05)">
    <use height="17.0" transform="matrix(1.0, 0.0, 0.0, 1.0, -8.65, -8.6)" width="17.55" xlink:href="#shape0"/>
  </g>
  <defs>
    <g id="shape0" transform="matrix(1.0, 0.0, 0.0, 1.0, 8.65, 8.6)">
      <path d="M-5.0 -7.65 L-4.6 -7.7 -4.5 -7.7 Q-2.8 -7.95 -1.4 -6.95 L-1.3 -7.0 -1.25 -7.0 -0.7 -7.1 -0.2 -6.9 -0.1 -6.8 0.75 -6.0 Q1.05 -6.3 1.45 -6.4 L1.45 -6.45 1.5 -6.55 1.65 -6.75 Q2.35 -8.45 4.35 -8.6 L4.4 -8.6 4.65 -8.6 4.7 -8.6 4.75 -8.55 Q5.1 -8.45 5.4 -8.3 L5.5 -8.25 Q8.15 -6.65 7.05 -4.5 L7.05 -4.55 7.0 -4.5 Q8.7 -3.55 8.65 -2.25 L8.65 -2.1 8.3 -1.0 7.45 0.0 7.7 0.15 7.65 0.15 Q8.95 0.95 8.9 2.05 L8.65 3.1 8.6 3.15 8.5 3.3 8.45 3.4 8.5 4.35 8.5 4.5 8.5 4.65 8.45 4.8 Q8.1 6.55 6.65 7.55 L6.6 7.6 Q4.6 8.95 2.25 8.0 1.0 7.45 0.2 6.45 L-0.3 7.05 Q-1.3 8.05 -2.65 8.35 L-2.75 8.35 -2.95 8.35 -4.95 8.15 -5.0 8.15 Q-5.3 8.15 -5.5 7.95 L-7.0 6.8 -7.65 6.4 -7.7 6.35 -7.75 6.3 -7.8 6.25 -7.95 6.1 -8.3 5.6 -8.65 4.65 Q-8.75 3.75 -7.85 3.35 L-6.8 0.7 -6.75 0.6 -6.55 0.35 Q-8.0 -0.6 -8.45 -2.25 L-8.45 -2.3 -8.45 -2.4 -8.45 -2.45 -8.45 -2.55 -8.45 -2.6 Q-8.45 -4.55 -7.6 -5.9 -6.55 -7.65 -5.0 -7.65" fill="#000000" fill-rule="evenodd" stroke="none"/>
      <path d="M4.4 -7.85 L4.95 -7.6 Q6.7 -6.55 6.1 -5.15 L5.4 -4.2 4.5 -3.9 Q4.15 -3.9 3.9 -3.5 3.6 -3.15 3.65 -2.6 L3.75 -1.5 3.7 -1.3 3.65 -1.3 3.65 -1.15 Q1.85 1.4 -0.45 -1.05 0.9 -0.65 1.85 -1.6 L2.1 -1.8 1.8 -3.8 1.2 -3.8 4.75 -5.75 4.4 -7.85 M5.75 -4.2 L6.2 -4.0 Q7.55 -3.35 7.6 -2.45 L7.35 -1.75 6.25 -0.65 Q4.8 0.2 3.8 -1.45 L6.2 -2.4 5.75 -4.2" fill="#be90d6" fill-rule="evenodd" stroke="none"/>
      <path d="M4.9 -2.95 L5.15 -2.85 5.25 -2.75 5.15 -2.55 4.9 -2.45 4.7 -2.55 4.6 -2.75 4.7 -2.85 4.9 -2.95 M1.3 -4.9 L1.2 -4.65 1.05 -4.9 1.3 -4.9 M2.95 -6.4 L3.25 -6.5 3.6 -6.4 3.7 -6.25 3.6 -6.05 3.25 -6.0 2.95 -6.05 2.8 -6.25 2.95 -6.4 M0.4 -2.75 L0.7 -2.8 0.95 -2.75 1.05 -2.6 0.95 -2.45 0.7 -2.4 0.4 -2.45 0.25 -2.6 0.4 -2.75" fill="#000000" fill-rule="evenodd" stroke="none"/>
      <path d="M4.4 -7.85 L4.75 -5.75 1.2 -3.8 1.8 -3.8 2.1 -1.8 1.85 -1.6 Q0.9 -0.65 -0.45 -1.05 L-0.45 -1.1 -0.55 -1.35 -0.5 -2.5 0.5 -3.55 Q0.4 -4.35 0.85 -5.0 1.3 -5.7 2.3 -5.85 L2.4 -6.4 Q2.9 -7.75 4.4 -7.85 M3.75 -1.5 L3.65 -2.6 4.5 -3.9 5.4 -4.2 5.75 -4.2 6.2 -2.4 3.8 -1.45 3.75 -1.5 M2.95 -6.4 L2.8 -6.25 2.95 -6.05 3.25 -6.0 3.6 -6.05 3.7 -6.25 3.6 -6.4 3.25 -6.5 2.95 -6.4 M1.3 -4.9 L1.05 -4.9 1.2 -4.65 1.3 -4.9 M4.9 -2.95 L4.7 -2.85 4.6 -2.75 4.7 -2.55 4.9 -2.45 5.15 -2.55 5.25 -2.75 5.15 -2.85 4.9 -2.95 M0.4 -2.75 L0.25 -2.6 0.4 -2.45 0.7 -2.4 0.95 -2.45 1.05 -2.6 0.95 -2.75 0.7 -2.8 0.4 -2.75" fill="#d9bee7" fill-rule="evenodd" stroke="none"/>
      <path d="M2.85 0.15 L3.75 0.0 3.85 0.0 Q5.2 0.05 6.15 0.85 L6.45 1.1 5.4 2.4 5.75 4.25 6.45 4.3 6.95 3.9 7.0 3.05 7.4 2.8 7.45 4.2 7.4 4.3 Q7.15 5.75 5.95 6.55 4.4 7.6 2.6 6.85 0.85 6.1 0.35 4.3 2.2 5.55 3.7 4.1 5.0 2.75 3.95 1.1 3.5 0.45 2.85 0.15 M-1.45 -5.95 L-2.55 -4.7 -2.2 -2.85 -1.5 -2.8 -1.05 -3.2 -0.9 -4.0 -0.55 -4.3 -0.5 -2.95 -0.55 -2.85 Q-0.85 -1.4 -2.0 -0.55 -3.65 0.4 -5.35 -0.35 -7.05 -1.1 -7.5 -2.8 L-7.5 -2.85 Q-5.75 -1.6 -4.25 -3.0 -2.9 -4.35 -3.9 -6.0 L-5.05 -6.9 -4.55 -6.95 Q-2.8 -7.25 -1.45 -5.95" fill="#eda406" fill-rule="evenodd" stroke="none"/>
      <path d="M2.85 0.15 Q3.5 0.45 3.95 1.1 5.0 2.75 3.7 4.1 2.2 5.55 0.35 4.3 L1.05 1.4 2.85 0.15 M-5.05 -6.9 L-3.9 -6.0 Q-2.9 -4.35 -4.25 -3.0 -5.75 -1.6 -7.5 -2.85 -7.5 -4.5 -6.75 -5.65 -6.05 -6.85 -5.05 -6.9" fill="#f9e339" fill-rule="evenodd" stroke="none"/>
      <path d="M7.4 2.8 L7.0 3.05 6.95 3.9 6.45 4.3 5.75 4.25 5.4 2.4 6.45 1.1 Q6.7 0.85 7.05 0.7 7.85 1.15 7.85 1.8 L7.6 2.55 7.4 2.8 M-0.55 -4.3 L-0.9 -4.0 -1.05 -3.2 -1.5 -2.8 -2.2 -2.85 -2.55 -4.7 -1.45 -5.95 -0.85 -6.35 Q0.4 -5.6 -0.3 -4.55 L-0.55 -4.3" fill="#7ec130" fill-rule="evenodd" stroke="none"/>
      <path d="M-7.15 4.0 L-5.95 0.85 Q-5.35 0.35 -4.65 0.15 -3.65 0.4 -3.05 1.2 -2.5 1.95 -2.65 2.95 -2.85 3.9 -3.65 4.5 -4.3 4.9 -5.05 4.9 L-7.15 4.0" fill="#f88559" fill-rule="evenodd" stroke="none"/>
      <path d="M-5.05 4.9 Q-4.3 4.9 -3.65 4.5 -2.85 3.9 -2.65 2.95 -2.5 1.95 -3.05 1.2 -3.65 0.4 -4.65 0.15 L-1.75 0.55 Q-0.05 1.65 -0.05 3.6 L-0.1 4.3 Q-0.3 5.3 -1.05 6.1 -1.85 6.9 -2.9 7.1 -2.9 6.15 -3.65 5.55 -4.25 5.0 -5.05 4.9 M-4.95 6.9 L-6.55 5.65 -5.9 5.75 -4.95 6.9" fill="#d34e34" fill-rule="evenodd" stroke="none"/>
      <path d="M-7.15 4.0 L-5.05 4.9 Q-4.25 5.0 -3.65 5.55 -2.9 6.15 -2.9 7.1 L-4.95 6.9 -5.9 5.75 -6.55 5.65 -7.2 5.25 -7.55 4.8 -7.7 4.4 Q-7.7 4.05 -7.15 4.0" fill="#7dc02c" fill-rule="evenodd" stroke="none"/>
    </g>
  </defs>
</svg>
