<?xml version="1.0" encoding="UTF-8" standalone="no"?>
<svg xmlns:xlink="http://www.w3.org/1999/xlink" height="13.95px" width="15.45px" xmlns="http://www.w3.org/2000/svg">
  <g transform="matrix(1.0, 0.0, 0.0, 1.0, 8.05, 7.95)">
    <use height="11.6" transform="matrix(1.0, 0.0, 0.0, 1.0, -4.4, -5.8)" width="9.1" xlink:href="#shape0"/>
  </g>
  <defs>
    <g id="shape0" transform="matrix(1.0, 0.0, 0.0, 1.0, 4.4, 5.8)">
      <path d="M1.0 3.7 Q1.35 4.05 1.35 4.55 L1.0 5.45 Q0.6 5.8 0.1 5.8 -0.4 5.8 -0.75 5.45 -1.15 5.05 -1.15 4.55 -1.15 4.05 -0.75 3.7 -0.4 3.3 0.1 3.3 0.6 3.3 1.0 3.7 M3.85 -4.55 Q5.6 -2.55 3.85 -1.6 L-0.25 0.4 0.15 1.05 0.75 1.15 1.05 1.4 1.1 1.65 1.1 1.85 Q-0.7 2.5 -1.9 0.9 L-1.4 0.1 -0.45 -0.6 1.95 -1.95 Q3.8 -3.05 2.8 -3.55 L2.05 -4.0 -1.1 -4.15 Q-2.55 -3.6 -3.7 -2.7 L-4.4 -2.9 Q-3.75 -4.7 -2.0 -5.35 L1.4 -5.7 3.15 -5.05 3.85 -4.55" fill="#73b01e" fill-rule="evenodd" stroke="none"/>
    </g>
  </defs>
</svg>
