<?xml version="1.0" encoding="UTF-8" standalone="no"?>
<svg xmlns:xlink="http://www.w3.org/1999/xlink" height="13.95px" width="15.45px" xmlns="http://www.w3.org/2000/svg">
  <g transform="matrix(1.0, 0.0, 0.0, 1.0, 8.05, 7.95)">
    <use height="12.0" transform="matrix(1.0, 0.0, 0.0, 1.0, -6.0, -6.0)" width="12.0" xlink:href="#shape0"/>
  </g>
  <defs>
    <g id="shape0" transform="matrix(1.0, 0.0, 0.0, 1.0, 6.0, 6.0)">
      <path d="M2.75 -3.95 Q2.4 -3.65 2.2 -3.8 2.0 -3.9 2.05 -4.35 L2.1 -4.55 0.55 -4.95 0.4 -4.0 0.0 -3.55 -0.4 -4.0 -0.55 -4.95 -2.1 -4.55 -2.05 -4.35 Q-1.95 -3.9 -2.15 -3.8 L-2.75 -3.95 -2.9 -4.1 -3.55 -3.55 -4.1 -2.9 -3.95 -2.75 Q-3.65 -2.4 -3.8 -2.15 -3.9 -1.95 -4.35 -2.05 L-4.6 -2.1 -5.0 -0.55 -4.0 -0.4 -3.55 0.0 -4.0 0.4 -5.0 0.55 -4.55 2.1 -4.35 2.05 Q-3.9 2.0 -3.8 2.2 -3.65 2.4 -3.95 2.75 L-4.1 2.95 -3.55 3.55 -2.9 4.1 -2.75 3.95 -2.15 3.8 Q-1.95 3.9 -2.05 4.35 L-2.1 4.6 -0.55 5.0 -0.4 4.05 0.0 3.6 0.4 4.05 0.55 5.0 2.1 4.55 2.05 4.35 Q2.0 3.9 2.2 3.8 2.4 3.65 2.75 3.95 L2.9 4.1 3.5 3.55 4.1 2.9 3.95 2.75 Q3.65 2.4 3.8 2.2 3.9 2.0 4.35 2.05 L4.55 2.1 4.95 0.55 4.05 0.4 3.6 0.0 4.05 -0.4 4.95 -0.55 4.55 -2.1 4.35 -2.05 Q3.9 -1.95 3.8 -2.15 3.65 -2.4 3.95 -2.75 L4.1 -2.85 3.5 -3.55 2.9 -4.05 2.75 -3.95 M5.95 -0.55 L6.0 0.0 5.95 0.55 Q5.75 2.7 4.2 4.25 2.45 6.0 0.0 6.0 -2.5 6.0 -4.25 4.25 -6.0 2.5 -6.0 0.0 -6.0 -2.5 -4.25 -4.25 -2.5 -6.0 0.0 -6.0 2.45 -6.0 4.2 -4.25 5.75 -2.7 5.95 -0.55" fill="#73b01e" fill-rule="evenodd" stroke="none"/>
      <path d="M0.6 -0.15 Q-0.05 0.35 -0.2 0.2 -0.4 0.05 0.05 -0.7 L1.2 -2.1 2.5 -3.25 Q3.15 -3.65 3.35 -3.5 3.5 -3.35 3.05 -2.7 L1.9 -1.25 0.6 -0.15" fill="#73b01e" fill-rule="evenodd" stroke="none"/>
      <path d="M-0.15 0.65 Q-0.35 0.15 -0.15 0.0 L0.45 0.1 1.25 0.8 1.85 1.7 Q2.05 2.1 1.85 2.25 L1.25 2.25 0.45 1.55 -0.15 0.65" fill="#73b01e" fill-rule="evenodd" stroke="none"/>
    </g>
  </defs>
</svg>
