<?xml version="1.0" encoding="UTF-8" standalone="no"?>
<svg xmlns:xlink="http://www.w3.org/1999/xlink" height="59.9px" width="60.65px" xmlns="http://www.w3.org/2000/svg">
  <g transform="matrix(1.0, 0.0, 0.0, 1.0, 29.8, 32.85)">
    <use height="50.3" transform="matrix(1.0, 0.0, 0.0, 1.0, -26.6, -24.75)" width="57.45" xlink:href="#shape0"/>
  </g>
  <defs>
    <g id="shape0" transform="matrix(1.0, 0.0, 0.0, 1.0, 26.6, 24.75)">
      <path d="M30.8 16.0 L30.85 16.05 30.8 16.05 30.8 16.0 M27.3 -0.4 L27.35 -0.45 27.35 -0.4 27.3 -0.4" fill="#ffffff" fill-rule="evenodd" stroke="none"/>
      <path d="M-22.05 -3.1 L-21.5 -3.5 -21.05 -4.65 -20.4 -5.55 -18.7 -6.8 Q-17.75 -10.05 -14.5 -11.95 L-14.45 -12.0 Q-12.75 -12.95 -11.65 -14.2 -10.15 -16.05 -7.7 -16.9 L-4.55 -19.85 -3.75 -20.3 2.6 -22.25 2.65 -22.25 4.8 -22.55 4.85 -22.55 9.85 -22.05 9.75 -22.05 Q13.45 -21.4 17.05 -20.15 L18.1 -19.35 19.25 -17.6 19.55 -16.5 19.45 -15.9 23.8 -6.3 Q24.1 -5.6 23.85 -4.85 L24.3 -4.0 24.55 -2.85 23.9 4.45 23.65 5.25 23.7 5.7 23.5 6.65 20.55 12.8 Q18.45 17.15 14.95 20.55 14.4 21.05 13.7 21.1 L12.3 21.2 11.4 21.85 Q10.75 22.3 10.0 22.25 L9.9 22.25 9.8 22.4 9.15 23.0 8.3 23.3 5.7 23.55 5.65 23.55 Q2.65 23.85 -0.3 23.55 L-0.2 23.55 -9.2 22.4 -10.1 21.95 -10.95 21.2 -12.05 21.2 Q-12.8 20.95 -13.2 20.3 L-13.3 20.15 Q-14.0 20.1 -14.5 19.6 L-15.05 19.05 -15.6 19.0 Q-16.1 18.85 -16.4 18.55 L-20.85 14.55 -21.35 13.9 -21.5 13.5 -22.35 12.6 -24.75 7.65 -24.95 6.75 -24.9 2.45 Q-24.9 1.6 -24.25 1.0 L-23.35 0.15 -22.85 -1.95 Q-22.65 -2.7 -22.05 -3.1" fill="#ffffff" fill-rule="evenodd" stroke="none"/>
      <path d="M-15.05 -13.9 L-12.85 -15.65 Q-11.15 -17.8 -8.4 -18.8 L-5.6 -21.45 Q-4.95 -22.1 -4.05 -22.35 L-4.0 -22.4 2.4 -24.3 2.75 -24.4 5.1 -24.7 5.15 -24.7 5.2 -24.7 10.25 -24.2 10.45 -24.2 Q14.3 -23.5 18.05 -22.2 L18.1 -22.15 Q19.35 -21.75 20.1 -20.6 L21.25 -18.85 21.25 -18.8 Q21.9 -17.85 21.9 -16.7 L21.9 -16.3 25.95 -7.3 25.95 -7.25 26.3 -5.35 26.4 -5.15 Q27.0 -4.05 26.9 -2.85 L26.25 4.45 26.25 4.5 26.05 5.4 26.05 5.5 Q26.1 6.45 25.65 7.4 L25.65 7.35 22.7 13.5 Q20.45 18.15 16.7 21.8 15.65 22.8 14.25 22.95 L13.35 23.0 12.95 23.3 12.95 23.35 Q12.1 23.9 11.2 24.05 L10.55 24.55 10.5 24.6 Q9.75 25.05 8.9 25.15 L8.85 25.15 6.25 25.4 Q3.0 25.75 -0.2 25.4 L-0.35 25.4 -9.25 24.2 -9.25 24.25 Q-10.3 24.0 -11.1 23.3 L-11.3 23.1 -12.25 22.95 Q-13.4 22.6 -14.15 21.8 L-15.55 20.85 -15.65 20.8 -15.8 20.75 Q-16.7 20.5 -17.4 19.9 L-17.4 19.85 -21.85 15.85 -21.85 15.9 -22.8 14.6 -23.8 13.3 -26.2 8.4 Q-26.6 7.5 -26.6 6.6 L-26.55 2.25 Q-26.5 0.6 -25.35 -0.55 L-25.3 -0.55 -24.85 -1.05 -24.45 -2.6 -24.4 -2.6 Q-24.05 -4.05 -22.85 -4.9 L-22.6 -5.55 Q-22.2 -6.6 -21.25 -7.3 L-21.2 -7.3 -20.05 -8.15 Q-18.8 -11.7 -15.2 -13.85 L-15.1 -13.9 -15.05 -13.9" fill="#ffffff" fill-opacity="0.5019608" fill-rule="evenodd" stroke="none"/>
      <path d="M9.85 -18.4 L10.25 -18.65 9.7 -18.55 Q9.2 -18.9 8.55 -19.05 L9.1 -19.45 7.95 -19.2 5.6 -19.25 4.8 -19.1 2.25 -18.5 Q-3.75 -16.55 -9.95 -11.4 -16.25 -6.25 -19.15 -0.8 -21.9 4.25 -20.3 6.7 L-20.3 6.8 -20.25 6.75 -17.65 8.4 -17.55 8.5 -17.55 8.4 -14.7 8.35 -14.65 8.4 Q-14.65 9.25 -13.75 8.15 -13.25 7.7 -12.5 7.8 L-11.2 8.25 -10.0 6.95 -4.55 4.15 -4.3 4.15 -4.35 4.0 0.45 0.5 2.45 0.0 Q2.05 -0.15 1.8 -0.65 5.45 -3.95 7.85 -7.3 L9.0 -7.95 Q9.25 -8.15 8.55 -8.35 L9.2 -9.4 9.95 -9.75 9.85 -10.5 10.65 -12.35 11.15 -12.5 Q12.45 -13.25 11.0 -13.4 L11.15 -14.25 11.85 -15.15 11.25 -15.9 9.85 -18.4 M11.8 -18.15 Q11.1 -18.5 11.65 -18.1 L11.8 -18.15 M4.8 -20.35 L10.1 -19.6 9.25 -19.0 13.4 -18.2 13.85 -17.1 12.75 -15.55 12.85 -14.35 11.6 -9.9 10.9 -9.75 10.7 -9.15 9.8 -8.55 11.85 -6.85 10.9 -5.25 11.1 -6.95 6.15 -3.6 5.65 -2.05 6.55 -1.85 6.4 -1.6 6.1 0.2 5.55 1.05 6.25 2.25 2.4 1.8 2.15 2.65 2.85 2.65 1.25 4.4 3.8 3.65 6.7 5.55 3.55 5.4 3.15 4.65 3.65 8.9 5.2 10.35 2.65 10.5 1.45 9.75 1.1 10.75 2.8 12.3 2.4 13.9 3.9 13.9 3.55 15.8 2.65 15.6 Q3.5 14.5 2.5 14.65 L1.95 16.05 2.95 16.8 4.2 16.55 5.5 17.35 9.2 20.1 9.3 20.35 8.95 20.3 8.8 20.35 6.9 19.15 6.75 19.3 6.3 19.3 3.65 17.85 3.35 18.55 3.75 19.6 7.6 20.4 5.4 21.75 Q2.6 22.05 -0.15 21.75 L-8.85 20.65 -10.7 19.0 -11.55 19.45 -12.15 18.45 -13.15 18.35 -14.4 17.1 -15.15 17.25 -19.6 13.25 -19.6 12.4 -20.6 11.9 -23.0 7.0 Q-21.75 7.4 -21.9 6.0 -22.1 4.4 -21.75 2.8 -21.15 0.3 -19.65 -1.85 L-17.2 -5.25 -16.95 -5.55 -6.85 -14.85 -6.55 -15.1 3.15 -20.1 4.8 -20.35 M7.0 -2.75 L7.55 -2.9 8.15 -2.75 8.35 -2.4 8.15 -2.05 7.55 -1.9 7.0 -2.05 6.75 -2.4 7.0 -2.75 M7.7 -3.55 L7.75 -3.75 7.8 -3.85 8.5 -4.15 8.8 -3.9 8.8 -3.8 Q8.3 -3.05 7.7 -3.55 M5.25 -3.2 L4.8 -3.15 5.0 -2.7 5.25 -3.2 M14.05 -3.7 L13.85 -2.7 12.75 -4.15 14.05 -3.7 M9.15 -2.0 L9.45 -1.8 9.55 -1.4 9.45 -0.95 Q9.3 -0.8 9.15 -0.8 9.0 -0.8 8.9 -0.95 L8.75 -1.4 Q8.75 -1.65 8.9 -1.8 L9.15 -2.0 M9.4 -6.95 L9.4 -6.7 Q9.65 -7.8 9.4 -6.95 M0.65 2.45 L0.75 2.2 -0.6 2.1 0.65 2.45 M0.55 3.05 Q1.9 3.1 0.7 2.85 L0.55 3.05 M-0.35 2.8 L-1.35 2.85 -1.45 3.6 -0.35 2.8 M3.2 0.9 L4.25 0.95 5.15 -0.7 3.2 0.9 M6.8 4.9 L6.5 3.35 9.7 6.2 6.8 4.9 M14.35 8.2 L14.6 8.35 14.7 8.65 14.6 9.0 14.35 9.1 14.1 9.0 14.0 8.65 14.1 8.35 Q14.2 8.2 14.35 8.2 M16.25 6.5 L16.4 6.45 Q17.6 6.65 16.8 7.45 L16.2 7.55 15.8 7.2 15.8 7.1 15.8 7.0 15.8 6.8 Q15.95 6.55 16.25 6.5 M10.15 7.1 L10.2 8.05 10.3 8.95 10.25 10.6 9.95 10.8 9.5 9.45 6.95 8.2 9.25 8.15 10.15 7.1 M10.9 5.9 Q11.05 5.9 11.2 6.05 L11.3 6.35 11.2 6.7 10.9 6.8 10.65 6.7 10.5 6.35 Q10.5 6.15 10.65 6.05 10.75 5.9 10.9 5.9 M9.15 2.75 L8.25 2.0 Q9.25 1.25 9.15 2.75 M12.55 4.3 L12.15 4.15 11.95 3.75 12.15 3.35 Q12.3 3.2 12.55 3.2 L13.0 3.35 13.15 3.75 13.0 4.15 12.55 4.3 M12.6 1.55 L11.6 0.7 Q12.25 -0.55 12.6 1.55 M13.7 2.65 L14.1 2.65 14.1 3.25 13.7 3.25 13.7 2.65 M16.05 1.8 L16.65 1.65 17.3 1.8 17.55 2.2 17.3 2.6 16.65 2.75 16.05 2.6 15.75 2.2 Q15.75 1.95 16.05 1.8 M-1.7 14.25 L-0.8 13.4 -2.9 13.2 -3.55 14.35 -1.7 14.25 M4.15 15.55 L5.3 15.85 6.65 17.45 4.15 15.55 M4.05 11.1 L5.5 11.4 5.3 12.8 7.65 11.9 7.2 13.4 8.5 13.55 12.25 18.55 10.05 17.3 8.75 17.95 6.35 16.4 6.55 15.25 9.4 16.65 7.65 14.85 Q6.1 13.3 4.05 12.9 L4.05 11.1 M7.9 9.15 L7.9 10.9 6.1 10.9 6.1 9.15 7.9 9.15 M-2.0 6.4 L-0.95 8.2 Q-1.2 9.1 -1.95 8.5 L-1.95 8.45 -2.85 7.2 -2.0 6.4 M2.0 5.9 L1.25 7.5 -0.3 7.3 -0.7 6.85 0.25 6.0 0.35 5.3 -0.45 5.45 Q-1.5 5.45 -0.7 4.65 L-3.7 7.4 -3.4 8.65 -4.95 8.45 -4.65 7.25 -7.25 8.65 -7.25 7.85 -10.9 8.3 -11.25 9.45 -12.75 8.75 -15.25 11.6 -13.85 11.45 -13.7 11.35 -12.7 12.65 -11.55 11.55 -11.5 9.85 -10.35 10.65 -9.15 10.05 -10.7 11.7 -7.45 11.1 -4.8 12.75 -3.6 11.85 -1.35 11.6 -2.0 12.8 0.3 12.85 -0.7 15.15 -1.6 15.35 -2.05 15.9 -0.6 16.5 -0.3 17.6 3.4 17.2 0.35 15.65 1.65 14.55 1.35 13.95 2.1 12.35 -1.3 11.2 0.15 10.1 -0.6 9.45 2.0 7.9 1.9 8.95 3.3 9.95 2.0 5.9 M12.95 18.05 Q12.5 19.0 12.8 17.9 L12.95 18.05 M9.75 11.95 L9.9 12.05 9.95 12.15 9.8 12.7 9.75 12.8 Q9.3 13.1 9.0 12.65 9.1 12.25 9.6 12.05 L9.65 12.0 9.75 11.95 M11.05 13.35 L11.7 14.05 10.55 14.3 9.9 10.8 10.9 12.0 11.05 13.35 M12.7 13.6 L13.15 13.8 13.3 14.2 13.15 14.65 12.7 14.8 12.3 14.65 12.1 14.2 12.3 13.8 Q12.45 13.6 12.7 13.6 M14.15 16.1 L13.3 16.3 12.45 16.1 Q12.1 15.9 12.1 15.6 12.1 15.3 12.45 15.1 L13.3 14.9 14.15 15.1 14.5 15.6 14.15 16.1 M14.35 12.35 Q14.5 11.35 15.1 12.2 16.35 12.7 15.15 13.2 14.25 13.2 14.35 12.35 M13.6 12.6 L13.5 12.1 13.6 11.6 13.8 11.4 14.0 11.6 14.1 12.1 14.0 12.6 13.8 12.8 13.6 12.6 M-2.0 17.9 Q-1.05 17.7 -1.85 17.75 L-2.0 17.9 M-2.15 4.5 L-4.05 5.05 -4.15 5.95 -2.15 4.5 M-2.6 9.45 L-4.4 11.3 -5.6 10.4 -2.6 9.45 M-6.25 9.3 Q-7.4 9.85 -6.2 9.05 -6.05 9.3 -6.25 9.3 M-6.35 5.9 L-6.4 5.95 Q-4.95 6.05 -6.35 5.9 M-7.9 10.3 L-8.2 10.15 Q-8.0 9.35 -7.15 9.6 L-7.65 10.4 -7.9 10.3 M-10.8 9.2 L-10.25 9.2 -10.25 9.8 -10.8 9.8 -10.8 9.2 M-12.9 10.3 Q-13.6 10.5 -13.15 10.15 -12.2 9.3 -12.9 10.3 M-17.1 11.15 Q-16.3 11.15 -17.0 11.1 L-17.1 11.15 M-18.4 9.45 L-20.2 10.65 -18.1 11.0 -16.85 10.1 -18.4 9.45 M-20.7 10.4 L-20.2 9.3 -21.2 9.3 -20.7 10.4 M-20.7 8.3 L-20.95 8.25 Q-20.3 8.95 -20.7 8.3 M-8.9 12.55 L-8.15 11.85 -10.1 12.55 -8.9 12.55 M-7.2 13.95 L-7.8 12.85 -10.0 13.85 -8.95 14.8 -7.2 13.95 M-2.6 15.3 Q-2.6 14.65 -2.65 15.5 L-2.6 15.3 M-4.3 13.75 L-3.75 13.1 -5.2 13.35 -6.3 12.2 -7.15 12.3 -7.4 13.25 -5.9 12.65 -6.3 13.6 -4.35 13.75 -4.55 15.2 -4.3 13.75 M-2.4 16.65 L-1.55 16.7 -2.4 16.65" fill="#b0993e" fill-rule="evenodd" stroke="none"/>
      <path d="M11.8 -18.15 L11.65 -18.1 Q11.1 -18.5 11.8 -18.15 M9.7 -18.55 L10.25 -18.65 9.85 -18.4 9.7 -18.55 M11.25 -15.9 L11.85 -15.15 11.15 -14.25 11.25 -15.9 M11.0 -13.4 Q12.45 -13.25 11.15 -12.5 L10.65 -12.35 11.0 -13.4 M9.85 -10.5 L9.95 -9.75 9.2 -9.4 9.85 -10.5 M8.55 -8.35 Q9.25 -8.15 9.0 -7.95 L7.85 -7.3 8.55 -8.35 M1.8 -0.65 Q2.05 -0.15 2.45 0.0 L0.45 0.5 1.8 -0.65 M-4.35 4.0 L-4.3 4.15 -4.55 4.15 -4.35 4.0 M-10.0 6.95 L-11.2 8.25 -12.5 7.8 -10.0 6.95 M-13.75 8.15 Q-14.65 9.25 -14.65 8.4 L-14.7 8.35 -13.75 8.15 M-17.55 8.4 L-17.55 8.5 -17.65 8.4 -17.55 8.4 M-20.25 6.75 L-20.3 6.8 -20.3 6.7 -20.25 6.75 M7.95 -19.2 L9.1 -19.45 8.55 -19.05 7.95 -19.2 M9.3 20.35 L9.2 20.1 5.5 17.35 4.2 16.55 2.95 16.8 1.95 16.05 2.5 14.65 Q3.5 14.5 2.65 15.6 L3.55 15.8 3.9 13.9 2.4 13.9 2.8 12.3 1.1 10.75 1.45 9.75 2.65 10.5 5.2 10.35 3.65 8.9 3.15 4.65 3.55 5.4 6.7 5.55 3.8 3.65 1.25 4.4 2.85 2.65 2.15 2.65 2.4 1.8 6.25 2.25 5.55 1.05 6.1 0.2 6.4 -1.6 6.55 -1.85 5.65 -2.05 6.15 -3.6 11.1 -6.95 10.9 -5.25 11.85 -6.85 9.8 -8.55 10.7 -9.15 10.9 -9.75 11.6 -9.9 12.85 -14.35 12.75 -15.55 13.85 -17.1 13.4 -18.2 9.25 -19.0 10.1 -19.6 4.8 -20.35 9.35 -19.9 Q12.9 -19.25 16.35 -18.05 L17.5 -16.3 17.1 -16.0 17.1 -15.9 17.25 -15.65 21.9 -5.3 21.6 -4.45 22.5 -2.85 21.85 4.45 21.2 5.25 21.65 6.0 18.7 12.1 Q16.75 16.15 13.5 19.3 L11.5 19.45 10.15 20.45 9.3 20.35 M3.15 -20.1 L-6.55 -15.1 -3.25 -18.2 3.15 -20.1 M-6.85 -14.85 L-16.95 -5.55 Q-16.3 -8.4 -13.55 -10.05 -11.5 -11.2 -10.2 -12.75 -8.95 -14.25 -6.85 -14.85 M-17.2 -5.25 L-19.65 -1.85 Q-21.15 0.3 -21.75 2.8 -22.1 4.4 -21.9 6.0 -21.75 7.4 -23.0 7.0 L-22.95 2.65 -21.6 1.35 -20.95 -1.3 -19.9 -2.05 -19.25 -3.75 -17.2 -5.25 M5.4 21.75 L7.6 20.4 3.75 19.6 3.35 18.55 3.65 17.85 6.3 19.3 6.75 19.3 6.9 19.15 8.8 20.35 8.05 21.5 5.4 21.75 M14.85 -17.0 L14.8 -17.0 14.8 -16.95 14.85 -17.0 M5.25 -3.2 L5.0 -2.7 4.8 -3.15 5.25 -3.2 M7.7 -3.55 Q8.3 -3.05 8.8 -3.8 L8.8 -3.9 8.5 -4.15 7.8 -3.85 7.75 -3.75 7.7 -3.55 M7.0 -2.75 L6.75 -2.4 7.0 -2.05 7.55 -1.9 8.15 -2.05 8.35 -2.4 8.15 -2.75 7.55 -2.9 7.0 -2.75 M9.4 -6.95 Q9.65 -7.8 9.4 -6.7 L9.4 -6.95 M9.15 -2.0 L8.9 -1.8 Q8.75 -1.65 8.75 -1.4 L8.9 -0.95 Q9.0 -0.8 9.15 -0.8 9.3 -0.8 9.45 -0.95 L9.55 -1.4 9.45 -1.8 9.15 -2.0 M14.05 -3.7 L12.75 -4.15 13.85 -2.7 14.05 -3.7 M16.05 1.8 Q15.75 1.95 15.75 2.2 L16.05 2.6 16.65 2.75 17.3 2.6 17.55 2.2 17.3 1.8 16.65 1.65 16.05 1.8 M13.7 2.65 L13.7 3.25 14.1 3.25 14.1 2.65 13.7 2.65 M12.6 1.55 Q12.25 -0.55 11.6 0.7 L12.6 1.55 M12.55 4.3 L13.0 4.15 13.15 3.75 13.0 3.35 12.55 3.2 Q12.3 3.2 12.15 3.35 L11.95 3.75 12.15 4.15 12.55 4.3 M9.15 2.75 Q9.25 1.25 8.25 2.0 L9.15 2.75 M10.9 5.9 Q10.75 5.9 10.65 6.05 10.5 6.15 10.5 6.35 L10.65 6.7 10.9 6.8 11.2 6.7 11.3 6.35 11.2 6.05 Q11.05 5.9 10.9 5.9 M10.15 7.1 L9.25 8.15 6.95 8.2 9.5 9.45 9.95 10.8 10.25 10.6 10.3 8.95 10.2 8.05 10.15 7.1 M16.25 6.5 Q15.95 6.55 15.8 6.8 L15.8 7.0 15.8 7.1 15.8 7.2 16.2 7.55 16.8 7.45 Q17.6 6.65 16.4 6.45 L16.25 6.5 M14.35 8.2 Q14.2 8.2 14.1 8.35 L14.0 8.65 14.1 9.0 14.35 9.1 14.6 9.0 14.7 8.65 14.6 8.35 14.35 8.2 M6.8 4.9 L9.7 6.2 6.5 3.35 6.8 4.9 M3.2 0.9 L5.15 -0.7 4.25 0.95 3.2 0.9 M-0.35 2.8 L-1.45 3.6 -1.35 2.85 -0.35 2.8 M0.55 3.05 L0.7 2.85 Q1.9 3.1 0.55 3.05 M0.65 2.45 L-0.6 2.1 0.75 2.2 0.65 2.45 M2.0 5.9 L3.3 9.95 1.9 8.95 2.0 7.9 -0.6 9.45 0.15 10.1 -1.3 11.2 2.1 12.35 1.35 13.95 1.65 14.55 0.35 15.65 3.4 17.2 -0.3 17.6 -0.6 16.5 -2.05 15.9 -1.6 15.35 -0.7 15.15 0.3 12.85 -2.0 12.8 -1.35 11.6 -3.6 11.85 -4.8 12.75 -7.45 11.1 -10.7 11.7 -9.15 10.05 -10.35 10.65 -11.5 9.85 -11.55 11.55 -12.7 12.65 -13.7 11.35 -13.85 11.45 -15.25 11.6 -12.75 8.75 -11.25 9.45 -10.9 8.3 -7.25 7.85 -7.25 8.65 -4.65 7.25 -4.95 8.45 -3.4 8.65 -3.7 7.4 -0.7 4.65 Q-1.5 5.45 -0.45 5.45 L0.35 5.3 0.25 6.0 -0.7 6.85 -0.3 7.3 1.25 7.5 2.0 5.9 M-2.0 6.4 L-2.85 7.2 -1.95 8.45 -1.95 8.5 Q-1.2 9.1 -0.95 8.2 L-2.0 6.4 M7.9 9.15 L6.1 9.15 6.1 10.9 7.9 10.9 7.9 9.15 M4.05 11.1 L4.05 12.9 Q6.1 13.3 7.65 14.85 L9.4 16.65 6.55 15.25 6.35 16.4 8.75 17.95 10.05 17.3 12.25 18.55 8.5 13.55 7.2 13.4 7.65 11.9 5.3 12.8 5.5 11.4 4.05 11.1 M4.15 15.55 L6.65 17.45 5.3 15.85 4.15 15.55 M-1.7 14.25 L-3.55 14.35 -2.9 13.2 -0.8 13.4 -1.7 14.25 M-2.0 17.9 L-1.85 17.75 Q-1.05 17.7 -2.0 17.9 M13.6 12.6 L13.8 12.8 14.0 12.6 14.1 12.1 14.0 11.6 13.8 11.4 13.6 11.6 13.5 12.1 13.6 12.6 M14.35 12.35 Q14.25 13.2 15.15 13.2 16.35 12.7 15.1 12.2 14.5 11.35 14.35 12.35 M14.15 16.1 L14.5 15.6 14.15 15.1 13.3 14.9 12.45 15.1 Q12.1 15.3 12.1 15.6 12.1 15.9 12.45 16.1 L13.3 16.3 14.15 16.1 M12.7 13.6 Q12.45 13.6 12.3 13.8 L12.1 14.2 12.3 14.65 12.7 14.8 13.15 14.65 13.3 14.2 13.15 13.8 12.7 13.6 M11.05 13.35 L10.9 12.0 9.9 10.8 10.55 14.3 11.7 14.05 11.05 13.35 M9.75 11.95 L9.65 12.0 9.6 12.05 Q9.1 12.25 9.0 12.65 9.3 13.1 9.75 12.8 L9.8 12.7 9.95 12.15 9.9 12.05 9.75 11.95 M12.95 18.05 L12.8 17.9 Q12.5 19.0 12.95 18.05 M-2.15 4.5 L-4.15 5.95 -4.05 5.05 -2.15 4.5 M-10.8 9.2 L-10.8 9.8 -10.25 9.8 -10.25 9.2 -10.8 9.2 M-7.9 10.3 L-7.65 10.4 -7.15 9.6 Q-8.0 9.35 -8.2 10.15 L-7.9 10.3 M-6.35 5.9 Q-4.95 6.05 -6.4 5.95 L-6.35 5.9 M-6.25 9.3 Q-6.05 9.3 -6.2 9.05 -7.4 9.85 -6.25 9.3 M-2.6 9.45 L-5.6 10.4 -4.4 11.3 -2.6 9.45 M-20.7 8.3 Q-20.3 8.95 -20.95 8.25 L-20.7 8.3 M-20.7 10.4 L-21.2 9.3 -20.2 9.3 -20.7 10.4 M-18.4 9.45 L-16.85 10.1 -18.1 11.0 -20.2 10.65 -18.4 9.45 M-17.1 11.15 L-17.0 11.1 Q-16.3 11.15 -17.1 11.15 M-12.9 10.3 Q-12.2 9.3 -13.15 10.15 -13.6 10.5 -12.9 10.3 M-4.3 13.75 L-4.55 15.2 -4.35 13.75 -6.3 13.6 -5.9 12.65 -7.4 13.25 -7.15 12.3 -6.3 12.2 -5.2 13.35 -3.75 13.1 -4.3 13.75 M-2.6 15.3 L-2.65 15.5 Q-2.6 14.65 -2.6 15.3 M-7.2 13.95 L-8.95 14.8 -10.0 13.85 -7.8 12.85 -7.2 13.95 M-8.9 12.55 L-10.1 12.55 -8.15 11.85 -8.9 12.55 M-2.4 16.65 L-1.55 16.7 -2.4 16.65" fill="#897730" fill-rule="evenodd" stroke="none"/>
      <path d="M9.85 -18.4 L11.25 -15.9 11.15 -14.25 11.0 -13.4 10.65 -12.35 9.85 -10.5 9.2 -9.4 8.55 -8.35 7.85 -7.3 Q5.45 -3.95 1.8 -0.65 L0.45 0.5 -4.35 4.0 -4.55 4.15 -10.0 6.95 -12.5 7.8 Q-13.25 7.7 -13.75 8.15 L-14.7 8.35 -17.55 8.4 -17.65 8.4 -20.25 6.75 -20.3 6.7 Q-21.9 4.25 -19.15 -0.8 -16.25 -6.25 -9.95 -11.4 -3.75 -16.55 2.25 -18.5 L4.8 -19.1 5.6 -19.25 7.95 -19.2 8.55 -19.05 Q9.2 -18.9 9.7 -18.55 L9.85 -18.4 M2.7 -6.3 L5.85 -7.3 3.85 -7.75 Q5.65 -10.4 4.3 -11.65 L6.15 -13.9 3.4 -12.25 -0.1 -12.65 0.2 -13.75 -1.65 -12.25 Q-3.65 -11.55 -6.0 -9.7 -6.75 -9.7 -7.3 -9.2 -7.85 -8.75 -7.85 -8.1 L-11.35 -4.2 -12.15 -2.8 -12.55 0.0 -15.2 3.15 -12.1 1.25 Q-11.25 2.65 -9.05 2.1 -9.5 3.6 -8.2 2.35 L-7.35 1.5 -2.8 -1.3 -2.25 -0.6 -1.25 -1.3 -1.05 -2.65 2.7 -6.3" fill="#36bb09" fill-rule="evenodd" stroke="none"/>
      <path d="M3.85 -7.75 L5.85 -7.3 2.7 -6.3 0.7 -6.0 1.25 -7.15 3.85 -7.75 M-1.05 -2.65 L-1.25 -1.3 -2.25 -0.6 -2.8 -1.3 -3.1 -2.4 Q-3.1 -2.9 -2.6 -3.25 -2.1 -3.65 -1.4 -3.65 -1.15 -3.25 -1.05 -2.65 M-7.35 1.5 L-8.2 2.35 Q-9.5 3.6 -9.05 2.1 L-7.15 -1.25 -7.05 -1.35 Q-5.65 -2.2 -6.15 -1.15 L-7.35 1.5 M-12.1 1.25 L-15.2 3.15 -12.55 0.0 -9.0 -2.8 -7.65 -3.2 -8.4 -1.85 -12.1 1.25 M-12.15 -2.8 L-11.35 -4.2 -8.6 -4.9 Q-6.65 -5.45 -7.5 -4.5 L-9.1 -3.7 -12.15 -2.8 M-7.85 -8.1 Q-7.85 -8.75 -7.3 -9.2 -6.75 -9.7 -6.0 -9.7 L-5.15 -7.95 Q-5.15 -7.55 -5.55 -7.25 L-6.55 -7.0 Q-7.4 -7.4 -7.85 -8.1 M-1.65 -12.25 L0.2 -13.75 -0.1 -12.65 -1.45 -9.85 -3.15 -9.1 -1.65 -12.25 M3.4 -12.25 L6.15 -13.9 4.3 -11.65 1.85 -9.55 -0.65 -7.9 0.8 -10.15 3.4 -12.25" fill="#000000" fill-rule="evenodd" stroke="none"/>
      <path d="M3.85 -7.75 L1.25 -7.15 1.85 -9.55 4.3 -11.65 Q5.65 -10.4 3.85 -7.75 M0.7 -6.0 L2.7 -6.3 -1.05 -2.65 Q-1.15 -3.25 -1.4 -3.65 L0.7 -6.0 M-2.8 -1.3 L-7.35 1.5 -6.15 -1.15 -3.1 -2.4 -2.8 -1.3 M-9.05 2.1 Q-11.25 2.65 -12.1 1.25 L-8.4 -1.85 Q-7.9 -1.4 -7.15 -1.25 L-9.05 2.1 M-12.55 0.0 L-12.15 -2.8 -9.1 -3.7 -9.0 -2.8 -12.55 0.0 M-11.35 -4.2 L-7.85 -8.1 Q-7.4 -7.4 -6.55 -7.0 L-8.6 -4.9 -11.35 -4.2 M-6.0 -9.7 Q-3.65 -11.55 -1.65 -12.25 L-3.15 -9.1 -5.15 -7.95 -6.0 -9.7 M-0.1 -12.65 L3.4 -12.25 0.8 -10.15 -1.45 -9.85 -0.1 -12.65" fill="#39d911" fill-rule="evenodd" stroke="none"/>
      <path d="M1.25 -7.15 L0.7 -6.0 -1.4 -3.65 Q-2.1 -3.65 -2.6 -3.25 -3.1 -2.9 -3.1 -2.4 L-6.15 -1.15 Q-5.65 -2.2 -7.05 -1.35 L-7.15 -1.25 Q-7.9 -1.4 -8.4 -1.85 L-7.65 -3.2 -9.0 -2.8 -9.1 -3.7 -7.5 -4.5 Q-6.65 -5.45 -8.6 -4.9 L-6.55 -7.0 -5.55 -7.25 Q-5.15 -7.55 -5.15 -7.95 L-3.15 -9.1 -1.45 -9.85 0.8 -10.15 -0.65 -7.9 1.85 -9.55 1.25 -7.15" fill="#60ef3a" fill-rule="evenodd" stroke="none"/>
    </g>
  </defs>
</svg>
