<?xml version="1.0" encoding="UTF-8" standalone="no"?>
<svg xmlns:xlink="http://www.w3.org/1999/xlink" height="59.9px" width="60.65px" xmlns="http://www.w3.org/2000/svg">
  <g transform="matrix(1.0, 0.0, 0.0, 1.0, 29.8, 32.85)">
    <use height="48.7" transform="matrix(1.0, 0.0, 0.0, 1.0, -24.4, -23.6)" width="49.45" xlink:href="#shape0"/>
  </g>
  <defs>
    <g id="shape0" transform="matrix(1.0, 0.0, 0.0, 1.0, 24.4, 23.6)">
      <path d="M18.65 -14.35 L18.85 -14.05 20.5 -11.35 20.6 -11.1 21.1 -9.9 Q23.35 -4.35 22.75 2.0 22.3 6.7 20.3 10.6 L20.2 10.75 20.2 10.8 20.15 10.8 19.7 11.65 19.65 11.7 17.5 14.65 16.85 15.45 16.85 15.4 Q9.35 23.3 -1.7 23.1 L-1.85 23.1 -4.85 22.8 -5.05 22.75 -5.35 22.75 -5.75 22.65 Q-9.15 21.95 -12.25 20.15 -16.05 18.0 -18.5 14.65 L-19.1 13.75 -19.65 12.95 -19.65 12.9 -21.0 10.35 -20.95 10.45 -21.4 9.35 Q-24.7 -0.75 -18.85 -9.6 -12.9 -18.8 -2.15 -21.1 8.95 -23.35 17.55 -15.55 L17.6 -15.5 18.25 -14.8 18.3 -14.75 18.65 -14.35" fill="#ffffff" fill-rule="evenodd" stroke="none"/>
      <path d="M19.25 -16.9 L19.95 -16.1 20.0 -16.1 20.35 -15.7 20.35 -15.65 20.75 -15.15 20.8 -15.1 22.4 -12.35 22.45 -12.3 22.65 -11.9 22.65 -11.85 23.15 -10.7 23.25 -10.4 Q25.55 -4.55 24.95 2.15 24.45 7.25 22.25 11.5 L22.25 11.55 22.15 11.75 21.55 12.8 21.5 12.85 19.35 15.8 19.3 15.85 18.45 16.85 18.3 17.0 Q10.25 25.25 -1.4 25.1 L-1.55 25.1 -1.7 25.1 -1.85 25.1 -4.85 24.8 -5.05 24.75 -5.2 24.75 -5.35 24.7 -5.95 24.6 -6.05 24.6 Q-9.6 23.85 -12.85 22.0 L-13.05 21.9 Q-17.1 19.55 -19.75 16.05 L-20.75 14.6 -21.1 14.05 -21.15 13.95 -22.65 11.15 -22.75 10.9 -23.1 10.0 -23.1 9.95 Q-26.7 -1.05 -20.35 -10.7 -13.9 -20.55 -2.4 -23.05 L-2.15 -23.1 Q9.7 -25.45 18.9 -17.15 L19.25 -16.9" fill="#ffffff" fill-opacity="0.5019608" fill-rule="evenodd" stroke="none"/>
      <path d="M11.2 -12.6 L11.25 -12.45 11.6 -12.1 Q11.9 -11.85 12.2 -12.1 13.3 -12.85 12.05 -13.35 11.5 -13.3 11.2 -12.8 L11.2 -12.7 11.2 -12.6 M10.5 -13.05 Q11.8 -13.15 10.5 -14.4 8.85 -15.9 10.5 -13.05 M14.7 -14.3 L14.4 -14.05 14.35 -13.8 14.4 -13.4 Q15.3 -12.85 15.6 -13.8 L15.55 -13.9 14.85 -14.35 14.7 -14.3 M16.8 -13.45 L17.15 -13.05 16.9 -13.15 16.8 -13.45 M18.75 -10.3 L19.25 -9.15 18.5 -9.2 18.75 -10.3 M-17.15 13.15 L-17.2 13.05 -17.05 13.05 -17.15 13.15 M-17.95 11.85 L-19.15 9.6 -16.7 9.7 Q-16.2 7.35 -18.2 7.55 -19.5 7.7 -19.5 8.7 -22.5 -0.45 -17.2 -8.5 -11.65 -17.0 -1.75 -19.15 8.35 -21.2 16.2 -14.05 L16.45 -11.5 15.85 -10.25 14.7 -12.1 14.2 -10.4 14.7 -8.1 12.5 -5.2 16.0 -4.2 15.55 -2.75 13.5 -4.25 10.35 -2.5 12.9 -2.85 10.1 -0.9 11.9 -0.5 10.9 0.4 11.65 2.8 8.65 3.8 8.05 5.85 5.8 5.85 7.75 8.45 5.95 8.05 4.45 9.1 6.6 10.35 5.15 11.75 3.65 8.75 4.55 7.1 0.95 8.45 3.0 10.0 -0.2 10.7 0.15 8.35 -3.15 8.6 -3.75 12.5 -3.7 11.8 Q-5.35 12.65 -7.05 14.2 L-8.35 12.45 -8.2 8.85 -11.25 10.8 -9.85 13.0 -11.45 14.45 -13.6 13.15 -15.5 14.0 -17.95 11.85 M3.7 -15.55 Q3.7 -15.35 3.85 -15.2 3.95 -15.1 4.15 -15.1 L4.5 -15.2 4.6 -15.55 4.5 -15.85 4.15 -16.0 3.85 -15.85 3.7 -15.55 M0.5 -17.1 L0.05 -16.95 -0.15 -16.6 0.05 -16.25 0.5 -16.1 0.95 -16.25 1.15 -16.6 0.95 -16.95 0.5 -17.1 M4.7 -14.2 L4.3 -14.1 2.95 -14.6 0.85 -13.1 3.75 -12.45 3.9 -11.9 5.25 -7.1 8.2 -10.5 Q8.35 -10.35 8.55 -10.35 9.7 -10.35 9.2 -11.25 L10.65 -12.4 7.4 -17.5 6.8 -15.35 8.05 -13.75 6.8 -14.8 Q6.55 -15.35 5.6 -15.3 4.65 -15.15 4.7 -14.2 M5.75 -16.45 L5.65 -16.65 5.45 -16.75 5.25 -16.65 5.15 -16.45 5.25 -16.25 Q5.35 -16.15 5.45 -16.15 5.55 -16.15 5.65 -16.25 L5.75 -16.45 M5.75 -17.75 L5.85 -17.85 6.0 -18.05 6.0 -18.15 5.6 -18.45 5.5 -18.4 Q5.2 -18.3 5.25 -18.0 L5.6 -17.7 5.75 -17.75 M5.3 -10.3 L5.1 -10.3 5.25 -10.4 5.3 -10.3 M5.5 -10.5 L5.55 -10.55 5.6 -10.5 5.5 -10.5 M8.45 -8.55 L8.05 -8.7 7.65 -8.55 7.5 -8.15 Q7.5 -7.9 7.65 -7.75 L8.05 -7.6 Q8.3 -7.6 8.45 -7.75 L8.6 -8.15 8.45 -8.55 M6.75 -6.35 L6.95 -6.65 6.9 -6.75 6.5 -7.05 6.2 -6.9 6.15 -6.65 6.2 -6.45 6.5 -6.25 6.75 -6.35 M7.65 -6.4 L7.85 -5.95 8.05 -6.4 7.65 -6.4 M9.7 -6.25 L9.5 -6.35 9.3 -6.25 9.2 -6.05 9.3 -5.85 9.5 -5.75 9.7 -5.85 9.8 -6.05 9.7 -6.25 M9.55 -7.3 Q9.4 -6.55 10.2 -6.6 L10.4 -6.75 10.55 -7.15 10.5 -7.25 10.0 -7.6 9.85 -7.55 9.55 -7.3 M7.4 -10.4 Q7.35 -10.55 7.6 -10.5 7.75 -9.8 7.4 -10.4 M10.1 -8.95 L10.6 -9.15 Q11.75 -10.0 10.4 -10.6 9.8 -10.4 9.45 -9.8 8.95 -8.85 10.1 -8.95 M3.1 -11.65 L3.2 -11.85 Q2.65 -12.1 3.1 -11.65 M3.6 -9.8 L3.6 -9.9 Q3.3 -10.6 2.5 -10.45 L2.0 -10.25 1.8 -10.05 Q1.7 -9.8 1.9 -9.6 3.0 -8.6 3.6 -9.8 M1.95 -11.65 L1.65 -11.8 1.4 -11.65 1.25 -11.4 1.4 -11.1 1.65 -11.0 1.95 -11.1 2.05 -11.4 1.95 -11.65 M1.6 -7.45 L1.8 -7.25 2.55 -7.15 Q3.95 -8.0 2.65 -8.7 2.0 -8.5 1.55 -7.9 L1.55 -7.8 1.55 -7.55 1.6 -7.45 M3.2 -5.6 L2.8 -5.8 Q2.55 -5.8 2.4 -5.6 L2.25 -5.2 Q2.25 -4.95 2.4 -4.75 2.55 -4.6 2.8 -4.6 L3.2 -4.75 3.35 -5.2 3.2 -5.6 M0.95 -1.8 L0.75 -1.4 0.95 -0.95 Q1.1 -0.8 1.35 -0.8 L1.8 -0.95 1.95 -1.4 1.8 -1.8 1.35 -2.0 0.95 -1.8 M9.55 -3.85 Q8.4 -5.4 9.1 -3.85 L9.55 -3.85 M6.85 -0.9 Q6.3 -0.7 6.45 -0.1 7.05 0.4 7.85 0.4 8.3 0.4 8.35 -0.05 8.45 -1.0 7.25 -1.0 L6.85 -0.9 M8.15 -2.15 Q9.05 -2.85 8.1 -3.35 L6.85 -3.15 Q6.15 -3.1 6.3 -2.4 6.75 -1.5 7.7 -1.9 L8.15 -2.15 M9.0 -0.15 Q9.35 0.95 10.0 0.1 L10.0 0.0 Q9.85 -0.5 9.25 -0.45 L9.15 -0.4 9.1 -0.35 9.0 -0.3 9.0 -0.15 M16.4 -9.3 Q16.3 -10.2 17.25 -10.25 18.35 -9.75 17.3 -9.15 16.75 -8.8 16.4 -9.3 M17.9 -11.55 L17.95 -11.45 Q17.8 -10.45 16.85 -11.35 L16.9 -11.55 17.0 -11.8 17.1 -11.8 17.25 -11.85 17.9 -11.55 M17.4 -7.5 L17.7 -7.75 17.9 -7.75 Q18.2 -7.7 18.35 -7.4 L18.4 -7.35 18.25 -6.95 18.05 -6.8 Q17.25 -6.75 17.4 -7.5 M12.25 -11.2 L12.05 -11.65 11.6 -11.85 Q11.35 -11.85 11.15 -11.65 L10.95 -11.2 11.15 -10.75 Q11.35 -10.55 11.6 -10.55 L12.05 -10.75 12.25 -11.2 M12.2 -10.25 L11.95 -10.1 11.8 -9.85 11.95 -9.55 Q12.05 -9.45 12.2 -9.45 L12.5 -9.55 12.6 -9.85 12.5 -10.1 12.2 -10.25 M15.0 -6.55 L14.65 -6.5 14.45 -6.7 Q14.5 -7.35 14.7 -8.0 L15.0 -6.55 M15.6 4.85 L15.75 4.6 Q15.85 4.45 16.0 4.45 16.15 4.45 16.3 4.6 L16.4 4.85 16.3 5.15 16.0 5.25 15.75 5.15 15.6 4.85 M17.85 1.65 L17.95 1.9 17.85 2.15 17.5 2.25 17.2 2.15 17.05 1.9 17.2 1.65 Q17.3 1.55 17.5 1.55 L17.85 1.65 M15.65 -0.05 L15.8 -0.3 Q15.9 -0.45 16.05 -0.45 L16.35 -0.3 16.45 -0.05 16.35 0.25 16.05 0.35 15.8 0.25 15.65 -0.05 M17.25 -2.4 Q17.05 -2.55 17.15 -2.8 17.35 -3.3 17.9 -3.35 18.3 -3.4 18.45 -3.0 L18.5 -2.95 Q18.1 -1.8 17.25 -2.4 M16.1 -4.0 L16.25 -4.25 16.5 -4.4 16.8 -4.25 16.9 -4.0 16.8 -3.7 16.5 -3.6 Q16.35 -3.6 16.25 -3.7 L16.1 -4.0 M17.15 -6.1 L17.15 -5.65 16.75 -5.65 16.75 -6.1 17.15 -6.1 M18.05 -4.35 L18.2 -4.6 18.45 -4.75 18.75 -4.6 18.85 -4.35 18.75 -4.05 18.45 -3.95 Q18.3 -3.95 18.2 -4.05 L18.05 -4.35 M14.0 -0.35 Q13.2 -0.25 13.35 -1.05 L13.65 -1.25 13.85 -1.3 14.3 -0.95 14.35 -0.85 14.2 -0.5 14.0 -0.35 M14.6 2.55 Q14.75 2.55 14.9 2.7 L15.0 2.95 14.9 3.25 14.6 3.35 14.35 3.25 14.2 2.95 14.35 2.7 14.6 2.55 M13.1 0.85 L13.3 0.75 Q14.4 1.2 13.5 1.95 L13.05 2.0 Q12.2 1.35 13.1 0.85 M10.15 1.65 Q9.1 1.75 8.75 2.7 9.3 3.8 10.4 2.85 11.25 2.1 10.15 1.65 M13.3 5.0 L13.6 4.75 Q13.8 4.6 13.9 4.6 15.3 4.85 14.35 5.7 L13.9 5.9 Q12.95 5.95 13.3 5.0 M12.0 5.95 L11.75 6.15 Q10.45 6.65 10.2 5.4 10.15 4.9 10.65 4.6 L11.4 4.3 Q12.65 4.85 12.0 5.95 M12.45 3.85 L12.5 3.65 12.8 3.5 13.1 3.75 13.15 3.85 12.95 4.1 12.8 4.2 12.5 4.05 12.45 3.85 M10.75 8.15 Q10.6 7.65 11.0 7.35 11.35 7.1 11.7 7.1 12.95 7.65 11.8 8.45 11.0 9.0 10.75 8.15 M5.95 1.35 Q5.65 1.35 5.55 1.6 L5.5 1.8 5.55 1.95 5.95 2.2 6.15 2.15 6.4 1.8 6.35 1.7 Q6.25 1.35 5.95 1.35 M6.5 4.05 Q7.4 3.35 6.35 2.85 5.35 3.05 5.3 4.05 5.65 4.4 6.1 4.25 L6.5 4.05 M4.75 1.65 L4.7 1.55 Q4.6 1.15 4.1 1.2 3.15 1.15 2.7 1.95 L2.7 2.0 Q3.95 3.2 4.75 1.65 M1.25 5.7 Q1.95 4.6 0.65 4.35 L0.15 4.5 Q-0.9 5.15 0.15 5.9 0.8 6.35 1.25 5.7 M3.8 4.3 L3.8 4.35 Q2.35 4.65 2.35 6.05 2.7 6.7 3.4 6.45 L4.3 5.8 Q5.05 4.65 3.8 4.3 M3.05 3.5 L3.05 3.45 Q2.9 3.1 2.55 3.1 2.15 3.1 2.0 3.45 2.05 4.15 2.75 4.05 L2.95 3.9 3.05 3.5 M9.95 11.05 L9.8 11.5 9.4 11.65 9.0 11.5 8.85 11.05 Q8.85 10.8 9.0 10.65 9.15 10.45 9.4 10.45 L9.8 10.65 9.95 11.05 M8.5 8.3 L8.35 8.15 Q8.15 7.55 8.7 7.35 L8.9 7.3 Q9.95 7.75 9.0 8.35 L8.5 8.3 M1.55 10.65 Q3.1 10.65 2.45 11.9 2.3 12.2 1.95 12.2 0.35 12.2 1.05 10.95 L1.55 10.65 M6.7 13.05 L6.7 13.5 6.3 13.5 6.3 13.05 6.7 13.05 M0.55 14.1 Q0.95 14.15 1.0 14.55 L1.0 14.65 Q0.55 15.45 -0.3 14.8 L-0.3 14.7 -0.3 14.4 Q0.05 14.05 0.55 14.1 M4.6 12.5 L4.65 12.6 Q4.3 13.65 3.4 12.9 L3.35 12.8 3.4 12.5 Q3.65 12.1 4.1 12.05 L4.6 12.5 M-9.75 -14.65 L-13.9 -9.3 -1.05 -15.6 -0.7 -17.15 -2.6 -17.05 -2.1 -15.7 -5.8 -16.3 -9.75 -14.65 M-4.1 -12.85 Q-3.7 -13.05 -3.4 -13.3 -2.05 -14.35 -4.1 -12.85 M-13.75 -10.95 L-13.75 -11.05 -13.8 -11.15 Q-13.9 -11.4 -14.15 -11.45 L-14.95 -11.25 -15.05 -11.05 -15.15 -10.75 Q-14.55 -10.15 -13.85 -10.75 L-13.75 -10.95 M-12.95 -7.9 L-12.95 -8.1 -12.9 -8.3 -12.95 -8.4 Q-13.1 -8.85 -13.55 -8.8 -14.25 -8.65 -14.75 -8.1 L-14.8 -7.9 -14.75 -7.65 Q-13.7 -6.65 -12.95 -7.9 M-12.35 -7.8 L-12.2 -7.45 -11.85 -7.3 Q-11.65 -7.3 -11.5 -7.45 L-11.35 -7.8 -11.5 -8.15 Q-11.65 -8.3 -11.85 -8.3 L-12.2 -8.15 -12.35 -7.8 M-11.15 -6.35 L-11.3 -6.05 -11.15 -5.7 -10.85 -5.6 -10.5 -5.7 -10.4 -6.05 -10.5 -6.35 -10.85 -6.5 -11.15 -6.35 M-15.2 -8.6 L-15.1 -8.95 -15.2 -9.25 -15.55 -9.4 -15.85 -9.25 -16.0 -8.95 -15.85 -8.6 -15.55 -8.5 -15.2 -8.6 M-16.85 -7.0 L-17.05 -6.85 Q-16.85 -6.2 -16.5 -6.85 -16.35 -7.15 -16.85 -7.0 M-17.3 -1.85 L-17.3 -1.4 -16.9 -1.4 -16.9 -1.85 -17.3 -1.85 M-4.75 -10.5 L-4.15 -10.35 -3.55 -10.5 -3.3 -10.95 -3.55 -11.35 Q-3.8 -11.55 -4.15 -11.55 L-4.75 -11.35 -5.0 -10.95 -4.75 -10.5 M-0.85 -7.8 Q-0.7 -7.95 -0.7 -8.15 L-0.85 -8.5 -1.2 -8.65 -1.55 -8.5 -1.7 -8.15 -1.55 -7.8 Q-1.4 -7.65 -1.2 -7.65 -1.0 -7.65 -0.85 -7.8 M-8.3 -9.85 Q-9.3 -9.9 -10.1 -9.3 L-9.85 -8.9 Q-8.35 -8.0 -7.95 -9.55 L-8.0 -9.65 -8.3 -9.85 M-5.3 -1.95 L-5.4 -1.9 -5.55 -1.75 -5.6 -1.3 Q-5.0 -0.75 -4.7 -1.45 L-4.7 -1.55 Q-4.75 -1.95 -5.15 -2.0 L-5.15 -1.95 -5.3 -1.95 M-3.25 -4.6 L-3.5 -4.45 -3.55 -4.25 -3.5 -4.05 -3.25 -3.9 -3.05 -4.0 Q-2.9 -4.1 -2.9 -4.25 L-2.9 -4.35 -3.25 -4.6 M-1.4 1.6 Q-0.8 0.2 -2.35 0.1 L-2.55 0.15 -2.6 0.15 -2.7 0.25 -2.85 0.4 Q-3.1 1.95 -1.5 1.65 L-1.4 1.6 M-3.7 5.9 L-3.2 5.75 -3.0 5.3 -3.2 4.9 Q-3.4 4.7 -3.7 4.7 L-4.2 4.9 -4.4 5.3 -4.2 5.75 -3.7 5.9 M-1.25 3.65 L-1.3 3.55 Q-1.35 3.15 -1.75 3.1 L-1.75 3.15 -1.9 3.15 -1.95 3.15 -2.1 3.35 -2.2 3.8 Q-1.6 4.35 -1.25 3.65 M-8.85 2.65 L-9.2 2.85 -9.35 3.35 -9.2 3.85 -8.85 4.05 -8.5 3.85 -8.35 3.35 Q-8.35 3.05 -8.5 2.85 -8.65 2.65 -8.85 2.65 M-9.85 1.9 L-9.85 1.8 Q-10.0 1.5 -10.35 1.45 L-10.55 1.5 -10.8 1.7 Q-10.95 2.5 -10.15 2.4 L-10.0 2.25 -9.85 1.9 M-8.1 5.15 Q-7.1 5.7 -6.7 4.55 L-6.7 4.45 Q-6.85 4.15 -7.2 4.1 L-7.6 4.2 Q-8.2 4.45 -8.1 5.15 M-8.15 6.2 L-8.45 6.35 -8.6 6.6 -8.45 6.9 -8.15 7.0 -7.8 6.9 -7.7 6.6 -7.8 6.35 Q-7.95 6.2 -8.15 6.2 M-6.65 10.6 Q-8.9 11.35 -6.75 11.15 L-6.65 10.6 M-4.8 8.65 L-5.4 9.5 Q-5.4 10.25 -4.55 10.05 -3.8 10.0 -3.35 9.15 L-3.4 8.45 -4.8 8.65 M-13.45 5.6 Q-14.15 5.9 -14.25 6.7 L-14.1 6.85 -12.95 6.8 Q-12.1 5.95 -13.25 5.55 L-13.45 5.6 M-17.85 6.0 Q-17.6 6.0 -17.4 5.8 L-17.25 5.35 Q-17.25 5.1 -17.4 4.9 -17.6 4.7 -17.85 4.7 L-18.25 4.9 -18.45 5.35 -18.25 5.8 Q-18.1 6.0 -17.85 6.0 M-16.75 11.85 L-14.55 11.8 -15.8 10.25 -17.7 10.7 -16.75 11.85 M-11.75 7.35 Q-11.85 6.95 -12.25 6.9 L-12.7 7.25 -12.75 7.55 -12.6 7.8 -12.55 7.9 -12.35 8.0 -11.75 7.45 -11.75 7.35 M-14.9 8.7 Q-15.7 9.5 -14.65 10.0 L-14.15 9.9 Q-13.2 8.95 -14.5 8.5 L-14.9 8.7 M-14.75 7.3 L-14.95 7.35 Q-15.25 7.35 -15.35 7.65 L-15.1 8.3 -14.6 8.35 Q-13.75 7.75 -14.75 7.3 M-13.75 12.1 L-14.1 12.75 -12.25 12.9 -12.1 12.2 Q-12.7 11.8 -13.3 11.75 -13.8 11.6 -13.75 12.1 M-13.15 9.95 L-13.4 9.95 Q-13.95 10.35 -13.6 10.9 L-12.95 11.0 Q-12.05 10.35 -13.15 9.9 L-13.15 9.95 M-10.85 10.05 Q-9.8 9.1 -11.25 8.65 L-12.4 9.35 -12.45 9.85 Q-11.9 11.0 -10.85 10.05 M-12.75 16.85 L-13.4 16.6 -13.45 16.4 -13.4 16.2 -13.1 16.05 Q-12.65 16.05 -12.45 16.4 L-12.4 16.5 -12.5 16.65 -12.75 16.85 M-10.8 15.2 L-10.6 15.2 Q-10.2 15.25 -10.1 15.65 L-10.1 15.75 Q-10.45 16.9 -11.3 16.0 L-11.3 15.65 Q-11.1 15.35 -10.8 15.2 M-12.2 14.5 L-12.2 14.95 -12.75 14.95 -12.75 14.5 -12.2 14.5 M-3.95 13.0 L-3.65 12.95 Q-2.55 13.4 -3.5 14.05 L-4.15 13.95 Q-4.5 13.4 -3.95 13.0 M-3.05 14.9 Q-2.65 14.95 -2.55 15.35 L-2.55 15.45 Q-2.85 16.15 -3.45 15.6 L-3.4 15.15 -3.25 14.95 -3.2 14.95 -3.05 14.9 M-1.15 14.15 Q-2.45 14.35 -2.1 13.15 L-1.85 12.8 -0.6 12.3 Q0.7 12.65 -0.1 13.6 -0.5 14.1 -1.15 14.15 M-9.25 14.4 L-9.15 14.4 -8.95 14.35 Q-7.8 14.75 -8.7 15.45 L-9.2 15.5 -9.5 15.2 -9.45 14.65 -9.25 14.4 M-5.9 15.0 Q-5.65 15.0 -5.5 15.2 L-5.35 15.6 -5.5 16.05 -5.9 16.2 -6.3 16.05 -6.45 15.6 -6.3 15.2 -5.9 15.0" fill="#ffa004" fill-rule="evenodd" stroke="none"/>
      <path d="M10.5 -13.05 Q8.85 -15.9 10.5 -14.4 11.8 -13.15 10.5 -13.05 M11.2 -12.6 L11.2 -12.7 11.2 -12.8 Q11.5 -13.3 12.05 -13.35 13.3 -12.85 12.2 -12.1 11.9 -11.85 11.6 -12.1 L11.25 -12.45 11.2 -12.6 M14.7 -14.3 L14.85 -14.35 15.55 -13.9 15.6 -13.8 Q15.3 -12.85 14.4 -13.4 L14.35 -13.8 14.4 -14.05 14.7 -14.3 M17.15 -13.05 L18.75 -10.3 18.5 -9.2 19.25 -9.15 Q21.3 -4.05 20.75 1.8 20.35 6.1 18.5 9.65 17.95 9.9 17.85 10.1 L18.35 10.0 18.05 10.5 11.25 16.4 9.2 17.8 6.15 17.1 2.65 19.9 0.9 18.5 -1.6 18.3 -4.65 20.8 -5.1 20.75 -4.95 20.65 -5.2 20.7 Q-8.35 20.1 -11.25 18.4 -14.85 16.35 -17.15 13.15 L-17.05 13.05 -17.2 13.05 -17.95 11.85 -15.5 14.0 -13.6 13.15 -11.45 14.45 -9.85 13.0 -11.25 10.8 -8.2 8.85 -8.35 12.45 -7.05 14.2 Q-5.35 12.65 -3.7 11.8 L-3.75 12.5 -3.15 8.6 0.15 8.35 -0.2 10.7 3.0 10.0 0.95 8.45 4.55 7.1 3.65 8.75 5.15 11.75 6.6 10.35 4.45 9.1 5.95 8.05 7.75 8.45 5.8 5.85 8.05 5.85 8.65 3.8 11.65 2.8 10.9 0.4 11.9 -0.5 10.1 -0.9 12.9 -2.85 10.35 -2.5 13.5 -4.25 15.55 -2.75 16.0 -4.2 12.5 -5.2 14.7 -8.1 14.2 -10.4 14.7 -12.1 15.85 -10.25 16.45 -11.5 16.2 -14.05 16.8 -13.45 16.9 -13.15 17.15 -13.05 M15.9 13.45 L15.4 14.0 15.3 13.55 15.9 13.45 M-19.15 9.6 L-19.5 8.7 Q-19.5 7.7 -18.2 7.55 -16.2 7.35 -16.7 9.7 L-19.15 9.6 M3.7 -15.55 L3.85 -15.85 4.15 -16.0 4.5 -15.85 4.6 -15.55 4.5 -15.2 4.15 -15.1 Q3.95 -15.1 3.85 -15.2 3.7 -15.35 3.7 -15.55 M8.55 -12.7 L8.75 -13.15 8.05 -13.75 6.8 -15.35 7.4 -17.5 10.65 -12.4 9.2 -11.25 8.9 -11.45 Q7.5 -11.6 8.2 -10.5 L5.25 -7.1 3.9 -11.9 4.15 -11.6 Q4.5 -11.25 5.0 -11.25 L4.85 -10.7 5.75 -10.65 5.55 -10.55 5.5 -10.5 5.25 -10.4 5.1 -10.3 5.3 -10.3 8.0 -11.45 8.2 -11.75 Q8.7 -11.45 9.05 -12.15 L9.0 -12.25 8.55 -12.7 M6.8 -14.8 L4.7 -14.2 Q4.65 -15.15 5.6 -15.3 6.55 -15.35 6.8 -14.8 M4.3 -14.1 L4.15 -12.9 3.75 -12.45 0.85 -13.1 2.95 -14.6 4.3 -14.1 M5.75 -17.75 L5.6 -17.7 5.25 -18.0 Q5.2 -18.3 5.5 -18.4 L5.6 -18.45 6.0 -18.15 6.0 -18.05 5.85 -17.85 5.75 -17.75 M5.75 -16.45 L5.65 -16.25 Q5.55 -16.15 5.45 -16.15 5.35 -16.15 5.25 -16.25 L5.15 -16.45 5.25 -16.65 5.45 -16.75 5.65 -16.65 5.75 -16.45 M6.75 -6.35 L6.5 -6.25 6.2 -6.45 6.15 -6.65 6.2 -6.9 6.5 -7.05 6.9 -6.75 6.95 -6.65 6.75 -6.35 M8.45 -8.55 L8.6 -8.15 8.45 -7.75 Q8.3 -7.6 8.05 -7.6 L7.65 -7.75 Q7.5 -7.9 7.5 -8.15 L7.65 -8.55 8.05 -8.7 8.45 -8.55 M7.65 -6.4 L8.05 -6.4 7.85 -5.95 7.65 -6.4 M9.7 -6.25 L9.8 -6.05 9.7 -5.85 9.5 -5.75 9.3 -5.85 9.2 -6.05 9.3 -6.25 9.5 -6.35 9.7 -6.25 M9.55 -7.3 L9.85 -7.55 10.0 -7.6 10.5 -7.25 10.55 -7.15 10.4 -6.75 10.2 -6.6 Q9.4 -6.55 9.55 -7.3 M7.4 -10.4 Q7.75 -9.8 7.6 -10.5 7.35 -10.55 7.4 -10.4 M10.1 -8.95 Q8.95 -8.85 9.45 -9.8 9.8 -10.4 10.4 -10.6 11.75 -10.0 10.6 -9.15 L10.1 -8.95 M3.1 -11.65 Q2.65 -12.1 3.2 -11.85 L3.1 -11.65 M3.6 -9.8 Q3.0 -8.6 1.9 -9.6 1.7 -9.8 1.8 -10.05 L2.0 -10.25 2.5 -10.45 Q3.3 -10.6 3.6 -9.9 L3.6 -9.8 M1.95 -11.65 L2.05 -11.4 1.95 -11.1 1.65 -11.0 1.4 -11.1 1.25 -11.4 1.4 -11.65 1.65 -11.8 1.95 -11.65 M1.6 -7.45 L1.55 -7.55 1.55 -7.8 1.55 -7.9 Q2.0 -8.5 2.65 -8.7 3.95 -8.0 2.55 -7.15 L1.8 -7.25 1.6 -7.45 M9.0 -0.15 L9.0 -0.3 9.1 -0.35 9.15 -0.4 9.25 -0.45 Q9.85 -0.5 10.0 0.0 L10.0 0.1 Q9.35 0.95 9.0 -0.15 M8.15 -2.15 L7.7 -1.9 Q6.75 -1.5 6.3 -2.4 6.15 -3.1 6.85 -3.15 L8.1 -3.35 Q9.05 -2.85 8.15 -2.15 M6.85 -0.9 L7.25 -1.0 Q8.45 -1.0 8.35 -0.05 8.3 0.4 7.85 0.4 7.05 0.4 6.45 -0.1 6.3 -0.7 6.85 -0.9 M9.55 -3.85 L9.1 -3.85 Q8.4 -5.4 9.55 -3.85 M0.95 -1.8 L1.35 -2.0 1.8 -1.8 1.95 -1.4 1.8 -0.95 1.35 -0.8 Q1.1 -0.8 0.95 -0.95 L0.75 -1.4 0.95 -1.8 M3.2 -5.6 L3.35 -5.2 3.2 -4.75 2.8 -4.6 Q2.55 -4.6 2.4 -4.75 2.25 -4.95 2.25 -5.2 L2.4 -5.6 Q2.55 -5.8 2.8 -5.8 L3.2 -5.6 M17.9 -11.55 L17.25 -11.85 17.1 -11.8 17.0 -11.8 16.9 -11.55 16.85 -11.35 Q17.8 -10.45 17.95 -11.45 L17.9 -11.55 M16.4 -9.3 Q16.75 -8.8 17.3 -9.15 18.35 -9.75 17.25 -10.25 16.3 -10.2 16.4 -9.3 M17.4 -7.5 Q17.25 -6.75 18.05 -6.8 L18.25 -6.95 18.4 -7.35 18.35 -7.4 Q18.2 -7.7 17.9 -7.75 L17.7 -7.75 17.4 -7.5 M12.25 -11.2 L12.05 -10.75 11.6 -10.55 Q11.35 -10.55 11.15 -10.75 L10.95 -11.2 11.15 -11.65 Q11.35 -11.85 11.6 -11.85 L12.05 -11.65 12.25 -11.2 M15.0 -6.55 L14.7 -8.0 Q14.5 -7.35 14.45 -6.7 L14.65 -6.5 15.0 -6.55 M12.2 -10.25 L12.5 -10.1 12.6 -9.85 12.5 -9.55 12.2 -9.45 Q12.05 -9.45 11.95 -9.55 L11.8 -9.85 11.95 -10.1 12.2 -10.25 M14.0 -0.35 L14.2 -0.5 14.35 -0.85 14.3 -0.95 13.85 -1.3 13.65 -1.25 13.35 -1.05 Q13.2 -0.25 14.0 -0.35 M18.05 -4.35 L18.2 -4.05 Q18.3 -3.95 18.45 -3.95 L18.75 -4.05 18.85 -4.35 18.75 -4.6 18.45 -4.75 18.2 -4.6 18.05 -4.35 M17.15 -6.1 L16.75 -6.1 16.75 -5.65 17.15 -5.65 17.15 -6.1 M16.1 -4.0 L16.25 -3.7 Q16.35 -3.6 16.5 -3.6 L16.8 -3.7 16.9 -4.0 16.8 -4.25 16.5 -4.4 16.25 -4.25 16.1 -4.0 M17.25 -2.4 Q18.1 -1.8 18.5 -2.95 L18.45 -3.0 Q18.3 -3.4 17.9 -3.35 17.35 -3.3 17.15 -2.8 17.05 -2.55 17.25 -2.4 M15.65 -0.05 L15.8 0.25 16.05 0.35 16.35 0.25 16.45 -0.05 16.35 -0.3 16.05 -0.45 Q15.9 -0.45 15.8 -0.3 L15.65 -0.05 M17.85 1.65 L17.5 1.55 Q17.3 1.55 17.2 1.65 L17.05 1.9 17.2 2.15 17.5 2.25 17.85 2.15 17.95 1.9 17.85 1.65 M15.6 4.85 L15.75 5.15 16.0 5.25 16.3 5.15 16.4 4.85 16.3 4.6 Q16.15 4.45 16.0 4.45 15.85 4.45 15.75 4.6 L15.6 4.85 M17.75 6.15 Q17.55 6.4 17.65 6.7 18.35 7.3 18.7 6.5 L18.7 6.4 Q18.6 5.95 18.15 5.9 L18.0 5.95 17.9 5.95 17.75 6.15 M13.1 0.85 Q12.2 1.35 13.05 2.0 L13.5 1.95 Q14.4 1.2 13.3 0.75 L13.1 0.85 M14.6 2.55 L14.35 2.7 14.2 2.95 14.35 3.25 14.6 3.35 14.9 3.25 15.0 2.95 14.9 2.7 Q14.75 2.55 14.6 2.55 M10.15 1.65 Q11.25 2.1 10.4 2.85 9.3 3.8 8.75 2.7 9.1 1.75 10.15 1.65 M12.45 3.85 L12.5 4.05 12.8 4.2 12.95 4.1 13.15 3.85 13.1 3.75 12.8 3.5 12.5 3.65 12.45 3.85 M12.0 5.95 Q12.65 4.85 11.4 4.3 L10.65 4.6 Q10.15 4.9 10.2 5.4 10.45 6.65 11.75 6.15 L12.0 5.95 M13.3 5.0 Q12.95 5.95 13.9 5.9 L14.35 5.7 Q15.3 4.85 13.9 4.6 13.8 4.6 13.6 4.75 L13.3 5.0 M14.4 8.6 L14.5 8.8 14.7 8.9 14.9 8.8 15.0 8.6 14.9 8.4 14.7 8.3 14.5 8.4 14.4 8.6 M10.75 8.15 Q11.0 9.0 11.8 8.45 12.95 7.65 11.7 7.1 11.35 7.1 11.0 7.35 10.6 7.65 10.75 8.15 M11.6 12.2 Q11.75 12.6 12.1 12.45 L12.2 12.4 12.35 12.2 12.3 12.1 12.0 11.8 11.85 11.85 Q11.55 11.95 11.6 12.2 M13.7 11.2 L14.2 11.2 14.2 10.75 13.7 10.75 13.7 11.2 M15.3 9.6 L15.35 9.75 16.8 9.8 16.75 9.7 Q16.45 9.25 15.85 9.2 15.65 9.25 15.5 9.4 L15.3 9.6 M3.05 3.5 L2.95 3.9 2.75 4.05 Q2.05 4.15 2.0 3.45 2.15 3.1 2.55 3.1 2.9 3.1 3.05 3.45 L3.05 3.5 M3.8 4.3 Q5.05 4.65 4.3 5.8 L3.4 6.45 Q2.7 6.7 2.35 6.05 2.35 4.65 3.8 4.35 L3.8 4.3 M1.25 5.7 Q0.8 6.35 0.15 5.9 -0.9 5.15 0.15 4.5 L0.65 4.35 Q1.95 4.6 1.25 5.7 M4.75 1.65 Q3.95 3.2 2.7 2.0 L2.7 1.95 Q3.15 1.15 4.1 1.2 4.6 1.15 4.7 1.55 L4.75 1.65 M6.5 4.05 L6.1 4.25 Q5.65 4.4 5.3 4.05 5.35 3.05 6.35 2.85 7.4 3.35 6.5 4.05 M5.95 1.35 Q6.25 1.35 6.35 1.7 L6.4 1.8 6.15 2.15 5.95 2.2 5.55 1.95 5.5 1.8 5.55 1.6 Q5.65 1.35 5.95 1.35 M1.55 10.65 L1.05 10.95 Q0.35 12.2 1.95 12.2 2.3 12.2 2.45 11.9 3.1 10.65 1.55 10.65 M8.5 8.3 L9.0 8.35 Q9.95 7.75 8.9 7.3 L8.7 7.35 Q8.15 7.55 8.35 8.15 L8.5 8.3 M9.95 11.05 L9.8 10.65 9.4 10.45 Q9.15 10.45 9.0 10.65 8.85 10.8 8.85 11.05 L9.0 11.5 9.4 11.65 9.8 11.5 9.95 11.05 M10.1 13.8 L10.3 13.65 10.45 13.2 10.4 13.1 Q10.25 12.75 9.9 12.7 L9.65 12.75 9.35 13.05 Q9.2 13.9 10.1 13.8 M6.7 13.05 L6.3 13.05 6.3 13.5 6.7 13.5 6.7 13.05 M7.05 15.95 L6.95 15.65 6.6 15.5 Q6.4 15.5 6.3 15.65 L6.15 15.95 6.3 16.3 6.6 16.4 6.95 16.3 7.05 15.95 M7.55 16.25 Q8.45 16.95 8.95 16.05 L8.95 15.95 Q8.75 15.3 8.05 15.45 L7.85 15.5 7.8 15.5 Q7.5 15.7 7.5 16.0 L7.55 16.25 M4.6 12.5 L4.1 12.05 Q3.65 12.1 3.4 12.5 L3.35 12.8 3.4 12.9 Q4.3 13.65 4.65 12.6 L4.6 12.5 M0.55 14.1 Q0.05 14.05 -0.3 14.4 L-0.3 14.7 -0.3 14.8 Q0.55 15.45 1.0 14.65 L1.0 14.55 Q0.95 14.15 0.55 14.1 M2.1 17.25 Q1.85 18.2 2.8 18.35 L3.15 18.25 Q4.35 17.35 2.8 16.85 2.6 16.85 2.4 17.0 L2.1 17.25 M0.3 19.25 L0.35 19.25 Q0.9 19.3 1.1 19.85 L1.1 19.95 -0.2 19.9 -0.1 19.5 0.1 19.35 0.3 19.25 M12.75 13.3 L13.15 13.7 13.45 13.45 13.45 13.3 13.35 13.1 13.15 13.05 13.0 13.05 Q12.75 13.05 12.75 13.3 M-4.8 -14.55 L-4.5 -14.55 -4.65 -14.3 -4.8 -14.55 M-11.15 -6.35 L-10.85 -6.5 -10.5 -6.35 -10.4 -6.05 -10.5 -5.7 -10.85 -5.6 -11.15 -5.7 -11.3 -6.05 -11.15 -6.35 M-17.3 -1.85 L-16.9 -1.85 -16.9 -1.4 -17.3 -1.4 -17.3 -1.85 M-0.85 -7.8 Q-1.0 -7.65 -1.2 -7.65 -1.4 -7.65 -1.55 -7.8 L-1.7 -8.15 -1.55 -8.5 -1.2 -8.65 -0.85 -8.5 -0.7 -8.15 Q-0.7 -7.95 -0.85 -7.8 M-10.85 10.05 Q-11.9 11.0 -12.45 9.85 L-12.4 9.35 -11.25 8.65 Q-9.8 9.1 -10.85 10.05 M-13.15 9.95 L-13.15 9.9 Q-12.05 10.35 -12.95 11.0 L-13.6 10.9 Q-13.95 10.35 -13.4 9.95 L-13.15 9.95 M-13.75 12.1 Q-13.8 11.6 -13.3 11.75 -12.7 11.8 -12.1 12.2 L-12.25 12.9 -14.1 12.75 -13.75 12.1 M-14.75 7.3 Q-13.75 7.75 -14.6 8.35 L-15.1 8.3 -15.35 7.65 Q-15.25 7.35 -14.95 7.35 L-14.75 7.3 M-14.9 8.7 L-14.5 8.5 Q-13.2 8.95 -14.15 9.9 L-14.65 10.0 Q-15.7 9.5 -14.9 8.7 M-11.75 7.35 L-11.75 7.45 -12.35 8.0 -12.55 7.9 -12.6 7.8 -12.75 7.55 -12.7 7.25 -12.25 6.9 Q-11.85 6.95 -11.75 7.35 M-16.75 11.85 L-17.7 10.7 -15.8 10.25 -14.55 11.8 -16.75 11.85 M-17.85 6.0 Q-18.1 6.0 -18.25 5.8 L-18.45 5.35 -18.25 4.9 -17.85 4.7 Q-17.6 4.7 -17.4 4.9 -17.25 5.1 -17.25 5.35 L-17.4 5.8 Q-17.6 6.0 -17.85 6.0 M-13.45 5.6 L-13.25 5.55 Q-12.1 5.95 -12.95 6.8 L-14.1 6.85 -14.25 6.7 Q-14.15 5.9 -13.45 5.6 M-4.8 8.65 L-3.4 8.45 -3.35 9.15 Q-3.8 10.0 -4.55 10.05 -5.4 10.25 -5.4 9.5 L-4.8 8.65 M-6.65 10.6 L-6.75 11.15 Q-8.9 11.35 -6.65 10.6 M-8.15 6.2 Q-7.95 6.2 -7.8 6.35 L-7.7 6.6 -7.8 6.9 -8.15 7.0 -8.45 6.9 -8.6 6.6 -8.45 6.35 -8.15 6.2 M-8.1 5.15 Q-8.2 4.45 -7.6 4.2 L-7.2 4.1 Q-6.85 4.15 -6.7 4.45 L-6.7 4.55 Q-7.1 5.7 -8.1 5.15 M-9.85 1.9 L-10.0 2.25 -10.15 2.4 Q-10.95 2.5 -10.8 1.7 L-10.55 1.5 -10.35 1.45 Q-10.0 1.5 -9.85 1.8 L-9.85 1.9 M-8.85 2.65 Q-8.65 2.65 -8.5 2.85 -8.35 3.05 -8.35 3.35 L-8.5 3.85 -8.85 4.05 -9.2 3.85 -9.35 3.35 -9.2 2.85 -8.85 2.65 M-1.25 3.65 Q-1.6 4.35 -2.2 3.8 L-2.1 3.35 -1.95 3.15 -1.9 3.15 -1.75 3.15 -1.75 3.1 Q-1.35 3.15 -1.3 3.55 L-1.25 3.65 M-3.7 5.9 L-4.2 5.75 -4.4 5.3 -4.2 4.9 -3.7 4.7 Q-3.4 4.7 -3.2 4.9 L-3.0 5.3 -3.2 5.75 -3.7 5.9 M-1.4 1.6 L-1.5 1.65 Q-3.1 1.95 -2.85 0.4 L-2.7 0.25 -2.6 0.15 -2.55 0.15 -2.35 0.1 Q-0.8 0.2 -1.4 1.6 M-3.25 -4.6 L-2.9 -4.35 -2.9 -4.25 Q-2.9 -4.1 -3.05 -4.0 L-3.25 -3.9 -3.5 -4.05 -3.55 -4.25 -3.5 -4.45 -3.25 -4.6 M-5.3 -1.95 L-5.15 -1.95 -5.15 -2.0 Q-4.75 -1.95 -4.7 -1.55 L-4.7 -1.45 Q-5.0 -0.75 -5.6 -1.3 L-5.55 -1.75 -5.4 -1.9 -5.3 -1.95 M-12.2 14.5 L-12.75 14.5 -12.75 14.95 -12.2 14.95 -12.2 14.5 M-10.8 15.2 Q-11.1 15.35 -11.3 15.65 L-11.3 16.0 Q-10.45 16.9 -10.1 15.75 L-10.1 15.65 Q-10.2 15.25 -10.6 15.2 L-10.8 15.2 M-12.75 16.85 L-12.5 16.65 -12.4 16.5 -12.45 16.4 Q-12.65 16.05 -13.1 16.05 L-13.4 16.2 -13.45 16.4 -13.4 16.6 -12.75 16.85 M-1.15 14.15 Q-0.5 14.1 -0.1 13.6 0.7 12.65 -0.6 12.3 L-1.85 12.8 -2.1 13.15 Q-2.45 14.35 -1.15 14.15 M-3.05 14.9 L-3.2 14.95 -3.25 14.95 -3.4 15.15 -3.45 15.6 Q-2.85 16.15 -2.55 15.45 L-2.55 15.35 Q-2.65 14.95 -3.05 14.9 M-3.95 13.0 Q-4.5 13.4 -4.15 13.95 L-3.5 14.05 Q-2.55 13.4 -3.65 12.95 L-3.95 13.0 M-3.7 18.5 L-3.5 18.3 -3.35 17.9 -3.35 17.8 Q-3.55 17.45 -3.9 17.4 L-4.1 17.45 -4.45 17.75 Q-4.6 18.6 -3.7 18.5 M-5.9 15.0 L-6.3 15.2 -6.45 15.6 -6.3 16.05 -5.9 16.2 -5.5 16.05 -5.35 15.6 -5.5 15.2 Q-5.65 15.0 -5.9 15.0 M-9.25 14.4 L-9.45 14.65 -9.5 15.2 -9.2 15.5 -8.7 15.45 Q-7.8 14.75 -8.95 14.35 L-9.15 14.4 -9.25 14.4 M-8.35 18.1 L-8.85 18.3 -9.05 18.8 -8.85 19.3 -8.35 19.5 Q-8.05 19.5 -7.85 19.3 L-7.65 18.8 -7.85 18.3 -8.35 18.1 M-5.3 18.3 Q-5.45 17.85 -5.9 17.8 L-6.15 17.9 Q-6.45 18.0 -6.35 18.25 -6.0 19.6 -5.3 18.4 L-5.3 18.3" fill="#d98700" fill-rule="evenodd" stroke="none"/>
      <path d="M18.5 9.65 L18.35 10.0 17.85 10.1 Q17.95 9.9 18.5 9.65 M18.05 10.5 L15.9 13.45 15.3 13.55 15.4 14.0 Q8.5 21.3 -1.65 21.1 L-4.65 20.8 -1.6 18.3 0.9 18.5 2.65 19.9 6.15 17.1 9.2 17.8 11.25 16.4 18.05 10.5 M-5.1 20.75 L-5.2 20.7 -4.95 20.65 -5.1 20.75 M8.45 -12.4 L8.55 -12.7 9.0 -12.25 9.05 -12.15 Q8.7 -11.45 8.2 -11.75 L8.45 -12.4 M3.75 -12.45 L4.15 -12.9 5.0 -11.25 Q4.5 -11.25 4.15 -11.6 L3.9 -11.9 3.75 -12.45 M5.75 -10.65 L6.05 -12.1 8.0 -11.45 5.3 -10.3 5.25 -10.4 5.5 -10.5 5.6 -10.5 5.55 -10.55 5.75 -10.65 M9.2 -11.25 Q9.7 -10.35 8.55 -10.35 8.35 -10.35 8.2 -10.5 7.5 -11.6 8.9 -11.45 L9.2 -11.25 M17.75 6.15 L17.9 5.95 18.0 5.95 18.15 5.9 Q18.6 5.95 18.7 6.4 L18.7 6.5 Q18.35 7.3 17.65 6.7 17.55 6.4 17.75 6.15 M14.4 8.6 L14.5 8.4 14.7 8.3 14.9 8.4 15.0 8.6 14.9 8.8 14.7 8.9 14.5 8.8 14.4 8.6 M15.3 9.6 L15.5 9.4 Q15.65 9.25 15.85 9.2 16.45 9.25 16.75 9.7 L16.8 9.8 15.35 9.75 15.3 9.6 M13.7 11.2 L13.7 10.75 14.2 10.75 14.2 11.2 13.7 11.2 M11.6 12.2 Q11.55 11.95 11.85 11.85 L12.0 11.8 12.3 12.1 12.35 12.2 12.2 12.4 12.1 12.45 Q11.75 12.6 11.6 12.2 M10.1 13.8 Q9.2 13.9 9.35 13.05 L9.65 12.75 9.9 12.7 Q10.25 12.75 10.4 13.1 L10.45 13.2 10.3 13.65 10.1 13.8 M7.55 16.25 L7.5 16.0 Q7.5 15.7 7.8 15.5 L7.85 15.5 8.05 15.45 Q8.75 15.3 8.95 15.95 L8.95 16.05 Q8.45 16.95 7.55 16.25 M7.05 15.95 L6.95 16.3 6.6 16.4 6.3 16.3 6.15 15.95 6.3 15.65 Q6.4 15.5 6.6 15.5 L6.95 15.65 7.05 15.95 M2.1 17.25 L2.4 17.0 Q2.6 16.85 2.8 16.85 4.35 17.35 3.15 18.25 L2.8 18.35 Q1.85 18.2 2.1 17.25 M0.3 19.25 L0.1 19.35 -0.1 19.5 -0.2 19.9 1.1 19.95 1.1 19.85 Q0.9 19.3 0.35 19.25 L0.3 19.25 M12.75 13.3 Q12.75 13.05 13.0 13.05 L13.15 13.05 13.35 13.1 13.45 13.3 13.45 13.45 13.15 13.7 12.75 13.3 M-3.7 18.5 Q-4.6 18.6 -4.45 17.75 L-4.1 17.45 -3.9 17.4 Q-3.55 17.45 -3.35 17.8 L-3.35 17.9 -3.5 18.3 -3.7 18.5 M-5.3 18.3 L-5.3 18.4 Q-6.0 19.6 -6.35 18.25 -6.45 18.0 -6.15 17.9 L-5.9 17.8 Q-5.45 17.85 -5.3 18.3 M-8.35 18.1 L-7.85 18.3 -7.65 18.8 -7.85 19.3 Q-8.05 19.5 -8.35 19.5 L-8.85 19.3 -9.05 18.8 -8.85 18.3 -8.35 18.1" fill="#ad6c01" fill-rule="evenodd" stroke="none"/>
      <path d="M0.5 -17.1 L0.95 -16.95 1.15 -16.6 0.95 -16.25 0.5 -16.1 0.05 -16.25 -0.15 -16.6 0.05 -16.95 0.5 -17.1 M-9.75 -14.65 L-5.8 -16.3 -2.1 -15.7 -2.6 -17.05 -0.7 -17.15 -1.05 -15.6 -13.9 -9.3 -9.75 -14.65 M-4.8 -14.55 L-4.65 -14.3 -4.5 -14.55 -4.8 -14.55 M-12.35 -7.8 L-12.2 -8.15 -11.85 -8.3 Q-11.65 -8.3 -11.5 -8.15 L-11.35 -7.8 -11.5 -7.45 Q-11.65 -7.3 -11.85 -7.3 L-12.2 -7.45 -12.35 -7.8 M-12.95 -7.9 Q-13.7 -6.65 -14.75 -7.65 L-14.8 -7.9 -14.75 -8.1 Q-14.25 -8.65 -13.55 -8.8 -13.1 -8.85 -12.95 -8.4 L-12.9 -8.3 -12.95 -8.1 -12.95 -7.9 M-13.75 -10.95 L-13.85 -10.75 Q-14.55 -10.15 -15.15 -10.75 L-15.05 -11.05 -14.95 -11.25 -14.15 -11.45 Q-13.9 -11.4 -13.8 -11.15 L-13.75 -11.05 -13.75 -10.95 M-4.1 -12.85 Q-2.05 -14.35 -3.4 -13.3 -3.7 -13.05 -4.1 -12.85 M-16.85 -7.0 Q-16.35 -7.15 -16.5 -6.85 -16.85 -6.2 -17.05 -6.85 L-16.85 -7.0 M-15.2 -8.6 L-15.55 -8.5 -15.85 -8.6 -16.0 -8.95 -15.85 -9.25 -15.55 -9.4 -15.2 -9.25 -15.1 -8.95 -15.2 -8.6 M-4.75 -10.5 L-5.0 -10.95 -4.75 -11.35 -4.15 -11.55 Q-3.8 -11.55 -3.55 -11.35 L-3.3 -10.95 -3.55 -10.5 -4.15 -10.35 -4.75 -10.5 M-8.3 -9.85 L-8.0 -9.65 -7.95 -9.55 Q-8.35 -8.0 -9.85 -8.9 L-10.1 -9.3 Q-9.3 -9.9 -8.3 -9.85" fill="#fedca5" fill-rule="evenodd" stroke="none"/>
      <path d="M4.3 -14.1 L8.45 -12.4 8.2 -11.75 8.0 -11.45 6.05 -12.1 5.75 -10.65 4.85 -10.7 5.0 -11.25 4.15 -12.9 4.3 -14.1" fill="#40800b" fill-rule="evenodd" stroke="none"/>
      <path d="M4.3 -14.1 L4.7 -14.2 6.8 -14.8 8.05 -13.75 8.75 -13.15 8.55 -12.7 8.45 -12.4 4.3 -14.1" fill="#4f9c0e" fill-rule="evenodd" stroke="none"/>
    </g>
  </defs>
</svg>
