<?xml version="1.0" encoding="UTF-8" standalone="no"?>
<svg xmlns:xlink="http://www.w3.org/1999/xlink" height="59.9px" width="60.65px" xmlns="http://www.w3.org/2000/svg">
  <g transform="matrix(1.0, 0.0, 0.0, 1.0, 29.8, 32.85)">
    <use height="59.25" transform="matrix(1.0, 0.0, 0.0, 1.0, -19.95, -32.85)" width="40.6" xlink:href="#shape0"/>
  </g>
  <defs>
    <g id="shape0" transform="matrix(1.0, 0.0, 0.0, 1.0, 19.95, 32.85)">
      <path d="M-4.8 -13.15 Q-3.65 -20.8 1.75 -23.8 L1.95 -23.95 Q3.65 -24.95 5.35 -25.3 L5.35 -25.4 5.4 -25.4 6.35 -28.25 6.4 -28.5 Q7.8 -33.1 11.25 -32.8 L11.35 -32.8 12.65 -32.7 Q15.6 -31.8 16.25 -29.75 17.45 -27.75 15.75 -24.9 15.15 -23.9 14.85 -22.75 L14.9 -22.75 15.1 -22.5 15.25 -22.35 15.35 -22.2 15.3 -22.25 16.3 -21.0 16.4 -20.8 16.45 -20.7 16.5 -20.65 Q18.65 -17.05 18.5 -12.95 L18.1 -7.15 Q17.95 -5.5 18.4 -4.4 L18.45 -4.2 Q19.35 -2.1 19.85 0.3 L19.9 0.55 Q20.5 3.45 20.6 6.35 20.75 9.3 20.05 12.15 19.3 15.45 17.8 18.35 L17.8 18.3 17.8 18.35 17.75 18.45 16.7 20.1 16.55 20.3 Q14.85 22.65 12.25 24.1 L12.2 24.15 12.15 24.15 Q9.5 25.55 6.55 25.95 L6.5 25.95 6.35 25.95 0.15 26.35 -0.2 26.3 -0.25 26.3 -5.65 25.15 -5.75 25.15 -5.85 25.1 -5.8 25.15 Q-8.25 24.65 -10.75 23.25 L-11.0 23.1 -11.05 23.05 -10.95 23.15 -12.7 21.85 -12.9 21.65 -16.15 18.55 -17.85 16.35 -17.95 16.2 -18.2 15.75 -18.3 15.5 Q-20.4 11.5 -19.85 7.15 -18.7 -2.25 -10.25 -6.9 -5.55 -9.5 -4.8 -13.2 L-4.8 -13.15" fill="#ffffff" fill-opacity="0.5019608" fill-rule="evenodd" stroke="none"/>
      <path d="M8.05 -28.4 L8.0 -28.35 Q8.9 -31.3 11.0 -31.25 L11.8 -31.2 Q13.7 -30.65 14.1 -29.35 14.75 -28.15 13.75 -26.4 L13.7 -26.35 Q12.65 -24.5 12.3 -22.45 L12.3 -22.4 12.45 -22.3 12.55 -22.25 13.05 -21.85 13.15 -21.75 13.4 -21.55 13.5 -21.4 14.35 -20.3 14.4 -20.2 Q16.35 -17.05 16.2 -13.5 L15.8 -7.75 Q15.6 -5.6 16.25 -4.1 L16.2 -4.1 Q17.1 -2.05 17.6 0.3 18.2 3.15 18.3 6.0 18.4 8.65 17.8 11.2 L17.8 11.25 Q17.1 14.3 15.7 16.95 L15.7 17.0 14.75 18.5 Q13.3 20.6 11.0 21.9 L10.95 21.95 Q8.55 23.15 5.95 23.5 L5.8 23.55 0.0 23.9 -0.2 23.9 -5.6 22.75 -5.7 22.7 Q-7.85 22.3 -10.1 21.05 L-10.2 21.0 -11.75 19.85 -14.95 16.8 -16.45 14.8 -16.5 14.75 -16.75 14.35 -16.75 14.3 Q-18.65 10.8 -18.15 6.95 -17.15 -1.45 -9.6 -5.6 -3.9 -8.7 -3.1 -13.3 -2.15 -19.9 2.45 -22.55 L2.45 -22.5 Q4.5 -23.8 6.5 -23.95 L6.95 -25.2 8.05 -28.4" fill="#ffffff" fill-rule="evenodd" stroke="none"/>
      <path d="M10.1 -21.35 L10.8 -21.0 11.3 -20.7 10.75 -20.2 9.85 -20.55 10.1 -21.35 M-14.8 13.7 L-15.0 13.35 Q-16.6 10.4 -16.2 7.2 -15.3 -0.2 -8.65 -3.85 -1.95 -7.5 -1.15 -13.0 -0.3 -18.55 3.45 -20.8 5.65 -22.15 7.8 -22.0 L7.25 -20.85 8.25 -19.95 7.5 -20.55 7.5 -20.2 Q7.6 -19.5 8.4 -19.35 10.85 -19.0 12.15 -17.0 L12.55 -16.1 12.55 -16.05 12.5 -14.6 11.75 -10.3 11.1 -6.95 10.9 -3.85 Q10.95 -1.15 11.25 1.6 L11.4 3.25 11.4 5.35 Q11.0 4.85 10.35 4.75 L9.55 5.35 Q8.8 6.55 9.25 7.95 L9.15 8.15 Q9.0 8.75 9.5 9.0 10.45 9.45 10.95 9.0 L11.0 8.8 10.7 9.9 Q9.95 12.2 8.25 13.9 6.2 15.85 3.25 16.45 L-0.6 17.05 -5.65 17.05 Q-8.6 17.05 -11.25 15.65 L-13.45 14.5 -14.8 13.7 M6.0 -19.85 L5.3 -20.4 3.4 -19.3 Q0.55 -17.4 0.5 -14.0 L1.45 -14.15 2.3 -15.65 Q3.75 -18.0 5.95 -19.65 L6.0 -19.85 M9.0 -1.35 L8.75 -1.15 Q8.1 -0.3 9.15 -0.05 L9.25 -0.15 Q10.15 -0.95 9.0 -1.35 M0.65 0.35 L1.2 0.0 Q1.85 -1.05 0.65 -1.45 -0.3 -1.35 -1.0 -0.55 L-1.1 -0.05 Q-0.5 1.3 0.65 0.35 M5.7 3.85 L5.75 3.65 5.85 3.55 5.75 3.35 5.7 3.25 5.55 3.2 5.2 3.0 4.95 3.1 4.8 3.3 Q4.6 4.4 5.7 3.85 M7.35 12.75 L7.35 13.05 7.4 13.9 8.2 13.85 Q8.95 12.9 7.95 12.35 L7.75 12.4 7.7 12.4 7.5 12.55 7.35 12.75 M4.95 9.2 Q5.2 7.75 3.9 7.25 3.1 7.4 2.4 7.95 0.95 9.0 1.25 10.6 L1.35 10.95 Q2.4 12.3 3.7 11.3 4.75 10.5 4.95 9.2 M-3.1 4.95 Q-1.95 4.2 -3.15 3.65 L-3.35 3.7 Q-4.3 4.1 -3.65 4.9 L-3.1 4.95 M-1.7 -4.8 L-1.75 -4.5 -0.75 -4.55 -0.75 -4.65 -1.25 -5.1 -1.7 -4.8 M-10.65 -0.45 L-10.6 -0.35 Q-9.9 0.2 -9.85 -0.65 L-9.95 -0.75 -10.25 -0.9 -10.4 -0.85 -10.5 -0.8 -10.6 -0.7 -10.65 -0.65 -10.65 -0.45 M-5.55 9.45 L-6.25 9.7 Q-7.8 10.7 -6.6 11.9 L-6.05 12.0 Q-5.2 11.5 -4.75 10.55 L-4.75 10.45 Q-4.65 9.6 -5.55 9.45 M-9.95 3.95 L-9.95 4.45 Q-9.35 6.0 -7.95 4.95 L-7.9 4.85 Q-7.1 3.5 -8.2 2.7 -9.4 2.9 -9.95 3.95 M-13.6 7.7 L-14.15 7.2 -14.15 7.25 -14.4 7.3 -15.0 8.8 -14.85 9.3 Q-14.05 10.3 -13.6 9.05 L-13.45 8.65 -13.45 8.15 -13.6 7.7 M-1.0 15.0 L-0.45 14.3 Q0.1 12.9 -1.25 12.55 L-1.9 12.75 Q-3.05 13.45 -2.65 14.6 -2.15 15.9 -1.0 15.0" fill="#88e10d" fill-rule="evenodd" stroke="none"/>
      <path d="M11.3 -20.7 L11.75 -20.35 11.95 -20.1 12.7 -19.15 Q14.3 -16.55 14.2 -13.6 L13.8 -7.95 Q13.55 -5.2 14.4 -3.3 15.2 -1.45 15.65 0.7 16.2 3.4 16.3 6.05 16.4 8.45 15.85 10.75 15.2 13.6 13.95 16.05 11.7 17.55 8.7 18.7 5.7 19.85 3.45 20.1 L0.4 20.25 Q-0.4 18.9 -2.15 19.2 L-2.35 19.25 -2.4 19.25 -2.9 19.9 -2.95 20.2 -5.7 19.85 -9.1 19.3 -10.5 18.3 -13.45 15.45 -14.8 13.7 -13.45 14.5 -11.25 15.65 Q-8.6 17.05 -5.65 17.05 L-0.6 17.05 3.25 16.45 Q6.2 15.85 8.25 13.9 9.95 12.2 10.7 9.9 L11.0 8.8 10.95 9.0 Q10.45 9.45 9.5 9.0 9.0 8.75 9.15 8.15 L9.25 7.95 Q8.8 6.55 9.55 5.35 L10.35 4.75 Q11.0 4.85 11.4 5.35 L11.4 3.25 11.25 1.6 Q10.95 -1.15 10.9 -3.85 L11.1 -6.95 11.75 -10.3 12.5 -14.6 12.55 -16.05 12.55 -16.1 12.15 -17.0 Q10.85 -19.0 8.4 -19.35 7.6 -19.5 7.5 -20.2 L7.5 -20.55 8.25 -19.95 9.85 -20.55 10.75 -20.2 11.3 -20.7 M9.0 -1.35 Q10.15 -0.95 9.25 -0.15 L9.15 -0.05 Q8.1 -0.3 8.75 -1.15 L9.0 -1.35 M10.65 6.45 L10.5 6.5 Q9.55 7.05 10.4 7.65 10.65 7.85 10.9 7.65 11.75 6.9 10.65 6.45 M0.15 -0.9 L0.15 -0.85 0.0 -0.85 -0.05 -0.8 -0.2 -0.65 -0.3 -0.2 Q0.3 0.35 0.65 -0.35 L0.65 -0.45 0.15 -0.9 M5.7 3.85 Q4.6 4.4 4.8 3.3 L4.95 3.1 5.2 3.0 5.55 3.2 5.7 3.25 5.75 3.35 5.85 3.55 5.75 3.65 5.7 3.85 M0.65 0.35 Q-0.5 1.3 -1.1 -0.05 L-1.0 -0.55 Q-0.3 -1.35 0.65 -1.45 1.85 -1.05 1.2 0.0 L0.65 0.35 M3.4 8.75 L2.7 9.0 Q2.15 9.3 2.3 9.85 2.6 10.95 3.5 10.15 4.55 9.25 3.4 8.75 M4.95 9.2 Q4.75 10.5 3.7 11.3 2.4 12.3 1.35 10.95 L1.25 10.6 Q0.95 9.0 2.4 7.95 3.1 7.4 3.9 7.25 5.2 7.75 4.95 9.2 M7.35 12.75 L7.5 12.55 7.7 12.4 7.75 12.4 7.95 12.35 Q8.95 12.9 8.2 13.85 L7.4 13.9 7.35 13.05 7.35 12.75 M-10.65 -0.45 L-10.65 -0.65 -10.6 -0.7 -10.5 -0.8 -10.4 -0.85 -10.25 -0.9 -9.95 -0.75 -9.85 -0.65 Q-9.9 0.2 -10.6 -0.35 L-10.65 -0.45 M-1.7 -4.8 L-1.25 -5.1 -0.75 -4.65 -0.75 -4.55 -1.75 -4.5 -1.7 -4.8 M-3.1 4.95 L-3.65 4.9 Q-4.3 4.1 -3.35 3.7 L-3.15 3.65 Q-1.95 4.2 -3.1 4.95 M-8.55 3.9 L-8.75 4.05 -8.8 4.5 Q-8.2 5.05 -7.85 4.35 L-7.9 4.25 Q-7.95 3.9 -8.35 3.85 L-8.5 3.85 -8.55 3.9 M-9.95 3.95 Q-9.4 2.9 -8.2 2.7 -7.1 3.5 -7.9 4.85 L-7.95 4.95 Q-9.35 6.0 -9.95 4.45 L-9.95 3.95 M-5.55 9.45 Q-4.65 9.6 -4.75 10.45 L-4.75 10.55 Q-5.2 11.5 -6.05 12.0 L-6.6 11.9 Q-7.8 10.7 -6.25 9.7 L-5.55 9.45 M-13.6 7.7 L-13.65 7.7 Q-14.15 7.7 -14.5 8.15 L-14.45 8.45 Q-13.85 9.0 -13.45 8.65 L-13.6 9.05 Q-14.05 10.3 -14.85 9.3 L-15.0 8.8 -14.4 7.3 -14.15 7.25 -14.15 7.2 -13.6 7.7 M-5.95 9.95 L-6.15 10.0 -6.2 10.05 -6.35 10.2 -6.75 10.75 -6.7 11.05 -6.7 11.15 Q-6.45 11.6 -6.05 11.35 -4.85 10.6 -5.95 9.95 M-1.1 13.85 L-1.0 13.45 -1.0 13.4 Q-1.15 13.1 -1.5 13.05 L-1.65 13.05 -1.95 13.3 Q-2.1 14.05 -1.3 14.0 L-1.1 13.85 M-1.0 15.0 Q-2.15 15.9 -2.65 14.6 -3.05 13.45 -1.9 12.75 L-1.25 12.55 Q0.1 12.9 -0.45 14.3 L-1.0 15.0" fill="#7bcd0c" fill-rule="evenodd" stroke="none"/>
      <path d="M13.95 16.05 L13.1 17.35 Q11.9 19.1 10.0 20.15 7.9 21.25 5.55 21.55 L0.15 21.9 -5.25 20.75 Q-7.15 20.4 -9.1 19.3 L-5.7 19.85 -2.95 20.2 Q-1.85 20.95 -1.0 20.85 -0.15 20.75 0.4 20.25 L3.45 20.1 Q5.7 19.85 8.7 18.7 11.7 17.55 13.95 16.05 M0.15 -0.9 L0.65 -0.45 0.65 -0.35 Q0.3 0.35 -0.3 -0.2 L-0.2 -0.65 -0.05 -0.8 0.0 -0.85 0.15 -0.85 0.15 -0.9 M10.65 6.45 Q11.75 6.9 10.9 7.65 10.65 7.85 10.4 7.65 9.55 7.05 10.5 6.5 L10.65 6.45 M3.4 8.75 Q4.55 9.25 3.5 10.15 2.6 10.95 2.3 9.85 2.15 9.3 2.7 9.0 L3.4 8.75 M-8.55 3.9 L-8.5 3.85 -8.35 3.85 Q-7.95 3.9 -7.9 4.25 L-7.85 4.35 Q-8.2 5.05 -8.8 4.5 L-8.75 4.05 -8.55 3.9 M-5.95 9.95 Q-4.85 10.6 -6.05 11.35 -6.45 11.6 -6.7 11.15 L-6.7 11.05 -6.75 10.75 -6.35 10.2 -6.2 10.05 -6.15 10.0 -5.95 9.95 M-13.45 8.65 Q-13.85 9.0 -14.45 8.45 L-14.5 8.15 Q-14.15 7.7 -13.65 7.7 L-13.6 7.7 -13.45 8.15 -13.45 8.65 M-1.1 13.85 L-1.3 14.0 Q-2.1 14.05 -1.95 13.3 L-1.65 13.05 -1.5 13.05 Q-1.15 13.1 -1.0 13.4 L-1.0 13.45 -1.1 13.85" fill="#69af0a" fill-rule="evenodd" stroke="none"/>
      <path d="M0.4 20.25 Q-0.15 20.75 -1.0 20.85 -1.85 20.95 -2.95 20.2 L-2.9 19.9 -2.4 19.25 -2.35 19.25 -2.15 19.2 Q-0.4 18.9 0.4 20.25" fill="#1b2d02" fill-rule="evenodd" stroke="none"/>
      <path d="M6.0 -19.85 L5.95 -19.65 Q3.75 -18.0 2.3 -15.65 L1.45 -14.15 0.5 -14.0 Q0.55 -17.4 3.4 -19.3 L5.3 -20.4 6.0 -19.85" fill="#defaaf" fill-rule="evenodd" stroke="none"/>
      <path d="M7.8 -22.0 L8.85 -24.55 9.95 -27.8 Q10.35 -29.2 11.2 -29.3 12.85 -28.8 12.0 -27.4 10.4 -24.6 10.1 -21.35 L9.85 -20.55 8.25 -19.95 7.25 -20.85 7.8 -22.0" fill="#426505" fill-rule="evenodd" stroke="none"/>
    </g>
  </defs>
</svg>
