<?xml version="1.0" encoding="UTF-8" standalone="no"?>
<svg xmlns:xlink="http://www.w3.org/1999/xlink" height="59.9px" width="60.65px" xmlns="http://www.w3.org/2000/svg">
  <g transform="matrix(1.0, 0.0, 0.0, 1.0, 29.8, 32.85)">
    <use height="58.4" transform="matrix(1.0, 0.0, 0.0, 1.0, -26.85, -31.35)" width="53.15" xlink:href="#shape0"/>
  </g>
  <defs>
    <g id="shape0" transform="matrix(1.0, 0.0, 0.0, 1.0, 26.85, 31.35)">
      <path d="M1.4 -25.8 Q4.5 -30.7 7.75 -28.95 L7.7 -28.95 Q10.15 -27.95 9.4 -25.45 9.15 -24.4 7.5 -22.75 L7.05 -22.4 Q6.1 -21.75 5.6 -20.0 L5.6 -19.95 5.5 -19.6 Q11.5 -19.6 16.3 -15.9 24.5 -9.25 24.4 1.0 L24.4 1.05 Q24.35 8.5 20.05 14.2 18.85 16.2 15.0 20.0 L14.95 20.0 Q10.2 24.8 3.55 23.75 L3.3 23.7 2.65 23.5 1.55 23.95 1.05 24.1 Q-3.75 25.55 -8.6 24.0 L-8.65 23.95 -10.85 23.2 -10.9 23.15 Q-14.2 21.65 -17.8 18.6 L-17.85 18.55 Q-24.55 12.35 -24.75 3.3 -24.95 -6.3 -17.7 -12.7 -10.55 -19.05 -1.75 -18.6 L-1.35 -18.65 -0.8 -20.55 -0.8 -20.6 Q0.45 -24.35 1.4 -25.8" fill="#ffffff" fill-rule="evenodd" stroke="none"/>
      <path d="M11.25 -24.75 Q11.0 -23.3 8.8 -21.1 13.45 -20.3 17.4 -17.25 L17.45 -17.2 Q26.4 -9.95 26.3 1.25 L26.3 1.3 Q26.25 9.3 21.7 15.5 20.4 17.65 16.3 21.65 L16.25 21.65 16.3 21.7 Q10.75 27.15 3.1 25.95 L2.7 25.85 2.65 25.85 2.25 26.05 2.2 26.1 1.4 26.3 Q-3.9 27.85 -9.25 26.15 L-9.3 26.15 -11.75 25.3 -11.8 25.25 -11.85 25.25 Q-15.35 23.65 -19.2 20.35 L-19.3 20.3 -19.3 20.25 -19.4 20.15 Q-26.6 13.4 -26.85 3.6 -27.1 -6.9 -19.15 -13.95 -11.8 -20.45 -2.95 -20.35 L-2.9 -20.35 -2.85 -20.75 -2.8 -21.0 Q-1.5 -24.85 -0.5 -26.45 L-0.35 -26.65 Q3.9 -33.4 8.6 -30.45 12.4 -28.75 11.25 -24.75" fill="#ffffff" fill-opacity="0.5019608" fill-rule="evenodd" stroke="none"/>
      <path d="M-0.05 -16.9 Q8.6 -19.2 14.9 -14.35 22.35 -8.3 22.25 1.0 22.2 7.85 18.25 13.05 L18.6 12.55 Q13.5 12.55 13.2 6.1 13.65 -6.05 8.5 -10.35 L4.15 -13.75 3.55 -15.85 -0.05 -16.9 M-16.65 17.05 Q-22.7 11.45 -22.9 3.25 -23.1 -5.4 -16.55 -11.2 -9.9 -17.1 -1.75 -16.55 L0.45 -15.0 Q2.2 -13.9 4.2 -13.55 L3.4 -13.5 4.3 -13.0 Q11.95 -7.45 9.7 2.4 7.75 11.0 -0.15 15.45 -8.15 19.95 -16.65 17.05" fill="#dd1c1c" fill-rule="evenodd" stroke="none"/>
      <path d="M-0.05 -16.9 L3.55 -15.85 4.15 -13.75 8.5 -10.35 Q13.65 -6.05 13.2 6.1 13.5 12.55 18.6 12.55 L18.25 13.05 Q17.15 14.9 13.4 18.6 11.7 19.4 9.95 19.7 L9.25 19.65 Q8.75 17.0 10.4 13.4 1.8 24.7 -10.25 21.35 -13.3 19.95 -16.65 17.05 -8.15 19.95 -0.15 15.45 7.75 11.0 9.7 2.4 11.95 -7.45 4.3 -13.0 L3.4 -13.5 4.2 -13.55 Q2.2 -13.9 0.45 -15.0 L-1.75 -16.55 -0.05 -16.9 M0.6 22.1 L0.5 22.15 0.55 22.05 0.6 22.1" fill="#b41616" fill-rule="evenodd" stroke="none"/>
      <path d="M13.4 18.6 Q9.35 22.65 3.7 21.75 L2.35 21.35 0.6 22.1 0.55 22.05 0.5 22.15 Q-3.85 23.5 -8.2 22.05 L-10.25 21.35 Q1.8 24.7 10.4 13.4 8.75 17.0 9.25 19.65 L9.95 19.7 Q11.7 19.4 13.4 18.6" fill="#881111" fill-rule="evenodd" stroke="none"/>
      <path d="M0.95 -19.95 L2.75 -20.2 3.55 -20.55 Q2.75 -17.95 2.5 -15.35 1.5 -15.15 0.05 -15.95 0.3 -17.9 0.95 -19.95" fill="#40800b" fill-rule="evenodd" stroke="none"/>
      <path d="M0.95 -19.95 Q2.1 -23.4 2.95 -24.75 4.95 -27.9 6.8 -27.1 8.25 -26.5 5.9 -24.15 4.3 -23.25 3.55 -20.55 L2.75 -20.2 0.95 -19.95" fill="#4f9c0e" fill-rule="evenodd" stroke="none"/>
    </g>
  </defs>
</svg>
