<?xml version="1.0" encoding="UTF-8" standalone="no"?>
<svg xmlns:xlink="http://www.w3.org/1999/xlink" height="59.9px" width="60.65px" xmlns="http://www.w3.org/2000/svg">
  <g transform="matrix(1.0, 0.0, 0.0, 1.0, 29.8, 32.85)">
    <use height="52.15" transform="matrix(1.0, 0.0, 0.0, 1.0, -28.8, -26.95)" width="54.45" xlink:href="#shape0"/>
  </g>
  <defs>
    <g id="shape0" transform="matrix(1.0, 0.0, 0.0, 1.0, 28.8, 26.95)">
      <path d="M14.0 -13.2 Q14.15 -12.65 13.95 -12.05 L12.75 -9.1 13.35 -8.65 15.2 -8.35 15.3 -8.3 Q16.3 -8.05 17.2 -7.2 L17.0 -7.35 Q18.5 -6.1 18.55 -4.05 L18.45 -3.4 Q19.95 -2.95 21.25 -1.9 L21.25 -1.85 Q23.45 -0.05 22.7 2.9 L22.7 2.85 21.7 4.8 20.8 5.65 Q22.5 6.75 22.55 8.65 L22.55 8.75 22.3 10.8 Q21.95 11.95 21.15 12.7 L21.5 12.85 22.1 13.4 23.4 15.2 Q23.75 15.7 23.75 16.4 23.75 17.05 23.35 17.6 22.1 19.15 21.15 20.85 L19.7 22.3 19.5 22.4 Q17.45 23.3 15.4 22.15 L12.4 22.85 11.15 22.75 10.2 21.9 8.65 19.05 6.9 18.1 6.8 18.1 6.15 18.25 4.35 18.35 3.95 18.35 Q0.95 17.85 -0.3 15.4 L-0.55 14.65 -0.55 14.55 -1.85 13.85 Q-3.35 14.65 -5.1 14.8 L-5.75 14.75 -7.5 14.15 Q-9.95 13.15 -10.4 10.35 L-10.5 10.4 -11.6 10.7 Q-13.55 10.6 -15.15 9.75 L-15.3 9.7 -17.05 8.0 Q-17.95 6.7 -18.0 5.35 L-19.55 4.95 -20.8 4.05 -21.6 2.75 -21.9 1.75 -21.65 0.75 -20.7 -1.0 -21.25 -1.55 Q-21.85 -2.15 -21.85 -3.0 L-21.55 -5.05 -21.25 -6.05 -24.7 -6.05 Q-25.45 -6.05 -26.0 -6.5 -26.55 -7.0 -26.65 -7.7 -26.8 -8.45 -26.4 -9.05 L-24.25 -12.5 -20.3 -17.8 -20.35 -17.8 Q-17.15 -21.7 -13.2 -24.75 -12.7 -25.2 -12.05 -25.2 L-10.9 -24.85 -9.55 -23.95 -8.85 -23.2 Q-8.6 -22.7 -8.65 -22.15 L-8.7 -21.3 Q-8.75 -20.7 -9.1 -20.2 L-11.5 -17.05 Q-9.75 -18.05 -7.75 -18.2 -7.45 -19.35 -6.65 -20.25 L-6.55 -20.35 -4.3 -22.2 -4.2 -22.25 Q-2.0 -23.8 0.55 -22.75 1.3 -22.4 1.6 -21.65 L3.0 -18.2 5.25 -16.85 9.0 -17.45 9.9 -17.4 10.7 -16.9 13.45 -14.2 14.0 -13.2 M21.15 12.7 L21.0 11.45 20.35 12.55 20.75 12.6 21.15 12.7 M-16.25 -10.15 L-16.25 -10.2 -16.3 -10.1 -16.25 -10.15" fill="#ffffff" fill-rule="evenodd" stroke="none"/>
      <path d="M3.25 -22.2 L4.45 -19.3 5.5 -18.7 8.55 -19.15 8.6 -19.15 Q10.7 -19.5 12.05 -18.0 L12.0 -18.05 14.95 -14.65 Q15.75 -13.8 15.85 -12.5 L15.85 -12.35 15.65 -11.15 15.65 -11.1 15.25 -10.1 15.65 -10.0 15.7 -10.0 Q17.3 -9.45 18.45 -8.3 L18.3 -8.4 19.2 -7.45 19.3 -7.25 20.1 -5.45 20.1 -5.35 20.3 -4.45 Q21.8 -3.7 23.0 -2.55 L23.05 -2.55 Q24.85 -0.8 24.8 1.85 L24.8 1.9 Q24.75 3.95 23.6 5.7 L23.5 5.8 Q24.4 7.1 24.45 8.95 24.5 11.1 23.65 12.7 L24.85 14.2 24.85 14.25 Q26.25 16.1 25.2 18.2 L25.15 18.3 23.75 20.55 23.7 20.6 21.8 23.1 21.75 23.15 Q20.1 25.05 17.35 25.05 L16.95 25.0 15.9 24.7 15.1 24.5 12.1 25.15 10.75 25.0 9.5 24.3 8.3 23.0 8.4 23.15 7.05 20.8 6.8 20.35 6.65 20.4 6.4 20.5 Q3.0 21.1 0.2 19.2 L0.2 19.25 Q-1.25 18.25 -2.15 16.55 L-2.1 16.6 -2.25 16.35 -3.1 16.55 Q-6.7 17.8 -9.9 15.4 L-9.85 15.45 Q-11.2 14.5 -11.9 12.9 -14.2 13.05 -16.35 11.7 -18.75 10.25 -19.7 7.7 L-19.75 7.5 -19.85 7.2 -20.45 6.95 -20.55 6.9 -22.15 5.9 -22.3 5.75 Q-24.2 4.0 -23.95 1.35 L-23.9 1.1 -23.65 0.25 -23.6 0.1 -23.3 -0.4 Q-24.25 -1.85 -23.9 -3.8 L-24.85 -3.8 -25.55 -3.9 -27.25 -4.9 -27.2 -4.85 Q-29.8 -6.75 -28.2 -9.7 L-28.2 -9.65 -25.9 -13.35 -25.95 -13.3 -21.9 -18.7 Q-18.6 -22.75 -14.55 -25.95 L-14.45 -26.05 Q-13.7 -26.55 -12.8 -26.85 L-11.7 -26.9 Q-9.9 -26.45 -8.55 -25.25 -7.75 -24.65 -7.3 -23.65 L-6.95 -22.45 -5.35 -23.6 Q-2.3 -25.6 1.1 -24.25 L1.15 -24.25 2.45 -23.35 3.2 -22.3 3.25 -22.2" fill="#ffffff" fill-opacity="0.5019608" fill-rule="evenodd" stroke="none"/>
      <path d="M-12.65 -13.95 L-11.6 -14.8 Q-9.05 -16.65 -6.0 -16.2 -6.35 -18.5 -4.5 -19.95 -2.95 -21.2 -1.0 -21.25 0.45 -21.0 0.95 -19.6 L1.4 -16.85 4.8 -14.8 8.7 -15.65 Q9.85 -15.55 10.8 -14.7 11.65 -13.95 12.05 -12.8 L10.35 -8.45 9.95 -4.45 10.45 -5.6 12.55 -6.7 Q16.05 -7.45 16.55 -4.05 L14.65 -1.65 12.7 -1.35 11.7 1.55 13.5 1.25 14.95 -1.5 Q17.1 -2.15 19.1 -1.1 20.75 -0.3 20.8 1.5 20.95 4.55 17.85 4.6 L15.95 4.8 15.2 7.45 14.1 8.1 18.3 6.55 Q19.4 6.55 19.95 7.35 21.7 9.9 19.0 11.7 L15.65 11.4 Q15.3 13.35 13.5 13.85 10.45 14.85 9.0 12.15 L8.0 12.0 7.05 15.9 5.7 16.75 Q3.05 16.8 1.45 14.45 L1.35 13.25 3.95 10.8 3.6 9.4 2.15 9.8 Q-1.75 9.9 -1.75 6.2 L-1.35 5.25 0.65 3.4 Q-0.8 3.55 -2.0 2.65 -3.05 1.85 -2.9 0.6 -2.45 -4.05 2.45 -4.2 1.35 -7.05 3.9 -9.15 L3.0 -9.75 0.85 -8.35 Q0.7 -4.15 -3.2 -3.75 -2.75 -2.2 -3.35 -0.85 -4.1 0.8 -4.95 1.15 L-2.25 4.1 -2.5 5.9 -2.85 6.4 Q-4.9 9.2 -7.9 7.75 L-9.1 7.0 -9.45 6.7 Q-10.95 4.55 -8.95 2.5 L-8.1 1.8 -9.4 1.35 -15.1 -0.1 -16.5 -1.8 -15.45 -3.8 Q-15.3 -3.35 -14.95 -3.2 -13.65 -2.4 -13.5 -3.75 L-15.1 -4.45 -14.7 -5.25 -10.3 -4.35 -9.7 -3.8 -7.65 -5.4 -7.0 -8.1 Q-10.25 -5.05 -13.5 -7.05 L-13.85 -7.5 Q-15.25 -9.25 -14.4 -11.25 L-12.65 -13.95 M0.3 -15.65 L-0.55 -15.4 Q-1.2 -15.3 -1.2 -14.65 -1.1 -13.4 0.25 -14.0 L0.5 -14.15 Q1.6 -15.1 0.3 -15.65 M6.0 -14.2 Q5.85 -14.05 5.95 -13.8 L7.55 -13.75 Q8.5 -14.65 7.2 -14.85 6.45 -14.8 6.0 -14.2 M6.0 -9.35 L5.0 -8.75 Q4.65 -8.4 4.9 -7.95 5.5 -6.95 6.45 -7.85 7.45 -8.9 6.0 -9.35 M5.45 -1.8 L6.25 -3.05 4.65 -3.05 5.45 -1.8 M6.5 -0.3 Q7.55 0.3 8.15 -0.7 8.85 -2.05 7.45 -2.55 6.25 -2.4 6.05 -1.2 5.95 -0.6 6.5 -0.3 M11.75 -5.65 Q11.05 -4.8 12.1 -4.45 L12.75 -4.55 Q13.55 -5.6 12.25 -6.0 L11.75 -5.65 M15.75 -0.6 Q15.2 -0.5 15.25 0.05 15.25 1.2 16.45 0.95 L17.0 0.55 Q17.7 -0.45 16.45 -0.8 L15.75 -0.6 M19.35 14.4 L20.45 14.55 21.75 16.35 20.2 18.6 17.05 17.6 17.0 17.1 Q16.95 14.75 19.35 14.4 M15.8 20.0 L11.95 20.9 10.1 17.55 Q10.1 16.45 11.15 15.65 12.2 14.85 13.7 14.85 L14.05 14.9 14.8 15.35 Q17.45 17.15 15.8 20.0 M11.7 3.8 L11.8 3.6 11.75 3.5 Q11.75 2.25 10.65 2.1 9.5 2.25 9.65 3.4 9.7 3.75 9.9 3.95 10.65 4.6 11.6 3.95 L11.7 3.8 M11.35 10.5 Q12.15 9.6 10.9 9.3 L10.9 9.35 Q10.1 9.5 9.75 10.3 9.7 11.2 10.8 10.9 L11.35 10.5 M16.3 8.4 Q16.0 8.45 15.85 8.7 15.3 9.9 16.7 9.9 L17.2 9.65 Q17.85 8.55 16.45 8.35 L16.3 8.4 M7.55 4.5 L5.1 4.5 5.1 5.7 7.55 5.7 7.55 4.5 M0.0 4.9 L-0.5 5.25 Q-1.2 6.2 0.05 6.6 0.7 6.8 1.15 6.35 2.3 5.25 0.8 4.7 L0.0 4.9 M3.45 11.9 Q3.0 12.0 3.1 12.45 3.3 13.65 4.65 13.2 L4.8 12.95 4.9 12.75 4.85 12.7 Q4.65 11.75 3.75 11.8 L3.45 11.9 M7.05 7.8 Q7.9 6.7 6.6 6.25 L6.15 6.35 Q5.6 6.45 5.35 6.95 4.8 8.05 6.1 8.25 6.7 8.3 7.05 7.8 M18.35 15.45 L18.0 15.95 Q17.65 17.05 19.0 17.1 19.35 17.05 19.55 16.8 20.45 15.65 19.05 15.25 L18.35 15.45 M12.1 16.55 Q11.35 16.75 11.0 17.4 10.7 18.05 11.35 18.45 12.45 19.1 13.1 18.15 13.9 16.9 12.5 16.45 L12.1 16.55 M-2.85 -18.8 Q-1.75 -18.3 -1.25 -19.3 -0.7 -20.4 -1.9 -20.55 -2.9 -20.65 -3.2 -19.8 -3.45 -19.15 -2.85 -18.8 M-9.4 -14.95 L-11.65 -12.4 -8.25 -14.95 -9.4 -14.95 M-3.25 -14.25 L-3.8 -13.9 -3.6 -12.95 -4.45 -10.95 -3.4 -11.35 -2.45 -14.25 -3.25 -14.25 M-3.9 -9.9 Q-4.9 -9.95 -5.7 -9.2 -6.1 -8.75 -5.65 -8.35 L-3.7 -8.4 Q-2.7 -9.4 -3.9 -9.9 M-7.85 -2.15 Q-7.1 -2.1 -6.65 -2.6 -5.85 -3.7 -7.1 -4.2 L-7.3 -4.2 -7.75 -3.8 -8.1 -3.7 -8.5 -3.4 Q-9.3 -2.3 -7.85 -2.15 M-1.3 -2.35 Q-1.7 -2.15 -1.7 -1.7 -1.65 -0.35 -0.2 -0.85 L0.3 -1.2 Q1.25 -2.3 -0.2 -2.75 -0.75 -2.65 -1.3 -2.35 M-7.85 4.35 Q-7.25 4.65 -6.75 4.1 -5.75 2.9 -7.2 2.4 -8.0 2.45 -8.25 3.2 -8.55 3.95 -7.85 4.35" fill="#47316f" fill-rule="evenodd" stroke="none"/>
      <path d="M-15.1 -4.45 L-13.5 -3.75 Q-13.65 -2.4 -14.95 -3.2 -15.3 -3.35 -15.45 -3.8 L-15.1 -4.45 M6.0 -9.35 Q7.45 -8.9 6.45 -7.85 5.5 -6.95 4.9 -7.95 4.65 -8.4 5.0 -8.75 L6.0 -9.35 M6.0 -14.2 Q6.45 -14.8 7.2 -14.85 8.5 -14.65 7.55 -13.75 L5.95 -13.8 Q5.85 -14.05 6.0 -14.2 M0.3 -15.65 Q1.6 -15.1 0.5 -14.15 L0.25 -14.0 Q-1.1 -13.4 -1.2 -14.65 -1.2 -15.3 -0.55 -15.4 L0.3 -15.65 M6.5 -0.3 Q5.95 -0.6 6.05 -1.2 6.25 -2.4 7.45 -2.55 8.85 -2.05 8.15 -0.7 7.55 0.3 6.5 -0.3 M15.75 -0.6 L16.45 -0.8 Q17.7 -0.45 17.0 0.55 L16.45 0.95 Q15.25 1.2 15.25 0.05 15.2 -0.5 15.75 -0.6 M11.75 -5.65 L12.25 -6.0 Q13.55 -5.6 12.75 -4.55 L12.1 -4.45 Q11.05 -4.8 11.75 -5.65 M16.3 8.4 L16.45 8.35 Q17.85 8.55 17.2 9.65 L16.7 9.9 Q15.3 9.9 15.85 8.7 16.0 8.45 16.3 8.4 M11.35 10.5 L10.8 10.9 Q9.7 11.2 9.75 10.3 10.1 9.5 10.9 9.35 L10.9 9.3 Q12.15 9.6 11.35 10.5 M11.7 3.8 L11.6 3.95 Q10.65 4.6 9.9 3.95 9.7 3.75 9.65 3.4 9.5 2.25 10.65 2.1 11.75 2.25 11.75 3.5 L11.8 3.6 11.7 3.8 M7.05 7.8 Q6.7 8.3 6.1 8.25 4.8 8.05 5.35 6.95 5.6 6.45 6.15 6.35 L6.6 6.25 Q7.9 6.7 7.05 7.8 M3.45 11.9 L3.75 11.8 Q4.65 11.75 4.85 12.7 L4.9 12.75 4.8 12.95 4.65 13.2 Q3.3 13.65 3.1 12.45 3.0 12.0 3.45 11.9 M0.0 4.9 L0.8 4.7 Q2.3 5.25 1.15 6.35 0.7 6.8 0.05 6.6 -1.2 6.2 -0.5 5.25 L0.0 4.9 M18.35 15.45 L19.05 15.25 Q20.45 15.65 19.55 16.8 19.35 17.05 19.0 17.1 17.65 17.05 18.0 15.95 L18.35 15.45 M12.1 16.55 L12.5 16.45 Q13.9 16.9 13.1 18.15 12.45 19.1 11.35 18.45 10.7 18.05 11.0 17.4 11.35 16.75 12.1 16.55 M-9.4 -14.95 L-8.25 -14.95 -11.65 -12.4 -9.4 -14.95 M-2.85 -18.8 Q-3.45 -19.15 -3.2 -19.8 -2.9 -20.65 -1.9 -20.55 -0.7 -20.4 -1.25 -19.3 -1.75 -18.3 -2.85 -18.8 M-1.3 -2.35 Q-0.75 -2.65 -0.2 -2.75 1.25 -2.3 0.3 -1.2 L-0.2 -0.85 Q-1.65 -0.35 -1.7 -1.7 -1.7 -2.15 -1.3 -2.35 M-7.85 -2.15 Q-9.3 -2.3 -8.5 -3.4 L-8.1 -3.7 -7.75 -3.8 -7.3 -4.2 -7.1 -4.2 Q-5.85 -3.7 -6.65 -2.6 -7.1 -2.1 -7.85 -2.15 M-3.9 -9.9 Q-2.7 -9.4 -3.7 -8.4 L-5.65 -8.35 Q-6.1 -8.75 -5.7 -9.2 -4.9 -9.95 -3.9 -9.9 M-7.85 4.35 Q-8.55 3.95 -8.25 3.2 -8.0 2.45 -7.2 2.4 -5.75 2.9 -6.75 4.1 -7.25 4.65 -7.85 4.35" fill="#b39fd5" fill-rule="evenodd" stroke="none"/>
      <path d="M-13.5 -7.05 Q-10.25 -5.05 -7.0 -8.1 L-7.65 -5.4 -9.7 -3.8 -10.3 -4.35 -14.7 -5.25 -15.1 -4.45 -15.45 -3.8 -16.5 -1.8 -15.1 -0.1 -9.4 1.35 -8.95 2.5 Q-10.95 4.55 -9.45 6.7 L-9.1 7.0 Q-11.35 9.75 -14.6 7.75 -16.95 6.25 -15.75 3.8 L-19.1 3.0 -19.9 1.7 -18.25 -1.4 Q-20.9 -2.6 -19.6 -5.4 -18.9 -6.95 -17.2 -7.6 -15.3 -8.35 -13.5 -7.05 M-7.9 7.75 Q-4.9 9.2 -2.85 6.4 L-2.5 5.9 -1.75 6.2 Q-1.75 9.9 2.15 9.8 L3.6 9.4 3.95 10.8 1.35 13.25 -2.0 11.55 -3.9 12.4 Q-5.2 13.2 -6.7 12.4 -9.8 10.85 -7.9 7.75 M-2.25 4.1 L-4.95 1.15 Q-4.1 0.8 -3.35 -0.85 -2.75 -2.2 -3.2 -3.75 0.7 -4.15 0.85 -8.35 L3.0 -9.75 3.9 -9.15 Q1.35 -7.05 2.45 -4.2 -2.45 -4.05 -2.9 0.6 -3.05 1.85 -2.0 2.65 -0.8 3.55 0.65 3.4 L-1.35 5.25 -2.25 4.1 M7.05 15.9 L8.0 12.0 9.0 12.15 Q10.45 14.85 13.5 13.85 15.3 13.35 15.65 11.4 L19.0 11.7 19.35 14.4 Q16.95 14.75 17.0 17.1 L17.05 17.6 20.2 18.6 20.1 19.0 Q18.8 21.95 15.8 20.0 17.45 17.15 14.8 15.35 L14.05 14.9 13.75 14.45 13.7 14.85 Q12.2 14.85 11.15 15.65 10.1 16.45 10.1 17.55 L7.05 15.9 M18.3 6.55 L14.1 8.1 15.2 7.45 15.95 4.8 17.85 4.6 18.3 6.55 M14.95 -1.5 L13.5 1.25 11.7 1.55 12.7 -1.35 14.65 -1.65 14.95 -1.5 M12.55 -6.7 L10.45 -5.6 9.95 -4.45 10.35 -8.45 12.55 -6.7 M5.45 -1.8 L4.65 -3.05 6.25 -3.05 5.45 -1.8 M7.55 4.5 L7.55 5.7 5.1 5.7 5.1 4.5 7.55 4.5 M-3.25 -14.25 L-2.45 -14.25 -3.4 -11.35 -4.45 -10.95 -3.6 -12.95 -3.8 -13.9 -3.25 -14.25 M-13.1 1.8 L-13.1 1.85 -13.05 1.85 -13.1 1.8" fill="#362554" fill-rule="evenodd" stroke="none"/>
      <path d="M-21.9 -8.05 L-24.7 -8.05 Q-19.85 -17.95 -12.0 -23.2 L-11.55 -23.05 -21.9 -8.05" fill="#4f9c0e" fill-rule="evenodd" stroke="none"/>
      <path d="M-21.9 -8.05 L-11.55 -23.05 Q-9.8 -22.3 -11.3 -20.8 -13.35 -18.7 -14.8 -16.1 L-14.5 -16.75 -17.55 -11.7 -20.45 -8.05 -21.9 -8.05" fill="#40800b" fill-rule="evenodd" stroke="none"/>
      <path d="M-12.65 -13.95 L-14.4 -11.25 -16.8 -12.8 -17.55 -11.7 -14.5 -16.75 -14.8 -16.1 -12.65 -13.95" fill="#325c07" fill-rule="evenodd" stroke="none"/>
    </g>
  </defs>
</svg>
