<?xml version="1.0" encoding="utf-8"?>
<!-- Generator: Adobe Illustrator 28.3.0, SVG Export Plug-In . SVG Version: 6.00 Build 0)  -->
<svg version="1.1" xmlns="http://www.w3.org/2000/svg" xmlns:xlink="http://www.w3.org/1999/xlink" x="0px" y="0px"
	 viewBox="0 0 21 21" style="enable-background:new 0 0 21 21;" xml:space="preserve">
<style type="text/css">
	.st0{fill-rule:evenodd;clip-rule:evenodd;fill:url(#SVGID_1_);}
	.st1{fill:none;stroke:#FFFFFF;stroke-linecap:round;stroke-linejoin:round;}
	.st2{fill:#1F1F1F;}
</style>
<g id="Calque_3">
</g>
<g id="Calque_1">
	<g transform="matrix(1.0, 0.0, 0.0, 1.0, 0.85, -1.05)">
		<g transform="matrix(1.0, 0.0, 0.0, 1.0, 1.4, 1.6)">
			<g id="shape0" transform="matrix(1.0, 0.0, 0.0, 1.0, -1.4, -1.6)">
				
					<radialGradient id="SVGID_1_" cx="67034.5938" cy="-37690.1797" r="819.2" gradientTransform="matrix(1.400000e-02 0 0 -1.400000e-02 -929.4485 -517.1646)" gradientUnits="userSpaceOnUse">
					<stop  offset="0" style="stop-color:#FFFFFF"/>
					<stop  offset="1" style="stop-color:#FFFFFF;stop-opacity:0"/>
				</radialGradient>
				<path class="st0" d="M16.2,8.7c1.3,1.3,2,2.9,2,4.8s-0.7,3.5-2,4.8s-2.9,2-4.8,2s-3.5-0.7-4.8-2s-2-2.9-2-4.8s0.7-3.5,2-4.8
					s2.9-2,4.8-2S14.9,7.4,16.2,8.7"/>
				<path class="st1" d="M16.2,8.7c1.3,1.3,2,2.9,2,4.8s-0.7,3.5-2,4.8s-2.9,2-4.8,2s-3.5-0.7-4.8-2s-2-2.9-2-4.8s0.7-3.5,2-4.8
					s2.9-2,4.8-2S14.9,7.4,16.2,8.7z"/>
			</g>
		</g>
	</g>
</g>
<g id="Calque_2">
	<path class="st2" d="M-0.4-0.4v23.2h22.8V-0.4H-0.4z M10.9,18c-4,0-7.3-3.2-7.3-7.3c0-4,3.3-7.3,7.3-7.3c4,0,7.3,3.2,7.3,7.3
		C18.1,14.8,14.9,18,10.9,18z"/>
</g>
</svg>
