<?xml version="1.0" encoding="UTF-8" standalone="no"?>
<svg xmlns:xlink="http://www.w3.org/1999/xlink" height="59.9px" width="60.65px" xmlns="http://www.w3.org/2000/svg">
  <g transform="matrix(1.0, 0.0, 0.0, 1.0, 29.8, 32.85)">
    <use height="39.4" transform="matrix(1.0, 0.0, 0.0, 1.0, -20.05, -17.15)" width="41.2" xlink:href="#shape0"/>
  </g>
  <defs>
    <g id="shape0" transform="matrix(1.0, 0.0, 0.0, 1.0, 20.05, 17.15)">
      <path d="M1.2 -15.05 L1.6 -15.1 Q14.8 -14.75 17.9 -4.9 19.65 0.45 18.65 5.3 L18.65 5.4 Q16.4 13.75 8.8 17.9 L8.8 17.95 Q1.95 21.5 -5.55 19.15 L-5.6 19.15 Q-11.5 17.15 -15.15 12.3 L-15.25 12.2 -15.65 11.5 Q-20.3 2.8 -16.35 -6.1 -11.65 -16.85 -0.95 -15.05 L-0.85 -15.0 -0.2 -14.85 0.3 -14.65 0.6 -14.85 1.2 -15.05" fill="#ffffff" fill-rule="evenodd" stroke="none"/>
      <path d="M1.05 -16.9 L1.8 -16.95 Q16.55 -16.55 19.95 -5.35 21.85 0.5 20.75 5.85 L20.8 5.8 20.75 6.0 20.7 6.1 Q18.3 15.15 10.1 19.7 L9.85 19.85 Q2.4 23.75 -5.7 21.3 L-6.1 21.2 Q-12.55 19.0 -16.6 13.65 L-16.7 13.55 -16.8 13.4 -17.1 12.85 -17.3 12.6 Q-22.4 3.05 -18.05 -6.75 -12.7 -19.0 -0.5 -16.85 L-0.45 -16.85 -0.25 -16.8 -0.2 -16.8 0.3 -16.7 1.0 -16.9 1.05 -16.9" fill="#ffffff" fill-opacity="0.5019608" fill-rule="evenodd" stroke="none"/>
      <path d="M1.55 -13.05 L1.55 -13.1 Q13.15 -12.8 16.0 -4.25 17.55 0.55 16.7 4.9 L16.95 2.8 Q16.0 7.7 11.75 9.8 8.35 10.3 8.15 6.3 L7.95 5.4 Q7.85 4.8 7.9 4.2 7.85 -1.4 5.8 -6.5 6.4 -3.95 6.15 -0.5 5.65 6.9 -0.05 11.5 -6.75 16.75 -13.55 11.1 L-13.9 10.55 Q-18.1 2.7 -14.55 -5.3 -10.45 -14.6 -1.3 -13.05 L-0.05 -12.65 1.55 -11.9 1.55 -13.05 M8.0 -9.6 L8.05 -9.65 8.0 -9.65 8.0 -9.6 M4.35 -11.15 L4.05 -11.3 2.05 -11.55 1.8 -11.5 1.55 -11.25 1.5 -10.95 1.65 -10.7 3.65 -9.2 4.0 -9.1 4.35 -9.35 4.45 -9.55 4.5 -9.6 4.6 -10.25 4.6 -10.3 4.5 -10.9 4.35 -11.15" fill="#ffa004" fill-rule="evenodd" stroke="none"/>
      <path d="M16.7 4.9 Q15.15 10.8 10.55 14.35 L9.35 14.95 6.85 15.6 5.1 14.55 5.85 11.75 3.65 14.5 Q-1.3 17.95 -7.3 16.3 -11.0 14.45 -13.55 11.1 -6.75 16.75 -0.05 11.5 5.65 6.9 6.15 -0.5 6.4 -3.95 5.8 -6.5 7.85 -1.4 7.9 4.2 7.85 4.8 7.95 5.4 L8.15 6.3 Q8.35 10.3 11.75 9.8 16.0 7.7 16.95 2.8 L16.7 4.9 M-0.05 -12.65 Q0.35 -13.0 1.0 -13.05 L1.55 -13.05 1.55 -11.9 -0.05 -12.65" fill="#d88701" fill-rule="evenodd" stroke="none"/>
      <path d="M4.35 -11.15 L4.5 -10.9 4.6 -10.3 4.6 -10.25 4.5 -9.6 4.45 -9.55 4.35 -9.35 4.0 -9.1 3.65 -9.2 1.65 -10.7 1.5 -10.95 1.55 -11.25 1.8 -11.5 2.05 -11.55 4.05 -11.3 4.35 -11.15" fill="#559c0e" fill-rule="evenodd" stroke="none"/>
      <path d="M8.0 -9.6 L8.0 -9.65 8.05 -9.65 8.0 -9.6" fill="#fec261" fill-rule="evenodd" stroke="none"/>
      <path d="M10.55 14.35 Q4.5 19.2 0.05 17.8 -2.1 18.1 -3.6 17.8 -5.15 17.5 -7.3 16.3 -1.3 17.95 3.65 14.5 L5.85 11.75 5.1 14.55 6.85 15.6 9.35 14.95 10.55 14.35" fill="#ad6c01" fill-rule="evenodd" stroke="none"/>
    </g>
  </defs>
</svg>
