<?xml version="1.0" encoding="UTF-8" standalone="no"?>
<svg xmlns:xlink="http://www.w3.org/1999/xlink" height="59.9px" width="60.65px" xmlns="http://www.w3.org/2000/svg">
  <g transform="matrix(1.0, 0.0, 0.0, 1.0, 29.8, 32.85)">
    <use height="51.35" transform="matrix(1.0, 0.0, 0.0, 1.0, -29.8, -25.65)" width="60.25" xlink:href="#shape0"/>
  </g>
  <defs>
    <g id="shape0" transform="matrix(1.0, 0.0, 0.0, 1.0, 29.8, 25.65)">
      <path d="M17.25 -23.55 L17.9 -22.95 18.2 -22.4 Q18.7 -21.65 19.5 -21.1 L19.55 -21.05 Q25.55 -17.6 27.05 -11.15 L27.05 -11.1 27.85 -7.45 27.85 -7.3 Q28.4 -1.85 26.3 3.7 22.85 12.85 14.55 17.95 L14.55 18.0 Q7.1 22.45 -1.5 23.15 L-1.55 23.15 Q-11.55 24.0 -19.05 17.75 -21.25 15.95 -22.8 13.5 L-26.95 8.95 -27.0 8.9 -27.55 8.35 -28.05 7.3 -28.3 5.95 Q-28.4 5.35 -28.15 4.8 L-27.5 4.0 -27.4 3.95 Q-26.95 3.6 -26.35 3.6 -26.35 2.95 -26.0 2.45 L-25.95 2.4 -24.05 1.6 -23.5 1.8 Q-22.85 2.1 -22.55 2.7 L-21.0 5.5 -21.0 5.45 Q-20.25 6.6 -19.0 7.1 L-16.95 7.75 -17.0 7.75 -15.55 8.15 -15.4 8.15 Q-8.5 9.25 -2.7 7.5 3.05 5.75 6.9 2.3 10.75 -1.25 12.35 -4.3 13.8 -7.3 14.0 -9.6 14.2 -12.05 13.75 -15.95 L13.25 -17.35 11.85 -19.7 11.55 -20.55 Q11.5 -21.0 11.7 -21.45 L12.2 -22.8 Q12.4 -23.45 13.0 -23.8 L14.3 -24.05 16.45 -23.8 17.25 -23.55" fill="#ffffff" fill-rule="evenodd" stroke="none"/>
      <path d="M21.1 -22.3 Q27.8 -18.4 29.5 -11.15 L29.5 -11.1 30.3 -7.4 30.35 -7.05 Q30.95 -1.15 28.65 4.9 L28.65 4.85 Q25.0 14.55 16.2 20.05 L16.05 20.15 Q8.2 24.9 -0.85 25.6 -11.5 26.5 -19.5 20.0 -19.7 19.9 -19.85 19.75 -22.15 17.8 -23.85 15.25 L-27.9 10.8 -27.95 10.75 -28.5 10.15 Q-29.35 9.25 -29.55 8.1 L-29.55 8.05 -29.75 6.7 Q-29.95 5.55 -29.5 4.5 L-29.45 4.45 Q-29.05 3.5 -28.3 2.9 L-28.0 2.7 -27.5 2.45 -27.25 1.95 -27.2 1.9 -26.45 1.15 -26.2 1.0 -24.3 0.2 -23.25 0.1 -22.1 0.45 -22.15 0.45 Q-20.9 1.0 -20.25 2.25 L-20.25 2.3 -19.0 4.65 -18.85 4.8 -17.9 5.65 -16.15 6.2 -15.95 6.25 -14.55 6.65 -14.45 6.65 Q-8.1 7.6 -2.8 6.05 2.5 4.45 6.05 1.25 9.55 -2.0 11.05 -4.8 L11.05 -4.75 Q12.3 -7.3 12.5 -9.3 12.65 -11.5 12.3 -14.95 L11.95 -16.05 10.6 -18.25 Q10.15 -19.05 10.05 -19.95 9.95 -20.85 10.3 -21.7 L10.8 -23.05 Q11.25 -24.35 12.45 -25.05 13.65 -25.75 15.0 -25.6 L15.05 -25.6 17.15 -25.35 18.8 -24.8 20.05 -23.6 20.05 -23.65 20.4 -23.0 21.05 -22.3 21.1 -22.3" fill="#ffffff" fill-opacity="0.5019608" fill-rule="evenodd" stroke="none"/>
      <path d="M15.7 -16.45 L16.3 -16.85 Q19.0 -12.4 17.95 -7.1 L17.6 -4.75 Q16.3 2.8 7.1 9.0 L7.35 8.85 6.1 9.6 Q15.25 5.3 18.15 -4.5 L18.75 -7.1 Q18.5 -12.25 17.4 -17.6 L18.9 -17.35 20.05 -17.1 20.2 -16.9 Q24.6 -13.0 24.15 -7.1 23.8 -2.15 21.85 2.55 18.5 10.55 11.15 14.35 3.8 18.1 -5.1 18.45 -14.0 18.8 -19.55 11.85 L-18.95 11.65 Q-11.3 15.0 -3.05 13.05 0.65 12.05 4.15 10.55 -1.8 12.5 -8.2 13.35 -12.8 13.85 -17.0 12.1 -18.55 11.55 -19.1 10.1 L-17.6 9.65 -15.85 10.1 Q-8.4 11.3 -2.15 9.45 4.1 7.55 8.25 3.75 12.4 -0.05 14.1 -3.4 15.8 -6.8 16.0 -9.45 16.2 -12.15 15.7 -16.45" fill="#ffcc00" fill-rule="evenodd" stroke="none"/>
      <path d="M18.4 -19.4 L16.25 -19.35 15.85 -18.35 15.5 -18.45 15.1 -18.2 13.55 -20.75 14.05 -22.1 16.4 -21.5 18.4 -19.4 M-19.65 9.0 L-20.35 9.5 -19.15 10.95 -21.05 10.5 -21.4 11.1 -21.0 11.85 -21.2 12.3 -26.1 6.95 -26.3 5.6 -24.35 3.6 -22.65 6.6 Q-21.45 8.25 -19.65 9.0" fill="#634901" fill-rule="evenodd" stroke="none"/>
      <path d="M15.1 -18.2 L15.5 -18.45 15.85 -18.35 16.25 -19.35 18.4 -19.4 Q23.75 -16.4 25.1 -10.7 L25.85 -7.1 Q26.35 -2.1 24.4 3.0 21.2 11.5 13.5 16.25 6.45 20.5 -1.7 21.15 -10.9 21.95 -17.8 16.2 -19.8 14.55 -21.2 12.3 L-21.0 11.85 -21.4 11.1 -21.05 10.5 -19.15 10.95 -20.35 9.5 -19.65 9.0 -17.6 9.65 -19.1 10.1 Q-18.55 11.55 -17.0 12.1 -12.8 13.85 -8.2 13.35 -1.8 12.5 4.15 10.55 0.65 12.05 -3.05 13.05 -11.3 15.0 -18.95 11.65 L-19.55 11.85 Q-14.0 18.8 -5.1 18.45 3.8 18.1 11.15 14.35 18.5 10.55 21.85 2.55 23.8 -2.15 24.15 -7.1 24.6 -13.0 20.2 -16.9 L20.05 -17.1 18.9 -17.35 17.4 -17.6 Q18.5 -12.25 18.75 -7.1 L18.15 -4.5 Q15.25 5.3 6.1 9.6 L7.35 8.85 7.1 9.0 Q16.3 2.8 17.6 -4.75 L17.95 -7.1 Q19.0 -12.4 16.3 -16.85 L15.7 -16.45 15.1 -18.2" fill="#e2aa01" fill-rule="evenodd" stroke="none"/>
    </g>
  </defs>
</svg>
