<?xml version="1.0" encoding="UTF-8" standalone="no"?>
<svg xmlns:xlink="http://www.w3.org/1999/xlink" height="59.9px" width="60.65px" xmlns="http://www.w3.org/2000/svg">
  <g transform="matrix(1.0, 0.0, 0.0, 1.0, 29.8, 32.85)">
    <use height="51.65" transform="matrix(1.0, 0.0, 0.0, 1.0, -26.1, -28.6)" width="49.55" xlink:href="#shape0"/>
  </g>
  <defs>
    <g id="shape0" transform="matrix(1.0, 0.0, 0.0, 1.0, 26.1, 28.6)">
      <path d="M3.85 -26.05 L4.75 -26.45 5.85 -26.65 6.75 -26.6 7.55 -26.15 8.05 -25.7 8.65 -24.75 8.9 -23.65 8.9 -22.55 6.55 -15.4 Q9.0 -12.9 9.25 -9.35 L9.65 -4.55 Q12.2 -4.9 14.85 -4.5 L15.15 -4.4 Q16.9 -3.9 18.15 -2.85 22.3 0.2 21.4 8.2 L21.1 10.1 21.1 10.15 Q19.1 19.4 8.95 20.9 L8.85 20.9 7.45 20.95 7.25 20.95 6.75 20.9 2.2 19.7 1.6 19.4 1.45 19.3 1.45 19.35 1.15 19.15 Q-0.65 18.0 -1.8 16.3 L-1.75 16.35 -3.9 13.1 -3.95 13.2 -4.1 13.35 Q-6.4 15.9 -10.4 17.55 -15.25 19.55 -19.6 16.8 L-19.55 16.85 -20.35 16.3 -20.4 16.3 Q-23.5 14.05 -23.85 10.65 L-23.8 7.8 Q-23.75 3.4 -19.55 0.35 -17.35 -1.3 -14.6 -2.0 L-14.35 -2.5 -14.0 -3.0 Q-11.65 -5.25 -8.75 -6.9 L-8.7 -6.95 -5.1 -9.25 -5.15 -9.2 Q-3.95 -10.15 -3.2 -11.35 L-0.9 -15.6 3.3 -25.3 3.85 -26.05 M2.95 -9.2 L2.0 -7.8 2.0 -7.75 Q0.1 -5.25 -2.6 -3.4 L-2.55 -3.45 -6.15 -0.9 Q-3.95 0.8 -2.85 3.35 -1.85 1.6 -0.2 0.15 L0.0 0.0 3.15 -2.35 3.35 -2.45 3.35 -2.6 3.1 -8.1 2.95 -9.2" fill="#ffffff" fill-rule="evenodd" stroke="none"/>
      <path d="M2.45 -27.5 L2.5 -27.55 Q3.25 -28.15 4.25 -28.35 L5.35 -28.55 7.2 -28.45 Q8.05 -28.2 8.75 -27.55 L9.25 -27.1 Q10.15 -26.3 10.45 -25.1 L10.4 -25.15 10.7 -24.05 Q10.95 -22.95 10.65 -21.85 L10.65 -21.8 8.65 -15.75 Q10.8 -13.05 11.1 -9.4 L11.35 -6.6 15.0 -6.35 15.05 -6.35 15.6 -6.2 Q17.7 -5.55 19.25 -4.3 24.3 -0.8 23.25 8.5 L23.25 8.55 22.9 10.5 22.9 10.65 Q20.65 21.3 9.05 22.95 L9.3 22.95 9.15 22.95 8.85 23.0 7.3 23.05 7.1 23.05 6.05 22.9 6.1 22.9 1.55 21.7 0.5 21.3 0.4 21.25 -0.15 20.9 -0.1 20.95 Q-2.2 19.55 -3.6 17.5 L-3.65 17.45 Q-4.05 16.8 -3.9 16.1 L-3.9 15.95 -4.4 16.4 Q-6.6 18.2 -9.8 19.5 -15.6 21.9 -20.85 18.6 L-21.05 18.45 -21.7 18.05 -21.7 18.0 Q-25.6 15.2 -26.0 10.95 L-26.0 11.05 Q-26.25 9.45 -25.95 7.75 -25.9 2.5 -20.9 -1.15 -18.75 -2.75 -16.15 -3.55 L-15.55 -4.3 -15.5 -4.35 Q-13.1 -6.7 -10.0 -8.45 L-9.85 -8.6 -6.45 -10.8 -6.3 -10.9 -5.05 -12.3 -2.85 -16.35 1.3 -26.0 1.3 -25.95 Q1.65 -26.9 2.45 -27.5 M-1.45 -1.45 L-1.35 -1.55 1.15 -3.35 1.1 -3.85 -1.55 -1.7 -1.65 -1.65 -3.2 -0.55 -2.8 -0.1 -1.7 -1.25 -1.65 -1.25 -1.45 -1.45" fill="#ffffff" fill-opacity="0.5019608" fill-rule="evenodd" stroke="none"/>
      <path d="M0.95 -14.8 L5.1 -24.5 6.2 -24.7 6.7 -24.25 7.0 -23.15 Q5.65 -21.15 4.6 -18.95 3.75 -17.25 3.2 -15.35 L5.1 -14.05 Q7.05 -12.05 7.25 -9.2 L7.7 -3.75 5.35 -2.7 5.1 -8.2 Q4.95 -11.05 3.15 -13.05 3.15 -13.75 2.5 -14.25 1.85 -14.8 0.95 -14.8 M7.9 -1.05 Q8.6 1.2 7.6 3.05 L7.15 2.9 Q5.85 2.1 5.5 0.7 L7.9 -1.05 M-12.15 2.2 L-13.15 2.85 -13.9 2.6 -14.2 1.55 -13.7 0.55 -12.45 0.5 -12.15 2.2 M-12.6 -1.55 Q-10.45 -3.65 -7.75 -5.2 L-3.95 -7.65 Q-2.45 -8.8 -1.5 -10.3 -1.4 -8.7 -3.6 -7.15 L-7.8 -4.15 -11.8 -0.95 -12.6 -1.55" fill="#4f9c0e" fill-rule="evenodd" stroke="none"/>
      <path d="M7.0 -23.15 L4.25 -14.8 5.1 -14.05 3.2 -15.35 Q3.75 -17.25 4.6 -18.95 5.65 -21.15 7.0 -23.15 M7.7 -3.75 L7.9 -1.05 5.5 0.7 5.35 -2.7 7.7 -3.75 M3.15 -13.05 L0.35 -8.95 Q-1.3 -6.7 -3.7 -5.1 L-8.9 -1.4 Q-10.95 0.0 -12.15 2.2 L-12.45 0.5 -13.7 0.55 -12.6 -1.55 -11.8 -0.95 -7.8 -4.15 -3.6 -7.15 Q-1.4 -8.7 -1.5 -10.3 L0.95 -14.8 Q1.85 -14.8 2.5 -14.25 3.15 -13.75 3.15 -13.05" fill="#41750b" fill-rule="evenodd" stroke="none"/>
      <path d="M-2.45 11.65 L-2.6 10.4 Q-2.85 5.2 1.15 1.6 L1.95 3.2 2.45 2.9 2.45 2.45 3.0 1.65 2.95 1.2 4.35 -0.7 6.2 -1.65 Q10.2 -3.2 14.55 -2.5 17.25 6.8 9.85 12.55 3.45 17.6 -1.75 11.7 L-2.45 11.65 M3.65 2.2 Q2.5 3.15 2.75 4.7 L2.95 5.2 Q3.4 6.15 4.5 6.1 5.2 6.05 5.65 5.55 6.9 4.3 6.35 2.65 5.9 1.25 4.35 1.45 3.8 1.45 3.7 2.05 L3.65 2.2" fill="#dd1c1c" fill-rule="evenodd" stroke="none"/>
      <path d="M14.55 -2.5 Q15.9 -2.1 16.9 -1.3 20.15 1.3 19.4 7.95 L19.15 9.7 Q17.55 11.65 15.4 13.25 12.8 15.15 9.9 16.5 7.15 17.75 4.4 17.2 L2.5 16.9 Q1.8 17.15 2.25 17.5 0.8 16.55 -0.15 15.15 L-2.45 11.65 -1.75 11.7 Q3.45 17.6 9.85 12.55 17.25 6.8 14.55 -2.5 M1.15 1.6 L4.35 -0.7 2.95 1.2 3.0 1.65 2.45 2.45 2.45 2.9 1.95 3.2 1.15 1.6" fill="#b41616" fill-rule="evenodd" stroke="none"/>
      <path d="M19.15 9.7 Q17.4 17.65 8.65 18.9 L7.45 18.95 7.25 18.95 2.7 17.75 2.55 17.65 2.25 17.5 Q1.8 17.15 2.5 16.9 L4.4 17.2 Q7.15 17.75 9.9 16.5 12.8 15.15 15.4 13.25 17.55 11.65 19.15 9.7" fill="#881111" fill-rule="evenodd" stroke="none"/>
      <path d="M4.75 2.45 Q6.15 3.0 5.35 4.45 4.9 5.25 4.1 5.05 3.55 4.95 3.45 4.4 3.3 3.8 3.6 3.25 4.0 2.55 4.75 2.45" fill="#ffffff" fill-rule="evenodd" stroke="none"/>
      <path d="M3.65 2.2 L3.7 2.05 Q3.8 1.45 4.35 1.45 5.9 1.25 6.35 2.65 6.9 4.3 5.65 5.55 5.2 6.05 4.5 6.1 3.4 6.15 2.95 5.2 L2.75 4.7 Q2.5 3.15 3.65 2.2 M4.75 2.45 Q4.0 2.55 3.6 3.25 3.3 3.8 3.45 4.4 3.55 4.95 4.1 5.05 4.9 5.25 5.35 4.45 6.15 3.0 4.75 2.45" fill="#fbc4c4" fill-rule="evenodd" stroke="none"/>
      <path d="M-10.2 -0.55 Q-8.75 -0.3 -7.65 0.5 -5.05 2.4 -4.25 5.45 L-4.15 5.85 Q-3.75 7.7 -4.25 9.45 -4.65 10.75 -5.55 12.0 L-5.15 11.35 -8.75 13.35 Q-11.15 14.55 -13.9 14.6 L-19.2 14.7 Q-21.6 12.95 -21.9 10.35 -22.05 9.25 -21.8 8.0 L-21.35 8.9 Q-19.65 11.65 -16.5 12.05 -13.35 12.4 -10.55 10.9 -9.3 10.25 -8.65 9.05 -7.85 7.55 -7.75 5.85 -7.5 2.5 -9.7 0.0 L-10.2 -0.55" fill="#b41616" fill-rule="evenodd" stroke="none"/>
      <path d="M-10.2 -0.55 L-9.7 0.0 Q-7.5 2.5 -7.75 5.85 -7.85 7.55 -8.65 9.05 -9.3 10.25 -10.55 10.9 -13.35 12.4 -16.5 12.05 -19.65 11.65 -21.35 8.9 L-21.8 8.0 Q-21.8 4.45 -18.4 1.95 -15.0 -0.55 -10.2 -0.55 M-17.8 5.0 L-17.55 5.05 Q-15.0 5.7 -14.15 3.25 L-14.75 1.75 -15.9 1.45 Q-17.55 1.8 -18.1 3.2 -18.45 4.15 -17.8 5.0" fill="#dd1c1c" fill-rule="evenodd" stroke="none"/>
      <path d="M-19.2 14.7 L-13.9 14.6 Q-11.15 14.55 -8.75 13.35 L-5.15 11.35 -5.55 12.0 Q-7.6 14.25 -11.15 15.7 -15.05 17.3 -18.55 15.1 L-19.2 14.7" fill="#881111" fill-rule="evenodd" stroke="none"/>
      <path d="M-17.65 2.6 Q-17.9 3.05 -17.75 3.5 -17.2 4.85 -16.0 4.05 L-15.75 3.75 Q-15.25 2.5 -16.55 2.0 -17.3 1.95 -17.65 2.6 M-17.8 5.0 Q-18.45 4.15 -18.1 3.2 -17.55 1.8 -15.9 1.45 L-14.75 1.75 -14.15 3.25 Q-15.0 5.7 -17.55 5.05 L-17.8 5.0" fill="#fbc4c4" fill-rule="evenodd" stroke="none"/>
      <path d="M-17.65 2.6 Q-17.3 1.95 -16.55 2.0 -15.25 2.5 -15.75 3.75 L-16.0 4.05 Q-17.2 4.85 -17.75 3.5 -17.9 3.05 -17.65 2.6" fill="#ffffff" fill-rule="evenodd" stroke="none"/>
    </g>
  </defs>
</svg>
