<?xml version="1.0" encoding="UTF-8" standalone="no"?>
<svg xmlns:xlink="http://www.w3.org/1999/xlink" height="59.9px" width="60.65px" xmlns="http://www.w3.org/2000/svg">
  <g transform="matrix(1.0, 0.0, 0.0, 1.0, 29.8, 32.85)">
    <use height="44.35" transform="matrix(1.0, 0.0, 0.0, 1.0, -23.5, -21.4)" width="47.6" xlink:href="#shape0"/>
  </g>
  <defs>
    <g id="shape0" transform="matrix(1.0, 0.0, 0.0, 1.0, 23.5, 21.4)">
      <path d="M13.8 -19.8 Q15.8 -18.9 17.6 -17.55 21.75 -17.5 23.15 -14.35 L23.2 -14.3 Q24.8 -12.0 23.6 -7.2 25.5 4.75 17.3 14.2 10.0 22.7 -1.5 22.95 -7.5 23.1 -14.15 21.3 L-17.5 21.4 Q-20.05 21.3 -21.85 19.0 L-21.9 18.9 Q-23.45 16.9 -23.5 14.1 L-23.5 14.05 -23.45 13.45 -23.05 9.65 -22.55 3.65 -22.55 3.6 Q-22.3 0.75 -21.6 -1.95 L-21.6 -2.15 Q-20.95 -4.8 -19.75 -7.2 L-19.7 -7.2 Q-18.55 -9.6 -16.7 -11.6 -14.3 -14.2 -11.45 -16.3 L-6.45 -19.55 -6.3 -19.65 -6.25 -19.65 Q-3.0 -21.2 0.6 -21.35 L0.7 -21.35 5.55 -21.4 Q9.6 -21.45 13.4 -20.0 L13.8 -19.8" fill="#ffffff" fill-opacity="0.5019608" fill-rule="evenodd" stroke="none"/>
      <path d="M16.8 -15.9 L16.9 -15.8 16.95 -15.75 Q20.4 -15.9 21.45 -13.45 22.65 -11.6 21.55 -7.5 23.5 3.8 15.8 12.65 L15.75 12.7 Q9.05 20.5 -1.55 20.75 -7.55 20.85 -14.2 19.0 L-17.3 19.2 Q-19.1 19.15 -20.35 17.45 -21.5 15.95 -21.5 13.85 L-21.5 13.55 -21.05 9.65 -21.05 9.6 -20.55 3.65 -20.55 3.6 Q-20.3 0.8 -19.65 -1.85 -19.05 -4.3 -17.95 -6.5 -16.85 -8.65 -15.2 -10.45 -12.95 -12.95 -10.25 -14.9 L-10.25 -14.95 Q-8.0 -16.7 -5.45 -18.0 L-5.4 -18.05 Q-2.55 -19.45 0.7 -19.55 L5.55 -19.6 Q9.2 -19.65 12.7 -18.3 L12.75 -18.25 Q14.95 -17.35 16.8 -15.9" fill="#ffffff" fill-rule="evenodd" stroke="none"/>
      <path d="M-19.5 13.85 L-19.05 9.8 -18.55 3.8 -17.7 -1.4 Q-17.15 -3.6 -16.15 -5.6 -15.2 -7.5 -13.75 -9.1 -11.6 -11.45 -9.05 -13.35 -6.95 -15.0 -4.55 -16.25 -2.05 -17.45 0.75 -17.55 L5.55 -17.6 Q8.85 -17.65 11.95 -16.45 13.9 -15.6 15.55 -14.3 L17.95 -9.85 17.3 -8.9 17.45 -6.15 15.9 -5.1 17.7 -3.4 16.0 -2.25 14.95 -3.15 14.0 -2.05 14.65 0.1 15.8 0.4 17.2 -0.4 13.85 3.75 12.75 2.75 11.9 6.8 13.2 7.15 4.15 9.15 3.2 12.0 5.25 10.05 5.95 12.55 -0.35 15.3 0.05 12.7 -2.9 15.85 -1.8 16.1 -3.45 16.15 -2.55 13.55 -4.55 12.85 -5.3 14.45 -7.9 14.1 -8.35 13.05 -9.25 14.25 -8.55 15.45 -10.8 14.9 -9.35 13.9 -10.4 13.25 -11.95 14.45 -16.75 12.1 -16.1 14.2 -17.15 14.95 -19.5 13.85 M11.75 -14.9 L11.75 -15.3 11.35 -15.3 11.35 -14.9 11.75 -14.9 M1.55 -13.05 Q2.55 -13.85 1.4 -14.35 L1.1 -14.25 Q0.15 -13.7 1.0 -13.05 1.3 -12.85 1.55 -13.05 M0.0 -14.2 L0.0 -14.25 -0.5 -14.7 -1.3 -14.25 -1.35 -14.0 -1.3 -13.9 Q-0.4 -13.25 0.0 -14.2 M1.05 -16.05 L1.05 -15.85 1.1 -15.75 Q1.4 -15.3 1.9 -15.5 3.1 -16.05 2.0 -16.65 L1.8 -16.6 Q1.3 -16.55 1.05 -16.15 L1.05 -16.05 M9.05 10.4 L8.2 9.75 10.7 9.65 7.7 12.55 9.05 10.4 M7.75 7.0 L8.6 8.05 11.9 6.4 7.75 7.0 M-1.1 11.95 L-0.7 12.2 Q0.1 12.1 0.45 11.55 L0.45 11.45 Q0.4 11.05 0.0 11.0 -1.1 11.0 -1.1 11.95 M0.8 11.95 Q1.2 12.55 1.75 12.1 2.7 11.4 1.65 10.85 0.7 11.05 0.8 11.95 M2.15 12.3 L2.15 12.35 Q1.5 12.35 1.15 12.85 L1.15 13.15 1.25 13.45 Q2.2 14.0 2.65 12.85 L2.65 12.75 Q2.55 12.35 2.15 12.3 M-0.15 8.05 L-0.35 8.45 -0.15 8.85 0.25 9.0 0.7 8.85 0.85 8.45 0.7 8.05 0.25 7.9 Q0.0 7.9 -0.15 8.05 M2.5 8.95 L2.2 9.0 Q1.25 9.4 1.35 10.35 L2.75 10.4 3.0 10.15 Q3.9 9.15 2.5 8.95 M3.85 6.05 L3.6 6.1 3.15 6.45 Q3.0 6.85 3.4 7.0 4.5 7.4 4.65 6.5 L4.6 6.4 3.85 6.05 M2.0 6.05 Q1.9 5.65 1.45 5.6 0.65 5.75 0.35 6.5 0.25 6.75 0.5 6.85 1.5 7.2 2.0 6.15 L2.0 6.05 M2.25 1.25 L2.4 0.9 2.35 0.8 1.9 0.45 1.7 0.5 1.4 0.75 Q1.25 1.5 2.05 1.45 L2.25 1.25 M5.7 5.35 Q6.05 6.45 7.15 5.65 8.2 4.9 7.05 4.4 6.35 4.45 5.85 4.9 5.65 5.1 5.7 5.35 M5.65 1.5 Q5.55 1.1 5.15 1.05 4.85 1.1 4.7 1.35 L4.7 1.65 5.7 1.6 5.65 1.5 M9.45 0.6 Q9.3 0.45 9.05 0.45 8.8 0.45 8.65 0.6 8.5 0.75 8.5 0.95 L8.65 1.3 9.05 1.45 9.45 1.3 9.6 0.95 9.45 0.6 M10.75 2.6 Q10.6 2.45 10.4 2.45 10.2 2.45 10.05 2.6 9.9 2.75 9.9 3.0 L10.05 3.4 10.4 3.55 10.75 3.4 10.9 3.0 10.75 2.6 M12.5 -1.35 Q11.65 -1.0 11.0 -0.3 L11.0 -0.2 11.05 0.0 11.05 0.1 Q11.7 0.75 12.45 0.1 13.55 -0.75 12.5 -1.35 M12.45 -3.75 L12.35 -5.0 11.1 -3.5 12.45 -3.75 M14.55 -9.1 L14.55 -9.05 Q13.6 -8.85 13.7 -8.0 14.1 -7.45 14.65 -7.85 15.6 -8.65 14.55 -9.1 M16.5 -7.7 L16.2 -7.5 Q16.05 -6.7 16.85 -6.8 L17.05 -6.95 17.2 -7.3 17.15 -7.4 16.7 -7.75 16.5 -7.7 M9.7 -2.05 L10.0 -2.15 10.1 -2.45 10.0 -2.7 9.7 -2.85 9.45 -2.7 9.3 -2.45 9.45 -2.15 Q9.55 -2.05 9.7 -2.05 M7.9 -3.8 L8.05 -4.15 7.9 -4.45 7.45 -4.6 7.05 -4.45 6.85 -4.15 7.05 -3.8 7.45 -3.7 7.9 -3.8 M4.4 -3.3 L4.35 -2.85 Q4.95 -2.3 5.25 -3.0 L5.25 -3.1 4.8 -3.55 4.65 -3.5 4.55 -3.5 4.4 -3.3 M5.0 -7.9 L4.55 -8.35 4.4 -8.3 4.3 -8.3 4.15 -8.1 4.1 -7.65 Q4.7 -7.1 5.0 -7.8 L5.0 -7.9 M0.25 -6.7 Q1.2 -7.65 0.0 -8.1 -1.1 -7.85 -1.1 -6.8 L-0.85 -6.55 Q-0.25 -6.15 0.25 -6.7 M9.85 -8.95 L9.8 -8.5 Q10.4 -8.0 10.7 -8.7 L10.7 -8.75 10.25 -9.2 10.05 -9.15 10.0 -9.15 9.85 -8.95 M7.75 -10.8 L7.6 -11.2 7.2 -11.35 6.8 -11.2 6.65 -10.8 Q6.65 -10.55 6.8 -10.4 6.95 -10.25 7.2 -10.25 L7.6 -10.4 7.75 -10.8 M-4.7 -12.1 L-2.45 -13.9 -4.2 -14.95 -5.05 -13.1 -6.95 -13.0 -8.5 -11.4 -10.55 -10.35 -10.6 -9.8 -11.65 -10.25 -12.65 -9.45 -9.8 -8.5 -9.15 -9.55 -7.55 -10.3 -8.3 -9.35 -7.15 -8.9 -4.75 -10.1 -4.75 -12.15 -4.7 -12.1 M-13.2 -4.95 Q-13.05 -5.1 -13.05 -5.3 L-13.2 -5.65 -13.55 -5.8 -13.9 -5.65 -14.05 -5.3 -13.9 -4.95 Q-13.75 -4.8 -13.55 -4.8 -13.35 -4.8 -13.2 -4.95 M-11.0 -8.05 L-11.25 -7.95 -11.45 -7.7 Q-11.4 -6.65 -10.05 -6.9 L-9.9 -7.15 Q-9.75 -8.2 -11.0 -8.05 M-12.85 -7.95 L-13.35 -7.75 -13.55 -7.3 -13.35 -6.85 -12.85 -6.65 Q-12.55 -6.65 -12.35 -6.85 L-12.15 -7.3 -12.35 -7.75 -12.85 -7.95 M-0.25 -12.8 L-0.75 -13.25 -2.05 -12.65 -1.95 -12.3 Q-0.8 -11.45 -0.25 -12.7 L-0.25 -12.8 M-2.15 -14.25 L-2.3 -13.95 -2.15 -13.6 -1.85 -13.5 Q-1.65 -13.5 -1.5 -13.6 L-1.4 -13.95 -1.5 -14.25 -1.85 -14.4 -2.15 -14.25 M-14.45 -0.8 L-14.45 -0.35 -14.05 -0.35 -14.05 -0.8 -14.45 -0.8 M-5.7 -6.55 L-5.9 -6.45 Q-6.85 -5.9 -5.95 -5.25 -5.7 -5.1 -5.5 -5.25 -4.5 -6.05 -5.7 -6.55 M-8.35 -7.95 Q-8.45 -7.65 -8.2 -7.45 -7.1 -6.75 -6.6 -7.75 L-6.6 -7.8 Q-6.85 -8.4 -7.5 -8.3 L-7.7 -8.3 Q-8.1 -8.3 -8.35 -7.95 M-9.55 -6.25 L-9.65 -6.25 -9.8 -6.05 -9.85 -5.6 Q-9.25 -5.05 -8.95 -5.75 L-8.95 -5.85 Q-9.0 -6.25 -9.4 -6.3 L-9.55 -6.25 M-6.15 -11.0 Q-6.9 -10.9 -5.7 -11.15 L-6.15 -11.0 M-2.9 -7.05 L-2.75 -7.35 -2.9 -7.6 -3.3 -7.75 -3.7 -7.6 -3.85 -7.35 -3.7 -7.05 -3.3 -6.95 -2.9 -7.05 M-3.85 -9.75 L-4.15 -9.6 -4.3 -9.35 -4.15 -9.05 -3.85 -8.95 -3.5 -9.05 -3.4 -9.35 -3.5 -9.6 -3.85 -9.75 M-2.2 -11.2 L-2.3 -11.45 -2.6 -11.6 -2.85 -11.45 -3.0 -11.2 -2.85 -10.9 -2.6 -10.8 -2.3 -10.9 -2.2 -11.2 M-14.55 12.9 Q-13.95 13.1 -13.45 12.7 -12.45 11.85 -13.55 11.35 -14.45 11.55 -14.95 12.4 L-14.95 12.5 -14.95 12.55 -14.9 12.65 -14.55 12.9 M-11.2 8.8 Q-11.4 8.4 -11.9 8.45 L-12.15 8.5 -12.25 8.55 -12.4 8.75 -12.3 9.25 Q-11.45 9.9 -11.15 8.9 L-11.2 8.8 M-10.4 11.45 L-11.2 11.75 Q-11.65 11.95 -11.45 12.4 -11.0 13.2 -10.2 12.6 -9.35 11.9 -10.4 11.45 M-12.4 5.2 Q-12.15 5.4 -11.95 5.2 -11.05 4.45 -12.15 4.0 L-12.35 4.05 Q-13.25 4.6 -12.4 5.2 M-3.05 11.1 Q-3.6 11.1 -3.4 11.25 -2.6 11.85 -3.05 11.1 M-4.75 9.2 L-4.9 9.25 -5.2 9.5 Q-5.35 10.25 -4.55 10.15 L-4.35 10.0 -4.2 9.65 -4.25 9.55 Q-4.4 9.25 -4.75 9.2 M-7.85 9.75 L-8.2 9.85 Q-8.7 10.1 -8.45 10.65 -7.75 12.05 -6.8 10.95 L-6.9 10.85 -6.9 10.75 Q-7.05 9.9 -7.85 9.75 M-7.6 8.35 Q-8.2 8.35 -8.6 8.8 L-8.5 9.35 Q-8.05 9.9 -7.5 9.55 -6.45 8.85 -7.6 8.35 M-0.95 5.9 L-1.4 5.75 -1.8 5.9 -2.0 6.3 -1.8 6.7 -1.4 6.85 -0.95 6.7 -0.8 6.3 Q-0.8 6.05 -0.95 5.9 M-4.75 5.6 L-4.7 6.05 Q-3.8 7.1 -2.85 6.05 -1.7 4.8 -3.3 4.2 -4.35 4.5 -4.75 5.6 M-3.9 1.3 Q-3.0 0.5 -4.3 0.1 L-4.55 0.2 -4.9 0.45 Q-5.05 1.15 -4.3 1.35 L-3.9 1.3 M-0.7 2.2 Q-1.25 2.45 -1.1 3.0 L-0.9 3.2 -0.4 3.25 Q0.55 2.6 -0.5 2.15 L-0.7 2.2 M-17.05 17.2 L-16.7 16.95 -17.05 17.2 M-7.4 15.8 L-5.55 15.5 -4.55 16.15 -7.4 15.8 M-6.05 13.15 L-6.25 12.9 -6.85 12.75 Q-7.2 12.75 -7.4 12.9 L-7.65 13.15 -7.4 13.45 -6.85 13.55 -6.25 13.45 -6.05 13.15" fill="#e3ef05" fill-rule="evenodd" stroke="none"/>
      <path d="M15.55 -14.3 L16.25 -13.7 Q21.5 -14.4 19.5 -7.6 21.5 3.05 14.25 11.35 8.1 18.55 -1.6 18.75 -7.75 18.85 -14.6 16.8 -15.35 17.55 -17.05 17.2 -18.05 17.2 -18.75 16.25 -19.5 15.25 -19.5 13.85 L-17.15 14.95 -16.1 14.2 -16.75 12.1 -11.95 14.45 -10.4 13.25 -9.35 13.9 -10.8 14.9 -8.55 15.45 -9.25 14.25 -8.35 13.05 -7.9 14.1 -5.3 14.45 -4.55 12.85 -2.55 13.55 -3.45 16.15 -1.8 16.1 -2.9 15.85 0.05 12.7 -0.35 15.3 5.95 12.55 5.25 10.05 3.2 12.0 4.15 9.15 13.2 7.15 11.9 6.8 12.75 2.75 13.85 3.75 17.2 -0.4 15.8 0.4 14.65 0.1 14.0 -2.05 14.95 -3.15 16.0 -2.25 17.7 -3.4 15.9 -5.1 17.45 -6.15 17.3 -8.9 17.95 -9.85 15.55 -14.3 M11.75 -14.9 L11.35 -14.9 11.35 -15.3 11.75 -15.3 11.75 -14.9 M7.75 -10.8 L7.6 -10.4 7.2 -10.25 Q6.95 -10.25 6.8 -10.4 6.65 -10.55 6.65 -10.8 L6.8 -11.2 7.2 -11.35 7.6 -11.2 7.75 -10.8 M9.85 -8.95 L10.0 -9.15 10.05 -9.15 10.25 -9.2 10.7 -8.75 10.7 -8.7 Q10.4 -8.0 9.8 -8.5 L9.85 -8.95 M0.25 -6.7 Q-0.25 -6.15 -0.85 -6.55 L-1.1 -6.8 Q-1.1 -7.85 0.0 -8.1 1.2 -7.65 0.25 -6.7 M5.0 -7.9 L5.0 -7.8 Q4.7 -7.1 4.1 -7.65 L4.15 -8.1 4.3 -8.3 4.4 -8.3 4.55 -8.35 5.0 -7.9 M4.4 -3.3 L4.55 -3.5 4.65 -3.5 4.8 -3.55 5.25 -3.1 5.25 -3.0 Q4.95 -2.3 4.35 -2.85 L4.4 -3.3 M7.9 -3.8 L7.45 -3.7 7.05 -3.8 6.85 -4.15 7.05 -4.45 7.45 -4.6 7.9 -4.45 8.05 -4.15 7.9 -3.8 M9.7 -2.05 Q9.55 -2.05 9.45 -2.15 L9.3 -2.45 9.45 -2.7 9.7 -2.85 10.0 -2.7 10.1 -2.45 10.0 -2.15 9.7 -2.05 M16.5 -7.7 L16.7 -7.75 17.15 -7.4 17.2 -7.3 17.05 -6.95 16.85 -6.8 Q16.05 -6.7 16.2 -7.5 L16.5 -7.7 M14.55 -9.1 Q15.6 -8.65 14.65 -7.85 14.1 -7.45 13.7 -8.0 13.6 -8.85 14.55 -9.05 L14.55 -9.1 M12.45 -3.75 L11.1 -3.5 12.35 -5.0 12.45 -3.75 M12.5 -1.35 Q13.55 -0.75 12.45 0.1 11.7 0.75 11.05 0.1 L11.05 0.0 11.0 -0.2 11.0 -0.3 Q11.65 -1.0 12.5 -1.35 M10.75 2.6 L10.9 3.0 10.75 3.4 10.4 3.55 10.05 3.4 9.9 3.0 Q9.9 2.75 10.05 2.6 10.2 2.45 10.4 2.45 10.6 2.45 10.75 2.6 M9.45 0.6 L9.6 0.95 9.45 1.3 9.05 1.45 8.65 1.3 8.5 0.95 Q8.5 0.75 8.65 0.6 8.8 0.45 9.05 0.45 9.3 0.45 9.45 0.6 M5.65 1.5 L5.7 1.6 4.7 1.65 4.7 1.35 Q4.85 1.1 5.15 1.05 5.55 1.1 5.65 1.5 M5.7 5.35 Q5.65 5.1 5.85 4.9 6.35 4.45 7.05 4.4 8.2 4.9 7.15 5.65 6.05 6.45 5.7 5.35 M2.25 1.25 L2.05 1.45 Q1.25 1.5 1.4 0.75 L1.7 0.5 1.9 0.45 2.35 0.8 2.4 0.9 2.25 1.25 M2.0 6.05 L2.0 6.15 Q1.5 7.2 0.5 6.85 0.25 6.75 0.35 6.5 0.65 5.75 1.45 5.6 1.9 5.65 2.0 6.05 M3.85 6.05 L4.6 6.4 4.65 6.5 Q4.5 7.4 3.4 7.0 3.0 6.85 3.15 6.45 L3.6 6.1 3.85 6.05 M2.5 8.95 Q3.9 9.15 3.0 10.15 L2.75 10.4 1.35 10.35 Q1.25 9.4 2.2 9.0 L2.5 8.95 M-0.15 8.05 Q0.0 7.9 0.25 7.9 L0.7 8.05 0.85 8.45 0.7 8.85 0.25 9.0 -0.15 8.85 -0.35 8.45 -0.15 8.05 M2.15 12.3 Q2.55 12.35 2.65 12.75 L2.65 12.85 Q2.2 14.0 1.25 13.45 L1.15 13.15 1.15 12.85 Q1.5 12.35 2.15 12.35 L2.15 12.3 M0.8 11.95 Q0.7 11.05 1.65 10.85 2.7 11.4 1.75 12.1 1.2 12.55 0.8 11.95 M-1.1 11.95 Q-1.1 11.0 0.0 11.0 0.4 11.05 0.45 11.45 L0.45 11.55 Q0.1 12.1 -0.7 12.2 L-1.1 11.95 M7.75 7.0 L11.9 6.4 8.6 8.05 7.75 7.0 M9.05 10.4 L7.7 12.55 10.7 9.65 8.2 9.75 9.05 10.4 M-14.45 -0.8 L-14.05 -0.8 -14.05 -0.35 -14.45 -0.35 -14.45 -0.8 M-0.7 2.2 L-0.5 2.15 Q0.55 2.6 -0.4 3.25 L-0.9 3.2 -1.1 3.0 Q-1.25 2.45 -0.7 2.2 M-3.9 1.3 L-4.3 1.35 Q-5.05 1.15 -4.9 0.45 L-4.55 0.2 -4.3 0.1 Q-3.0 0.5 -3.9 1.3 M-4.75 5.6 Q-4.35 4.5 -3.3 4.2 -1.7 4.8 -2.85 6.05 -3.8 7.1 -4.7 6.05 L-4.75 5.6 M-0.95 5.9 Q-0.8 6.05 -0.8 6.3 L-0.95 6.7 -1.4 6.85 -1.8 6.7 -2.0 6.3 -1.8 5.9 -1.4 5.75 -0.95 5.9 M-7.6 8.35 Q-6.45 8.85 -7.5 9.55 -8.05 9.9 -8.5 9.35 L-8.6 8.8 Q-8.2 8.35 -7.6 8.35 M-7.85 9.75 Q-7.05 9.9 -6.9 10.75 L-6.9 10.85 -6.8 10.95 Q-7.75 12.05 -8.45 10.65 -8.7 10.1 -8.2 9.85 L-7.85 9.75 M-4.75 9.2 Q-4.4 9.25 -4.25 9.55 L-4.2 9.65 -4.35 10.0 -4.55 10.15 Q-5.35 10.25 -5.2 9.5 L-4.9 9.25 -4.75 9.2 M-3.05 11.1 Q-2.6 11.85 -3.4 11.25 -3.6 11.1 -3.05 11.1 M-12.4 5.2 Q-13.25 4.6 -12.35 4.05 L-12.15 4.0 Q-11.05 4.45 -11.95 5.2 -12.15 5.4 -12.4 5.2 M-10.4 11.45 Q-9.35 11.9 -10.2 12.6 -11.0 13.2 -11.45 12.4 -11.65 11.95 -11.2 11.75 L-10.4 11.45 M-11.2 8.8 L-11.15 8.9 Q-11.45 9.9 -12.3 9.25 L-12.4 8.75 -12.25 8.55 -12.15 8.5 -11.9 8.45 Q-11.4 8.4 -11.2 8.8 M-14.55 12.9 L-14.9 12.65 -14.95 12.55 -14.95 12.5 -14.95 12.4 Q-14.45 11.55 -13.55 11.35 -12.45 11.85 -13.45 12.7 -13.95 13.1 -14.55 12.9 M-17.05 17.2 L-16.7 16.95 -17.05 17.2 M-6.05 13.15 L-6.25 13.45 -6.85 13.55 -7.4 13.45 -7.65 13.15 -7.4 12.9 Q-7.2 12.75 -6.85 12.75 L-6.25 12.9 -6.05 13.15 M-7.4 15.8 L-4.55 16.15 -5.55 15.5 -7.4 15.8" fill="#cbd504" fill-rule="evenodd" stroke="none"/>
      <path d="M1.05 -16.05 L1.05 -16.15 Q1.3 -16.55 1.8 -16.6 L2.0 -16.65 Q3.1 -16.05 1.9 -15.5 1.4 -15.3 1.1 -15.75 L1.05 -15.85 1.05 -16.05 M0.0 -14.2 Q-0.4 -13.25 -1.3 -13.9 L-1.35 -14.0 -1.3 -14.25 -0.5 -14.7 0.0 -14.25 0.0 -14.2 M1.55 -13.05 Q1.3 -12.85 1.0 -13.05 0.15 -13.7 1.1 -14.25 L1.4 -14.35 Q2.55 -13.85 1.55 -13.05 M-5.05 -13.1 L-4.2 -14.95 -2.45 -13.9 -4.7 -12.1 -5.05 -13.1 M-4.75 -12.15 L-4.75 -10.1 -7.15 -8.9 -8.3 -9.35 -7.55 -10.3 -9.15 -9.55 -9.8 -8.5 -12.65 -9.45 -11.65 -10.25 -10.6 -9.8 -9.35 -10.5 -10.55 -10.35 -8.5 -11.4 -5.95 -11.2 -4.75 -12.15 M-2.15 -14.25 L-1.85 -14.4 -1.5 -14.25 -1.4 -13.95 -1.5 -13.6 Q-1.65 -13.5 -1.85 -13.5 L-2.15 -13.6 -2.3 -13.95 -2.15 -14.25 M-0.25 -12.8 L-0.25 -12.7 Q-0.8 -11.45 -1.95 -12.3 L-2.05 -12.65 -0.75 -13.25 -0.25 -12.8 M-12.85 -7.95 L-12.35 -7.75 -12.15 -7.3 -12.35 -6.85 Q-12.55 -6.65 -12.85 -6.65 L-13.35 -6.85 -13.55 -7.3 -13.35 -7.75 -12.85 -7.95 M-11.0 -8.05 Q-9.75 -8.2 -9.9 -7.15 L-10.05 -6.9 Q-11.4 -6.65 -11.45 -7.7 L-11.25 -7.95 -11.0 -8.05 M-13.2 -4.95 Q-13.35 -4.8 -13.55 -4.8 -13.75 -4.8 -13.9 -4.95 L-14.05 -5.3 -13.9 -5.65 -13.55 -5.8 -13.2 -5.65 -13.05 -5.3 Q-13.05 -5.1 -13.2 -4.95 M-2.2 -11.2 L-2.3 -10.9 -2.6 -10.8 -2.85 -10.9 -3.0 -11.2 -2.85 -11.45 -2.6 -11.6 -2.3 -11.45 -2.2 -11.2 M-3.85 -9.75 L-3.5 -9.6 -3.4 -9.35 -3.5 -9.05 -3.85 -8.95 -4.15 -9.05 -4.3 -9.35 -4.15 -9.6 -3.85 -9.75 M-2.9 -7.05 L-3.3 -6.95 -3.7 -7.05 -3.85 -7.35 -3.7 -7.6 -3.3 -7.75 -2.9 -7.6 -2.75 -7.35 -2.9 -7.05 M-6.15 -11.0 L-5.7 -11.15 Q-6.9 -10.9 -6.15 -11.0 M-9.55 -6.25 L-9.4 -6.3 Q-9.0 -6.25 -8.95 -5.85 L-8.95 -5.75 Q-9.25 -5.05 -9.85 -5.6 L-9.8 -6.05 -9.65 -6.25 -9.55 -6.25 M-8.35 -7.95 Q-8.1 -8.3 -7.7 -8.3 L-7.5 -8.3 Q-6.85 -8.4 -6.6 -7.8 L-6.6 -7.75 Q-7.1 -6.75 -8.2 -7.45 -8.45 -7.65 -8.35 -7.95 M-5.7 -6.55 Q-4.5 -6.05 -5.5 -5.25 -5.7 -5.1 -5.95 -5.25 -6.85 -5.9 -5.9 -6.45 L-5.7 -6.55" fill="#fefdc0" fill-rule="evenodd" stroke="none"/>
      <path d="M-4.7 -12.1 L-4.75 -12.15 -5.95 -11.2 -8.5 -11.4 -6.95 -13.0 -5.05 -13.1 -4.7 -12.1 M-10.6 -9.8 L-10.55 -10.35 -9.35 -10.5 -10.6 -9.8" fill="#ffffff" fill-rule="evenodd" stroke="none"/>
    </g>
  </defs>
</svg>
