<?xml version="1.0" encoding="UTF-8" standalone="no"?>
<svg xmlns:xlink="http://www.w3.org/1999/xlink" height="59.9px" width="60.65px" xmlns="http://www.w3.org/2000/svg">
  <g transform="matrix(1.0, 0.0, 0.0, 1.0, 29.8, 32.85)">
    <use height="39.4" transform="matrix(1.0, 0.0, 0.0, 1.0, -17.55, -20.75)" width="38.95" xlink:href="#shape0"/>
  </g>
  <defs>
    <g id="shape0" transform="matrix(1.0, 0.0, 0.0, 1.0, 17.55, 20.75)">
      <path d="M14.3 -13.6 L15.1 -12.6 Q15.3 -11.95 15.1 -11.3 L14.3 -10.3 14.05 -10.1 14.6 -9.35 18.4 -7.8 19.4 -6.85 Q19.75 -6.15 19.55 -5.45 19.35 -4.7 18.7 -4.3 18.2 -3.95 17.6 -3.95 18.2 -1.95 18.15 0.25 L18.15 0.3 Q18.05 2.55 16.95 4.35 L16.95 4.3 16.4 5.15 16.4 5.1 16.3 5.25 16.25 5.35 14.85 7.0 14.65 7.2 11.3 10.2 11.25 10.2 Q9.85 11.15 8.25 11.9 L6.05 12.65 5.95 12.65 3.85 13.35 1.45 14.1 0.85 14.3 0.9 14.3 0.4 14.45 -3.05 15.5 -3.1 15.5 -5.0 16.0 -4.85 15.95 -5.2 16.05 -5.05 16.0 -7.0 16.45 -7.0 16.4 -8.8 16.45 -8.85 16.45 -9.15 16.4 -11.55 15.7 -11.5 15.7 Q-14.1 14.55 -15.1 12.0 L-15.1 11.95 Q-15.9 10.1 -15.35 7.65 L-15.4 7.7 -13.55 -0.75 -13.6 -0.7 -10.9 -10.45 -10.9 -10.4 Q-8.7 -18.45 -2.0 -17.55 L0.6 -17.25 0.85 -17.6 1.5 -18.3 Q1.95 -18.8 2.55 -18.9 L3.75 -18.8 4.65 -18.05 6.15 -15.75 7.8 -15.0 9.15 -14.55 9.2 -14.5 10.05 -13.75 13.05 -13.95 14.3 -13.6" fill="#ffffff" fill-rule="evenodd" stroke="none"/>
      <path d="M-0.15 -19.4 L-0.1 -19.45 Q1.05 -20.95 3.3 -20.75 L3.8 -20.6 5.5 -19.55 5.5 -19.5 7.4 -17.25 9.3 -16.5 9.4 -16.45 10.15 -15.95 10.65 -15.65 12.9 -15.8 13.5 -15.75 15.0 -15.25 15.2 -15.1 Q17.95 -13.55 16.9 -10.55 L16.85 -10.35 19.8 -8.65 Q21.1 -7.95 21.35 -6.2 L21.35 -6.3 Q21.65 -4.8 20.7 -3.3 20.35 -2.7 19.7 -2.45 L19.85 0.35 19.85 0.4 Q19.9 4.15 17.75 6.75 L17.75 6.8 14.3 10.4 12.3 11.95 12.2 12.0 9.05 13.75 8.9 13.8 6.55 14.7 0.95 16.5 0.9 16.55 -2.55 17.55 -2.7 17.6 -4.3 18.05 -10.85 18.25 -10.9 18.25 Q-13.2 17.6 -15.1 15.8 L-15.15 15.75 Q-17.9 12.85 -17.5 8.85 L-16.45 2.85 -15.6 -0.9 -15.55 -1.05 -15.0 -2.95 -15.0 -3.05 -12.85 -10.75 Q-12.05 -13.8 -10.15 -16.2 -7.75 -19.3 -3.6 -19.35 L-0.3 -19.2 -0.15 -19.4" fill="#ffffff" fill-opacity="0.5019608" fill-rule="evenodd" stroke="none"/>
      <path d="M4.85 -14.1 L7.2 -13.05 6.8 -12.45 5.6 -12.9 4.85 -14.1 M8.4 -12.35 L9.45 -11.7 8.75 -11.6 8.4 -12.35 M11.0 -10.45 L11.85 -9.6 10.85 -10.35 11.0 -10.45 M-13.25 11.25 Q-13.8 9.9 -13.4 8.05 L-11.65 -0.25 -9.0 -9.9 Q-7.25 -16.1 -2.2 -15.55 L2.85 -14.8 3.25 -13.6 Q2.1 -13.85 2.25 -12.9 L2.25 -12.8 -2.85 -14.55 -2.95 -13.35 0.2 -11.6 -2.0 -11.8 -1.5 -9.9 -2.95 -9.9 -3.05 -8.6 0.4 -8.25 -3.5 -6.9 -4.0 -6.1 2.95 -6.0 1.15 -3.95 3.05 -3.65 3.5 -4.35 4.5 -1.3 6.1 -2.9 5.1 -0.95 2.9 -1.1 0.95 1.25 -1.0 2.9 -0.45 3.45 -1.85 2.3 -0.25 -0.1 -2.1 -0.45 -7.0 6.2 -7.4 4.65 -8.45 4.5 -9.35 6.3 -8.15 7.25 -8.8 9.65 -9.75 9.5 -11.75 11.85 -11.05 12.15 -13.25 11.25 M2.6 -10.25 L3.05 -10.0 2.7 -10.0 2.6 -10.25 M10.2 -0.95 L10.75 -1.1 10.6 -1.65 10.65 -1.6 10.7 -1.5 Q11.1 -0.85 10.4 -0.85 10.25 -0.85 10.2 -0.95 M10.35 -6.75 L10.1 -7.1 10.3 -7.05 10.5 -6.95 10.4 -6.9 10.35 -6.75 M1.2 -10.0 L0.35 -9.95 Q0.1 -11.0 0.75 -10.35 L1.2 -10.0 M11.4 5.65 L10.0 5.75 12.25 3.65 12.4 4.35 11.4 5.65 M12.7 3.6 L12.1 2.5 12.9 2.35 12.7 3.6 M7.55 4.05 L4.65 4.7 5.7 2.6 7.95 2.75 7.55 4.05 M6.8 0.2 L8.5 -1.15 9.4 0.35 8.45 1.0 6.8 0.2 M9.95 0.85 L10.3 2.1 Q10.2 2.7 9.8 1.85 9.55 1.45 9.95 0.85 M4.5 1.1 L2.3 3.05 2.9 1.45 0.95 1.55 2.3 0.7 4.5 1.1 M7.1 7.2 L4.0 9.0 6.0 6.95 7.1 7.2 M-6.05 -14.15 L-6.1 -14.05 -6.1 -13.95 -6.1 -13.85 -6.4 -13.75 -6.7 -13.55 -6.8 -13.35 -6.75 -13.05 -6.6 -12.95 -6.35 -12.8 -6.55 -12.5 -6.8 -12.0 Q-7.1 -11.35 -6.75 -10.9 -7.35 -10.7 -7.75 -10.2 L-7.75 -10.0 -7.75 -9.9 -7.75 -9.8 Q-6.65 -9.25 -5.95 -10.35 L-5.95 -10.4 -5.8 -10.35 Q-4.45 -10.0 -3.7 -11.2 L-3.25 -12.05 Q-2.8 -13.8 -4.4 -14.0 L-5.2 -13.75 -5.9 -14.15 -6.05 -14.15 M-2.15 -11.35 L-2.2 -11.45 -2.6 -11.85 -2.6 -11.8 Q-2.95 -11.8 -3.1 -11.5 L-3.1 -11.35 -3.1 -11.15 Q-2.95 -10.9 -2.6 -10.85 L-2.4 -11.0 -2.15 -11.35 M-7.4 -9.05 L-7.75 -8.7 -7.8 -8.3 Q-7.1 -7.15 -5.9 -8.3 -5.0 -9.2 -6.2 -9.65 L-6.35 -9.6 -7.4 -9.05 M-4.3 -9.95 L-4.5 -9.9 Q-5.1 -9.65 -4.95 -9.05 L-4.7 -8.8 -4.2 -8.75 Q-3.15 -9.5 -4.3 -9.95 M-6.55 -7.0 L-6.5 -6.75 Q-6.4 -6.5 -6.05 -6.5 -5.95 -6.5 -5.85 -6.6 -5.65 -6.75 -5.6 -7.0 L-5.65 -7.1 -6.05 -7.45 -6.05 -7.4 -6.5 -7.15 -6.55 -7.0 M-8.1 -6.7 L-8.1 -6.65 Q-9.5 -6.45 -9.25 -5.15 L-9.05 -5.0 Q-7.65 -4.35 -7.65 -5.7 L-7.45 -6.0 -7.4 -6.25 -7.45 -6.35 Q-7.65 -6.75 -8.1 -6.7 M-5.65 -4.85 L-5.4 -4.35 Q-5.25 -4.2 -5.0 -4.2 -4.75 -4.2 -4.5 -4.35 -4.35 -4.55 -4.35 -4.85 L-4.5 -5.25 -5.0 -5.45 -5.4 -5.25 -5.65 -4.85 M-8.3 -3.3 Q-8.5 -3.7 -8.95 -3.8 L-9.1 -3.75 -9.2 -3.75 -9.3 -3.65 -9.75 -3.25 -9.85 -2.95 -9.8 -2.5 Q-9.1 -2.05 -8.45 -2.7 L-8.3 -3.0 -8.3 -3.2 -8.3 -3.3 M-6.9 -4.5 L-7.1 -4.45 -7.15 -4.45 -7.3 -4.25 -7.35 -3.75 Q-6.75 -3.15 -6.4 -3.9 L-6.4 -4.0 Q-6.45 -4.45 -6.9 -4.5 M-4.05 -3.2 L-2.6 -2.55 -0.1 -4.9 -2.9 -4.4 -4.05 -3.2 M-4.05 -1.45 Q-4.25 -1.75 -4.55 -1.8 -5.65 -1.7 -5.4 -0.8 -4.35 -0.3 -4.0 -1.3 L-4.05 -1.45 M-1.8 3.3 L-3.8 5.75 -5.95 5.7 Q-5.15 3.2 -2.8 2.8 -1.7 2.55 -1.8 3.3 M-4.55 0.5 L-5.75 0.5 -5.75 1.7 -4.55 1.7 -4.55 0.5 M-7.9 0.5 L-7.55 0.45 Q-6.55 -0.55 -7.7 -1.1 -8.6 -0.85 -8.4 0.1 L-7.9 0.5 M-8.15 2.5 L-8.5 2.25 Q-8.95 2.35 -9.3 2.75 L-9.25 2.95 -9.25 3.15 -8.95 3.3 -8.15 2.6 -8.15 2.5 M-9.8 7.8 Q-9.9 7.55 -10.05 7.6 -10.25 7.55 -10.35 7.8 L-10.45 8.25 -10.35 8.7 -10.05 8.9 -9.8 8.7 -9.7 8.25 -9.8 7.8 M-7.8 8.3 L-4.9 7.1 -5.0 7.85 -8.15 9.0 -7.8 8.3 M-7.25 10.45 L-8.35 10.2 -5.7 9.75 -7.25 10.45 M-6.75 11.95 L-10.2 12.55 -9.75 12.05 -6.75 11.95 M-5.75 8.95 L-4.45 7.7 -4.35 6.4 -3.45 7.4 -5.15 9.35 -5.75 8.95 M-0.1 9.2 L-3.1 10.85 -0.55 8.55 -0.1 9.2 M-1.75 4.55 L1.2 4.3 -2.65 6.75 -1.75 4.55" fill="#dd1c1c" fill-rule="evenodd" stroke="none"/>
      <path d="M11.85 -9.6 L13.4 -7.7 9.45 -9.35 10.85 -10.35 11.85 -9.6 M14.95 -5.2 Q16.25 -2.7 16.15 0.2 16.05 1.9 15.25 3.3 14.05 3.55 13.15 4.35 13.0 4.5 13.1 4.65 L13.4 5.65 13.3 5.7 Q12.3 5.8 11.85 6.65 L11.65 6.75 11.25 7.15 11.2 7.25 11.2 7.35 11.15 7.55 10.8 7.65 10.55 7.75 Q8.6 7.75 7.15 8.75 L7.15 9.05 Q7.15 9.55 7.45 10.05 L5.5 10.7 5.7 10.65 5.3 10.6 4.95 10.15 Q4.55 9.95 4.25 10.15 3.4 10.65 3.25 11.45 L0.85 12.2 0.3 12.4 -0.05 12.4 -0.45 12.35 -3.5 12.15 Q-4.0 11.4 -4.7 11.95 L-8.8 14.45 -8.85 14.45 -10.7 13.9 Q-12.55 13.05 -13.25 11.25 L-11.05 12.15 -11.75 11.85 -9.75 9.5 -8.8 9.65 -8.15 7.25 -9.35 6.3 -8.45 4.5 -7.4 4.65 -7.0 6.2 -2.1 -0.45 -0.25 -0.1 -1.85 2.3 -0.45 3.45 -1.0 2.9 0.95 1.25 2.9 -1.1 5.1 -0.95 6.1 -2.9 4.5 -1.3 3.5 -4.35 3.05 -3.65 1.15 -3.95 2.95 -6.0 -4.0 -6.1 -3.5 -6.9 0.4 -8.25 1.35 -7.95 Q1.8 -7.3 2.6 -6.75 L4.15 -5.9 3.75 -4.35 4.65 -3.85 5.65 -4.85 5.95 -4.5 6.8 -3.5 7.0 -3.2 Q7.5 -2.75 8.3 -2.85 L8.4 -2.7 9.3 -1.95 Q9.5 -1.7 9.75 -1.6 L10.2 -0.95 Q10.25 -0.85 10.4 -0.85 11.1 -0.85 10.7 -1.5 L10.75 -1.45 Q11.45 -1.6 11.7 -2.65 L11.95 -3.15 11.95 -3.5 Q12.65 -3.35 13.15 -3.75 L13.2 -3.85 13.25 -3.95 13.25 -4.05 13.1 -4.55 12.8 -5.05 13.15 -5.05 14.7 -4.95 14.95 -5.2 M-3.65 13.55 L-5.5 14.05 -5.65 14.1 -4.5 13.4 -3.65 13.55 M3.25 -13.6 L3.75 -12.25 2.25 -12.8 2.25 -12.9 Q2.1 -13.85 3.25 -13.6 M0.2 -11.6 L1.8 -10.7 2.6 -10.25 2.7 -10.0 1.2 -10.0 0.75 -10.35 Q0.1 -11.0 0.35 -9.95 L-1.5 -9.9 -2.0 -11.8 0.2 -11.6 M5.6 -12.9 L6.8 -12.45 6.75 -12.35 6.55 -11.4 5.6 -12.9 M10.3 -7.05 L11.55 -6.9 10.4 -6.9 10.5 -6.95 10.3 -7.05 M13.2 -6.6 L13.5 -6.6 13.3 -6.55 13.2 -6.6 M15.55 2.0 L15.55 1.9 Q15.25 1.15 14.4 1.4 13.9 1.4 13.55 1.9 13.1 2.7 13.6 3.5 L13.85 3.55 14.1 3.35 15.55 2.0 M11.4 5.65 L12.4 4.35 12.25 3.65 10.0 5.75 11.4 5.65 M12.7 3.6 L12.9 2.35 12.1 2.5 12.7 3.6 M6.8 0.2 L8.45 1.0 9.4 0.35 8.5 -1.15 6.8 0.2 M7.55 4.05 L7.95 2.75 5.7 2.6 4.65 4.7 7.55 4.05 M9.25 5.95 L9.25 6.0 9.05 6.0 9.0 6.05 Q8.5 6.35 8.7 6.85 9.2 8.15 9.95 7.1 L9.95 7.0 Q9.9 6.2 9.25 5.95 M4.5 1.1 L2.3 0.7 0.95 1.55 2.9 1.45 2.3 3.05 4.5 1.1 M9.95 0.85 Q9.55 1.45 9.8 1.85 10.2 2.7 10.3 2.1 L9.95 0.85 M5.0 9.3 L4.95 9.5 5.0 9.9 Q5.85 10.3 6.55 9.5 L6.55 9.25 6.55 9.05 6.45 8.95 Q6.25 8.65 5.95 8.7 5.4 8.8 5.0 9.3 M0.05 12.2 L1.3 11.85 Q2.55 11.35 3.25 10.45 L3.2 10.35 Q3.05 9.95 2.65 10.0 L1.5 10.3 Q0.4 10.55 -0.3 11.1 L-0.3 11.2 -0.3 11.35 -0.4 11.45 -0.45 11.55 -0.45 11.7 -0.45 11.8 -0.45 11.95 Q-0.3 12.2 0.05 12.2 M7.1 7.2 L6.0 6.95 4.0 9.0 7.1 7.2 M-5.65 -4.85 L-5.4 -5.25 -5.0 -5.45 -4.5 -5.25 -4.35 -4.85 Q-4.35 -4.55 -4.5 -4.35 -4.75 -4.2 -5.0 -4.2 -5.25 -4.2 -5.4 -4.35 L-5.65 -4.85 M-0.1 9.2 L-0.55 8.55 -3.1 10.85 -0.1 9.2 M-5.75 8.95 L-5.15 9.35 -3.45 7.4 -4.35 6.4 -4.45 7.7 -5.75 8.95 M-6.75 11.95 L-9.75 12.05 -10.2 12.55 -6.75 11.95 M-7.25 10.45 L-5.7 9.75 -8.35 10.2 -7.25 10.45 M-7.8 8.3 L-8.15 9.0 -5.0 7.85 -4.9 7.1 -7.8 8.3 M-9.8 7.8 L-9.7 8.25 -9.8 8.7 -10.05 8.9 -10.35 8.7 -10.45 8.25 -10.35 7.8 Q-10.25 7.55 -10.05 7.6 -9.9 7.55 -9.8 7.8 M-8.15 2.5 L-8.15 2.6 -8.95 3.3 -9.25 3.15 -9.25 2.95 -9.3 2.75 Q-8.95 2.35 -8.5 2.25 L-8.15 2.5 M-7.9 0.5 L-8.4 0.1 Q-8.6 -0.85 -7.7 -1.1 -6.55 -0.55 -7.55 0.45 L-7.9 0.5 M-4.55 0.5 L-4.55 1.7 -5.75 1.7 -5.75 0.5 -4.55 0.5 M-1.8 3.3 Q-1.7 2.55 -2.8 2.8 -5.15 3.2 -5.95 5.7 L-3.8 5.75 -1.8 3.3 M-4.05 -1.45 L-4.0 -1.3 Q-4.35 -0.3 -5.4 -0.8 -5.65 -1.7 -4.55 -1.8 -4.25 -1.75 -4.05 -1.45 M-4.05 -3.2 L-2.9 -4.4 -0.1 -4.9 -2.6 -2.55 -4.05 -3.2 M-1.75 4.55 L-2.65 6.75 1.2 4.3 -1.75 4.55" fill="#b41616" fill-rule="evenodd" stroke="none"/>
      <path d="M2.85 -14.8 L2.35 -16.25 3.0 -16.95 4.85 -14.1 5.6 -12.9 5.25 -13.4 5.7 -10.15 1.8 -10.7 0.2 -11.6 -2.95 -13.35 -2.85 -14.55 2.25 -12.8 3.75 -12.25 3.25 -13.6 2.85 -14.8 M7.2 -13.05 L8.1 -12.8 8.4 -12.35 8.75 -11.6 9.45 -11.7 13.2 -11.95 11.0 -10.45 10.85 -10.35 9.45 -9.35 13.4 -7.7 17.6 -5.95 14.2 -6.45 13.5 -6.6 13.2 -6.6 13.2 -6.65 11.55 -6.9 10.3 -7.05 10.1 -7.1 10.35 -6.75 12.9 -4.25 9.6 -5.3 10.6 -1.65 10.75 -1.1 10.2 -0.95 9.75 -1.6 7.0 -5.65 7.65 -7.75 9.85 -8.0 8.15 -9.4 9.05 -11.1 8.6 -11.3 7.15 -10.75 6.75 -12.35 6.8 -12.45 7.2 -13.05 M3.05 -10.0 L1.75 -9.95 4.95 -9.15 3.85 -7.25 1.35 -7.95 0.4 -8.25 -3.05 -8.6 -2.95 -9.9 -1.5 -9.9 0.35 -9.95 1.2 -10.0 2.7 -10.0 3.05 -10.0 M4.4 -7.1 L6.35 -7.45 6.3 -5.45 5.65 -4.85 4.65 -3.85 3.75 -4.35 4.15 -5.9 4.4 -7.1" fill="#4f9c0e" fill-rule="evenodd" stroke="none"/>
      <path d="M-6.05 -14.15 L-5.9 -14.15 -5.2 -13.75 -4.4 -14.0 Q-2.8 -13.8 -3.25 -12.05 L-3.7 -11.2 Q-4.45 -10.0 -5.8 -10.35 L-5.95 -10.4 -5.95 -10.35 Q-6.65 -9.25 -7.75 -9.8 L-7.75 -9.9 -7.75 -10.0 -7.75 -10.2 Q-7.35 -10.7 -6.75 -10.9 -7.1 -11.35 -6.8 -12.0 L-6.55 -12.5 -6.35 -12.8 -6.6 -12.95 -6.75 -13.05 -6.8 -13.35 -6.7 -13.55 -6.4 -13.75 -6.1 -13.85 -6.1 -13.95 -6.1 -14.05 -6.05 -14.15 M-5.2 -13.4 L-5.9 -13.05 Q-6.15 -12.8 -6.0 -12.35 -5.45 -11.3 -4.45 -11.8 L-4.05 -12.2 Q-3.55 -13.55 -5.2 -13.4 M-2.15 -11.35 L-2.4 -11.0 -2.6 -10.85 Q-2.95 -10.9 -3.1 -11.15 L-3.1 -11.35 -3.1 -11.5 Q-2.95 -11.8 -2.6 -11.8 L-2.6 -11.85 -2.2 -11.45 -2.15 -11.35 M-4.3 -9.95 Q-3.15 -9.5 -4.2 -8.75 L-4.7 -8.8 -4.95 -9.05 Q-5.1 -9.65 -4.5 -9.9 L-4.3 -9.95 M-6.35 -9.6 L-6.2 -9.65 Q-5.0 -9.2 -5.9 -8.3 -7.1 -7.15 -7.8 -8.3 L-7.75 -8.7 -7.4 -9.05 Q-7.4 -8.6 -6.9 -8.45 L-6.35 -8.5 Q-5.4 -9.25 -6.35 -9.6 M-8.1 -6.7 Q-7.65 -6.75 -7.45 -6.35 L-7.4 -6.25 -7.45 -6.0 -7.65 -5.7 Q-7.65 -4.35 -9.05 -5.0 L-9.25 -5.15 Q-9.5 -6.45 -8.1 -6.65 L-8.1 -6.7 M-6.55 -7.0 L-6.5 -7.15 -6.05 -7.4 -6.05 -7.45 -5.65 -7.1 -5.6 -7.0 Q-5.65 -6.75 -5.85 -6.6 -5.95 -6.5 -6.05 -6.5 -6.4 -6.5 -6.5 -6.75 L-6.55 -7.0 M-6.9 -4.5 Q-6.45 -4.45 -6.4 -4.0 L-6.4 -3.9 Q-6.75 -3.15 -7.35 -3.75 L-7.3 -4.25 -7.15 -4.45 -7.1 -4.45 -6.9 -4.5 M-8.3 -3.3 L-8.3 -3.2 -8.3 -3.0 -8.45 -2.7 Q-9.1 -2.05 -9.8 -2.5 L-9.85 -2.95 -9.75 -3.25 -9.3 -3.65 -9.2 -3.75 -9.1 -3.75 -8.95 -3.8 Q-8.5 -3.7 -8.3 -3.3" fill="#fbc4c4" fill-rule="evenodd" stroke="none"/>
      <path d="M-5.2 -13.4 Q-3.55 -13.55 -4.05 -12.2 L-4.45 -11.8 Q-5.45 -11.3 -6.0 -12.35 -6.15 -12.8 -5.9 -13.05 L-5.2 -13.4 M-7.4 -9.05 L-6.35 -9.6 Q-5.4 -9.25 -6.35 -8.5 L-6.9 -8.45 Q-7.4 -8.6 -7.4 -9.05" fill="#ffffff" fill-rule="evenodd" stroke="none"/>
      <path d="M14.2 -6.45 L14.95 -5.2 14.7 -4.95 13.15 -5.05 12.8 -5.05 13.1 -4.55 13.25 -4.05 13.25 -3.95 13.2 -3.85 13.15 -3.75 Q12.65 -3.35 11.95 -3.5 L11.95 -3.15 11.7 -2.65 Q11.45 -1.6 10.75 -1.45 L10.7 -1.5 10.65 -1.6 10.6 -1.65 9.6 -5.3 12.9 -4.25 10.35 -6.75 10.4 -6.9 11.55 -6.9 13.2 -6.65 13.2 -6.6 13.3 -6.55 13.5 -6.6 14.2 -6.45 M15.25 3.3 L14.8 3.9 14.7 4.05 13.4 5.65 13.1 4.65 Q13.0 4.5 13.15 4.35 14.05 3.55 15.25 3.3 M13.3 5.7 L10.1 8.55 Q8.85 9.4 7.45 10.05 7.15 9.55 7.15 9.05 L7.15 8.75 Q8.6 7.75 10.55 7.75 L10.8 7.65 11.15 7.55 11.2 7.35 11.2 7.25 11.25 7.15 11.65 6.75 11.85 6.65 Q12.3 5.8 13.3 5.7 M5.5 10.7 L3.25 11.45 Q3.4 10.65 4.25 10.15 4.55 9.95 4.95 10.15 L5.3 10.6 5.7 10.65 5.5 10.7 M0.3 12.4 L-0.2 12.55 -3.65 13.55 -4.5 13.4 -5.65 14.1 -7.2 14.45 -8.8 14.45 -4.7 11.95 Q-4.0 11.4 -3.5 12.15 L-0.45 12.35 -0.05 12.4 0.3 12.4 M3.85 -7.25 L4.4 -7.1 4.15 -5.9 2.6 -6.75 Q1.8 -7.3 1.35 -7.95 L3.85 -7.25 M6.3 -5.45 L6.55 -5.7 7.0 -5.65 9.75 -1.6 Q9.5 -1.7 9.3 -1.95 L8.4 -2.7 8.3 -2.85 Q7.5 -2.75 7.0 -3.2 L6.8 -3.5 5.95 -4.5 5.65 -4.85 6.3 -5.45 M15.55 2.0 L14.1 3.35 13.85 3.55 13.6 3.5 Q13.1 2.7 13.55 1.9 13.9 1.4 14.4 1.4 15.25 1.15 15.55 1.9 L15.55 2.0 M9.25 5.95 Q9.9 6.2 9.95 7.0 L9.95 7.1 Q9.2 8.15 8.7 6.85 8.5 6.35 9.0 6.05 L9.05 6.0 9.25 6.0 9.25 5.95 M0.05 12.2 Q-0.3 12.2 -0.45 11.95 L-0.45 11.8 -0.45 11.7 -0.45 11.55 -0.4 11.45 -0.3 11.35 -0.3 11.2 -0.3 11.1 Q0.4 10.55 1.5 10.3 L2.65 10.0 Q3.05 9.95 3.2 10.35 L3.25 10.45 Q2.55 11.35 1.3 11.85 L0.05 12.2 M5.0 9.3 Q5.4 8.8 5.95 8.7 6.25 8.65 6.45 8.95 L6.55 9.05 6.55 9.25 6.55 9.5 Q5.85 10.3 5.0 9.9 L4.95 9.5 5.0 9.3" fill="#881111" fill-rule="evenodd" stroke="none"/>
      <path d="M1.8 -10.7 L5.7 -10.15 5.25 -13.4 5.6 -12.9 6.55 -11.4 6.75 -12.35 7.15 -10.75 8.6 -11.3 9.05 -11.1 8.15 -9.4 9.85 -8.0 7.65 -7.75 7.0 -5.65 6.55 -5.7 6.3 -5.45 6.35 -7.45 4.4 -7.1 3.85 -7.25 4.95 -9.15 1.75 -9.95 3.05 -10.0 2.6 -10.25 1.8 -10.7" fill="#3e700a" fill-rule="evenodd" stroke="none"/>
    </g>
  </defs>
</svg>
